<svg xmlns="http://www.w3.org/2000/svg" width="270" height="40"><title>app-store-badges-fr</title><defs><linearGradient id="a" x1="50%" x2="50%" y1="0%" y2="100%"><stop stop-color="#00C3FF" offset="3.938%"/><stop stop-color="#00E1FF" offset="97.744%"/></linearGradient><linearGradient id="b" x1="80.747%" x2="-156.778%" y1="50%" y2="50%"><stop stop-color="#FDDE31" offset="0%"/><stop stop-color="#FABC31" offset="40%"/><stop stop-color="#F8A431" offset="77%"/><stop stop-color="#F79B31" offset="100%"/></linearGradient><linearGradient id="c" x1="86.151%" x2="-50.12%" y1="17.813%" y2="194.699%"><stop stop-color="#FF3A44" offset="0%"/><stop stop-color="#C4206D" offset="100%"/></linearGradient></defs><g fill="none"><path fill="#000" d="M134.03 35.27c0 2.1-1.7 3.83-3.83 3.83H4.73C2.6 39.1.9 37.38.9 35.27V4.72C.9 2.63 2.6.9 4.72.9H130.2c2.12 0 3.83 1.7 3.83 3.82v30.55z"/><path d="M30.16 19.78c-.03-3.22 2.64-4.8 2.76-4.86-1.5-2.2-3.85-2.5-4.68-2.53-1.96-.22-3.87 1.17-4.87 1.17-1.03 0-2.57-1.16-4.23-1.12-2.14.03-4.14 1.27-5.24 3.2-2.27 3.9-.58 9.68 1.6 12.85 1.08 1.55 2.35 3.3 4 3.23 1.63-.07 2.24-1.04 4.2-1.04 1.95 0 2.52 1.03 4.2 1 1.75-.04 2.85-1.57 3.9-3.14 1.25-1.78 1.76-3.53 1.78-3.62-.04-.02-3.4-1.3-3.42-5.16zm-3.2-9.48c.87-1.1 1.47-2.57 1.3-4.08-1.26.05-2.84.87-3.75 1.94-.8.94-1.52 2.5-1.33 3.94 1.42.1 2.88-.72 3.8-1.8zM45.17 31.5h-1.94V18.74h1.94zm5.08-12.45c-.52 1.8-1.13 3.3-1.84 4.46l-1.2.14c.54-1.44.9-2.9 1.14-4.4l1.9-.2zm9.52 12.45H57.7l-1.13-3.56h-3.94l-1.08 3.56h-2.02l3.9-12.13h2.42l3.92 12.13zm-3.54-5.06l-1.03-3.16c-.1-.33-.3-1.1-.6-2.3h-.05c-.12.53-.3 1.3-.57 2.3l-1 3.17h3.25zm13.59.58c0 1.5-.4 2.67-1.2 3.53-.73.77-1.62 1.15-2.7 1.15-1.14 0-1.97-.4-2.48-1.24h-.03v4.6h-1.94v-9.43c0-.93-.02-1.9-.07-2.88h1.7l.1 1.4h.05c.64-1.05 1.63-1.58 2.95-1.58 1.03 0 1.9.4 2.58 1.23.7.82 1.04 1.9 1.04 3.22zm-1.98.07c0-.86-.2-1.56-.58-2.1-.42-.6-.98-.87-1.7-.87-.47 0-.9.15-1.3.47-.4.32-.64.74-.76 1.25-.06.24-.1.44-.1.6v1.46c0 .64.2 1.18.6 1.62.38.43.9.65 1.5.65.75 0 1.32-.28 1.72-.84.4-.57.62-1.3.62-2.24zm12.04-.07c0 1.5-.4 2.67-1.2 3.53-.73.77-1.62 1.15-2.7 1.15-1.14 0-1.97-.4-2.47-1.24h-.03v4.6h-1.94v-9.43c0-.93-.03-1.9-.07-2.88h1.7l.1 1.4h.05c.66-1.05 1.64-1.58 2.96-1.58 1.03 0 1.9.4 2.58 1.23.7.82 1.04 1.9 1.04 3.22zm-1.98.07c0-.86-.2-1.56-.58-2.1-.42-.6-.98-.87-1.7-.87-.47 0-.9.15-1.3.47-.4.32-.64.74-.76 1.25-.06.24-.1.44-.1.6v1.46c0 .64.2 1.18.6 1.62.38.43.9.65 1.5.65.75 0 1.32-.28 1.73-.84.4-.57.6-1.3.6-2.24zm13.23 1.01c0 1.03-.36 1.87-1.08 2.52-.8.7-1.9 1.07-3.3 1.07-1.3 0-2.36-.27-3.15-.77l.45-1.62c.85.53 1.8.78 2.8.78.74 0 1.3-.16 1.72-.5.4-.32.6-.76.6-1.32 0-.5-.15-.9-.5-1.24-.33-.34-.9-.65-1.66-.94-2.12-.8-3.18-1.95-3.18-3.48 0-1 .37-1.8 1.1-2.45.76-.64 1.75-.96 2.98-.96 1.1 0 2.03.2 2.76.57l-.5 1.58c-.67-.37-1.45-.56-2.3-.56-.7 0-1.23.16-1.6.5-.34.3-.5.66-.5 1.1 0 .48.2.87.56 1.2.32.27.9.6 1.77.92 1.03.42 1.8.9 2.3 1.48.48.56.73 1.26.73 2.1zm6.42-3.9H95.4v4.26c0 1.08.4 1.62 1.15 1.62.34 0 .63-.03.86-.1l.06 1.5c-.38.13-.88.2-1.5.2-.78 0-1.38-.23-1.8-.7-.44-.47-.66-1.25-.66-2.36v-4.4h-1.27v-1.46h1.27v-1.6l1.9-.58v2.18h2.15v1.45zm9.67 2.86c0 1.34-.4 2.45-1.15 3.3-.8.9-1.87 1.34-3.2 1.34-1.3 0-2.3-.42-3.08-1.28-.77-.85-1.15-1.92-1.15-3.22 0-1.35.4-2.46 1.18-3.33.8-.86 1.85-1.3 3.18-1.3 1.3 0 2.32.43 3.1 1.28.75.83 1.12 1.9 1.12 3.2zm-2.02.06c0-.8-.17-1.5-.52-2.08-.4-.7-1-1.04-1.75-1.04-.78 0-1.37.35-1.78 1.04-.35.58-.52 1.3-.52 2.12 0 .8.18 1.5.52 2.07.42.7 1 1.05 1.77 1.05.74 0 1.32-.35 1.74-1.06.36-.6.54-1.3.54-2.1zm8.33-2.65c-.2-.04-.4-.06-.6-.06-.7 0-1.22.27-1.6.8-.3.44-.48 1.02-.48 1.7v4.6h-1.94l.03-6c0-1-.02-1.92-.07-2.74h1.7l.06 1.67h.05c.2-.58.53-1.04.98-1.4.43-.3.9-.45 1.4-.45.18 0 .34 0 .5.03v1.87h-.02zm8.7 2.25c0 .35-.03.64-.07.88h-5.83c.02.86.3 1.52.84 1.98.5.4 1.13.6 1.9.6.87 0 1.66-.13 2.37-.4l.3 1.35c-.82.36-1.8.54-2.93.54-1.35 0-2.4-.4-3.2-1.2-.76-.8-1.14-1.87-1.14-3.2s.35-2.43 1.07-3.3c.76-.94 1.78-1.4 3.06-1.4 1.25 0 2.2.46 2.86 1.4.5.74.77 1.65.77 2.75zm-1.85-.5c0-.58-.12-1.08-.38-1.5-.34-.54-.85-.8-1.55-.8-.64 0-1.15.25-1.55.78-.32.42-.5.92-.57 1.5h4.05zM47.84 7.78h-1.87v5.65h-1.05V7.78h-1.86V6.9h4.78zm5.14 3.07c0 .2 0 .35-.04.48H49.8c0 .46.16.82.45 1.06.27.2.6.32 1.03.32.47 0 .9-.07 1.27-.22l.17.73c-.45.2-.98.3-1.58.3-.73 0-1.3-.22-1.73-.65-.4-.43-.6-1-.6-1.74 0-.7.18-1.3.57-1.77.4-.5.96-.76 1.65-.76.68 0 1.2.27 1.54.77.28.4.42.9.42 1.48zm-1-.27c0-.3-.06-.58-.2-.8-.18-.3-.46-.44-.84-.44-.34 0-.62.14-.83.43-.17.22-.27.5-.3.8h2.18zm.43-3.84l-1.16 1.4h-.73l.85-1.4h1.06zm3.14 6.69H54.5V6.56h1.05zm5.75-2.58c0 .2-.02.35-.05.48H58.1c.02.46.18.82.47 1.06.26.2.6.32 1.02.32.46 0 .88-.07 1.26-.22l.17.73c-.45.2-.97.3-1.58.3-.73 0-1.3-.22-1.72-.65-.42-.43-.63-1-.63-1.74 0-.7.2-1.3.58-1.77.4-.5.96-.76 1.65-.76.68 0 1.2.27 1.54.77.28.4.42.9.42 1.48zm-1-.27c0-.3-.07-.58-.2-.8-.2-.3-.47-.44-.84-.44-.35 0-.62.14-.84.43-.17.22-.28.5-.3.8h2.17zm.42-3.84l-1.17 1.4h-.73l.84-1.4h1.06zm5.46 2.11l-.2.8c-.27-.14-.57-.2-.9-.2-.47 0-.84.15-1.1.46-.27.3-.4.7-.4 1.18 0 .5.13.9.4 1.18.3.3.65.44 1.1.44.3 0 .63-.07.94-.2l.14.8c-.34.15-.77.23-1.3.23-.72 0-1.3-.22-1.72-.65-.42-.44-.64-1.02-.64-1.76 0-.72.23-1.33.7-1.8.45-.46 1.07-.7 1.85-.7.44 0 .8.08 1.13.23zm5.52 4.58h-1.04v-2.68c0-.84-.3-1.27-.95-1.27-.47 0-.8.25-1 .74-.02.1-.04.23-.04.38v2.83h-1.04V6.56h1.04V9.4h.02c.33-.52.8-.78 1.42-.78.43 0 .8.14 1.08.43.35.35.53.88.53 1.58v2.8zm5.38 0h-.94l-.08-.54h-.02c-.33.42-.8.64-1.38.64-.45 0-.8-.14-1.08-.43-.24-.24-.37-.57-.37-.95 0-.57.25-1 .74-1.32.48-.3 1.16-.45 2.03-.44v-.1c0-.62-.33-.93-.98-.93-.47 0-.88.12-1.24.35l-.2-.7c.43-.26.97-.4 1.6-.4 1.24 0 1.86.65 1.86 1.95v1.74c0 .48.02.86.06 1.13zM76 11.8v-.7c-1.16-.03-1.74.28-1.74.94 0 .24.07.43.2.55.14.1.3.17.52.17.22 0 .44-.07.64-.22.2-.14.3-.33.36-.55 0-.05.02-.12.02-.2zm5.34-2.16c-.1-.02-.2-.03-.33-.03-.35 0-.64.15-.84.43-.18.25-.26.56-.26.93v2.47h-1.05V10.2c0-.54 0-1.03-.03-1.48h.9l.05.9h.03c.1-.3.28-.56.52-.74.24-.17.5-.26.76-.26.1 0 .2 0 .26.02v1zm5.46-.92c0 .38-.03.83-.03 1.34v2.7c0 1-.22 1.72-.68 2.13-.42.36-1 .55-1.75.55-.66 0-1.18-.12-1.58-.37l.24-.8c.4.24.85.36 1.35.36.92 0 1.4-.5 1.4-1.5v-.46h-.03c-.3.48-.76.72-1.4.72-.56 0-1.03-.2-1.4-.65-.37-.43-.55-.98-.55-1.65 0-.75.2-1.36.64-1.83.4-.43.9-.65 1.45-.65.65 0 1.1.25 1.38.75h.02l.04-.65h.9zm-1.07 2.7v-.84c0-.3-.1-.6-.3-.8-.2-.24-.46-.35-.78-.35-.36 0-.66.15-.9.44-.22.3-.33.7-.33 1.2 0 .45.1.8.32 1.1.22.3.52.45.9.45.24 0 .45-.07.63-.2.2-.15.32-.34.4-.58.04-.1.06-.26.06-.42zm6.79-.57c0 .2-.02.35-.04.48h-3.15c.02.46.17.82.46 1.06.26.2.6.32 1.02.32.46 0 .9-.07 1.27-.22l.15.73c-.44.2-.97.3-1.58.3-.73 0-1.3-.22-1.72-.65-.42-.43-.63-1-.63-1.74 0-.7.2-1.3.6-1.77.4-.5.94-.76 1.63-.76.68 0 1.2.27 1.55.77.28.4.42.9.42 1.48zm-1-.27c0-.3-.07-.58-.2-.8-.2-.3-.47-.44-.84-.44-.34 0-.62.14-.84.43-.17.22-.27.5-.3.8h2.18zm5.01-.94c-.1-.02-.2-.03-.33-.03-.37 0-.65.15-.85.43-.18.25-.26.56-.26.93v2.47h-1.06V10.2c0-.54 0-1.03-.03-1.48h.92l.04.9H95c.1-.3.27-.56.5-.74.24-.17.5-.26.77-.26.1 0 .18 0 .26.02v1zm8.37 3.79h-.94l-.05-.75h-.02c-.3.57-.8.86-1.5.86-.58 0-1.05-.22-1.42-.67-.38-.45-.57-1.02-.57-1.74 0-.76.2-1.38.6-1.85.4-.44.88-.66 1.46-.66.63 0 1.08.2 1.33.64v-2.7h1.05v5.6c0 .46.02.88.04 1.27zm-1.1-1.98v-.8c0-.13 0-.24-.02-.32-.06-.25-.2-.47-.38-.64a.999.999 0 0 0-.7-.26c-.4 0-.7.15-.92.46-.23.3-.34.7-.34 1.2 0 .46.1.84.32 1.13.23.3.53.47.92.47.34 0 .62-.13.82-.4.2-.23.3-.52.3-.86zm6.45 1.98h-.94l-.07-.54h-.03c-.32.42-.78.64-1.38.64-.44 0-.8-.14-1.07-.43-.25-.24-.37-.57-.37-.95 0-.57.24-1 .72-1.32.48-.3 1.16-.45 2.03-.44v-.1c0-.62-.32-.93-.97-.93-.47 0-.88.12-1.23.35l-.22-.7c.45-.26 1-.4 1.63-.4 1.23 0 1.85.65 1.85 1.95v1.74c0 .48.02.86.07 1.13zm-1.1-1.62v-.7c-1.15-.03-1.73.28-1.73.94 0 .24.07.43.2.55.14.1.3.17.52.17.23 0 .44-.07.64-.22.2-.14.32-.33.36-.55 0-.05.02-.12.02-.2zm6.95 1.62h-1.04v-2.7c0-.83-.32-1.24-.95-1.24-.3 0-.55.1-.75.33-.2.23-.3.5-.3.8v2.8h-1.04v-3.36c0-.42 0-.87-.03-1.35h.92l.04.73h.03c.12-.22.3-.4.55-.56.28-.2.6-.28.94-.28.45 0 .8.14 1.1.43.36.35.55.87.55 1.56v2.83zm4.73-1.35c0 .44-.16.8-.48 1.05-.33.27-.77.4-1.34.4-.53 0-1-.1-1.36-.32l.22-.77c.36.22.75.33 1.16.33.53 0 .8-.2.8-.6 0-.16-.06-.3-.17-.42-.12-.1-.33-.22-.62-.33-.84-.3-1.26-.76-1.26-1.35 0-.4.15-.75.46-1.02.3-.27.72-.4 1.23-.4.47 0 .87.1 1.2.28l-.23.76c-.3-.18-.62-.27-.96-.27-.22 0-.4.04-.5.15-.14.1-.2.23-.2.4 0 .15.07.3.2.4.1.1.32.2.64.3.82.32 1.23.8 1.23 1.43z" fill="#fff"/></svg>