<svg id="Calque_1" data-name="Calque 1" xmlns="http://www.w3.org/2000/svg" xmlns:xlink="http://www.w3.org/1999/xlink" viewBox="0 0 135 40"><defs><style>.cls-1,.cls-6{fill:#fff;}.cls-2{fill:url(#Dégradé_sans_nom);}.cls-3{fill:url(#Dégradé_sans_nom_2);}.cls-4{fill:url(#Dégradé_sans_nom_3);}.cls-5{fill:#00f076;}.cls-6{stroke:#fff;stroke-width:0.2px;}.cls-7{fill:#a6a6a6;}</style><linearGradient id="Dégradé_sans_nom" x1="-291.33" y1="401.98" x2="-291.33" y2="400.98" gradientTransform="matrix(12.91, 0, 0, -24.97, 3778.12, 10044.99)" gradientUnits="userSpaceOnUse"><stop offset="0.04" stop-color="#00c3ff"/><stop offset="0.98" stop-color="#00e1ff"/></linearGradient><linearGradient id="Dégradé_sans_nom_2" x1="-287.49" y1="372.54" x2="-289.87" y2="372.54" gradientTransform="matrix(10.18, 0, 0, -8.53, 2957.77, 3197.75)" gradientUnits="userSpaceOnUse"><stop offset="0" stop-color="#fdde31"/><stop offset="0.4" stop-color="#fabc31"/><stop offset="0.77" stop-color="#f8a431"/><stop offset="1" stop-color="#f79b31"/></linearGradient><linearGradient id="Dégradé_sans_nom_3" x1="-293.95" y1="387.65" x2="-295.31" y2="385.88" gradientTransform="matrix(16.68, 0, 0, -12.86, 4927.83, 5005.78)" gradientUnits="userSpaceOnUse"><stop offset="0" stop-color="#ff3a44"/><stop offset="1" stop-color="#c4206d"/></linearGradient></defs><title>google-play</title><rect width="135" height="40" rx="5" ry="5"/><path class="cls-1" d="M68.14,21.75A4.26,4.26,0,1,0,72.42,26a4.13,4.13,0,0,0-1.22-3,4.2,4.2,0,0,0-3-1.22Zm0,6.83A2.58,2.58,0,1,1,70.54,26a2.46,2.46,0,0,1-2.4,2.58Zm-9.3-6.83a4.22,4.22,0,1,0,3,1.23,4.2,4.2,0,0,0-3-1.22Zm0,6.83A2.58,2.58,0,1,1,61.22,26a2.46,2.46,0,0,1-2.4,2.58Zm-11.1-5.52v1.8h4.32a3.77,3.77,0,0,1-1,2.27,4.37,4.37,0,0,1-3.33,1.32,4.8,4.8,0,0,1,0-9.6A4.54,4.54,0,0,1,51,20.15l1.27-1.28A6.36,6.36,0,0,0,47.74,17a6.61,6.61,0,1,0,0,13.21,5.84,5.84,0,0,0,6.17-6.06,5.34,5.34,0,0,0-.1-1.13l-6.06.06ZM93,24.46A3.86,3.86,0,0,0,86.51,23a4,4,0,0,0-1.1,3,4.25,4.25,0,0,0,1.22,3,4.15,4.15,0,0,0,3,1.23,4.26,4.26,0,0,0,3.55-1.88l-1.45-1a2.44,2.44,0,0,1-2.1,1.18,2.15,2.15,0,0,1-2-1.3l5.7-2.34-.22-.44Zm-5.8,1.42a2.36,2.36,0,0,1,.6-1.7,2.32,2.32,0,0,1,1.63-.78,1.64,1.64,0,0,1,1.58.9l-3.8,1.58ZM82.65,30h1.86V17.5H82.64V30Zm-3.07-7.3h-.07a3,3,0,0,0-2.24-1,4.26,4.26,0,0,0,0,8.51,2.84,2.84,0,0,0,2.24-1h.06v.62c0,1.63-.87,2.5-2.27,2.5a2.37,2.37,0,0,1-2.15-1.5l-1.63.67A4.08,4.08,0,0,0,77.3,34c2.18,0,4-1.3,4-4.43V22H79.57v.7Zm-2.14,5.88a2.59,2.59,0,0,1,0-5.16,2.44,2.44,0,0,1,1.68.8,2.39,2.39,0,0,1,.6,1.78,2.33,2.33,0,0,1-.6,1.78A2.27,2.27,0,0,1,77.44,28.58ZM101.8,17.5H97.34V30h1.87V25.26h2.62a3.89,3.89,0,0,0,3.6-5.9,3.91,3.91,0,0,0-3.6-1.86Zm0,6H99.2V19.24h2.65a2.14,2.14,0,1,1,0,4.28l0,0Zm11.54-1.8A3.51,3.51,0,0,0,110,23.6l1.67.7a1.75,1.75,0,0,1,1.7-.92,1.73,1.73,0,0,1,1.34.4,1.77,1.77,0,0,1,.67,1.2v.14a4.14,4.14,0,0,0-2-.48c-1.8,0-3.6,1-3.6,2.8a3,3,0,0,0,1,2,2.82,2.82,0,0,0,2.12.72,2.64,2.64,0,0,0,2.4-1.2h.06v1h1.8V25.2c0-2.2-1.66-3.47-3.8-3.47l0,0Zm-.23,6.85c-.6,0-1.45-.3-1.45-1.06,0-1,1.06-1.34,2-1.34a3.46,3.46,0,0,1,1.7.42,2.26,2.26,0,0,1-2.2,2l0,0ZM123.75,22l-2.14,5.42h-.06L119.32,22h-2l3.33,7.58-1.9,4.2h2L125.82,22h-2.07ZM107,30h1.86V17.5h-1.87V30Z"/><path class="cls-2" d="M10.44,7.55A2,2,0,0,0,10,9V31a2,2,0,0,0,.46,1.4l.07.07L22.9,20.15v-.3L10.5,7.5l-.06.07Z"/><path class="cls-3" d="M27,24.27l-4.13-4.13v-.3L27,15.74l.1,0L32,18.56c1.4.8,1.4,2.1,0,2.9l-4.9,2.77Z"/><path class="cls-4" d="M27.1,24.22,22.9,20,10.43,32.45a1.63,1.63,0,0,0,2.08.06l14.6-8.28"/><path class="cls-5" d="M27.1,15.78,12.5,7.48a1.63,1.63,0,0,0-2.07.07L22.9,20Z"/><path class="cls-6" d="M41.28,13V7h1.84a2.87,2.87,0,0,1,3,3,3,3,0,0,1-.83,2.17,3,3,0,0,1-2.2.83Zm.77-.74h1.06a2.26,2.26,0,0,0,1.66-.6,2.22,2.22,0,0,0,.6-1.66,2,2,0,0,0-.6-1.65,2,2,0,0,0-1.64-.6H42l0,4.5Zm5.19.74V7H48v6Zm3.83.13a2.21,2.21,0,0,1-1.28-.43A1.94,1.94,0,0,1,49,11.5l.7-.28a1.74,1.74,0,0,0,.5.83,1.34,1.34,0,0,0,.9.34,1.53,1.53,0,0,0,.85-.27.84.84,0,0,0,.36-.72.93.93,0,0,0-.36-.76,3.68,3.68,0,0,0-1.13-.5,3.08,3.08,0,0,1-1.22-.66,1.29,1.29,0,0,1-.4-1,1.49,1.49,0,0,1,.5-1.12A1.94,1.94,0,0,1,51,6.86a2,2,0,0,1,1.24.4,1.67,1.67,0,0,1,.62.82l-.7.3a1.08,1.08,0,0,0-.37-.54,1.32,1.32,0,0,0-1.54,0,.75.75,0,0,0-.3.62.69.69,0,0,0,.28.57,2.76,2.76,0,0,0,.85.4c.24.1.5.18.73.3a3.73,3.73,0,0,1,.6.35,1.36,1.36,0,0,1,.46.55,2,2,0,0,1,.15.77,1.75,1.75,0,0,1-.18.78,1.38,1.38,0,0,1-.48.54,2.26,2.26,0,0,1-.65.3,2,2,0,0,1-.68.1ZM55,13h-.77V7h2a2,2,0,0,1,1.32.5,1.77,1.77,0,0,1,.56,1.3,1.75,1.75,0,0,1-.55,1.27,1.85,1.85,0,0,1-1.32.5H55Zm0-3.17h1.3a1,1,0,0,0,.77-.33,1,1,0,0,0,.3-.72,1,1,0,0,0-.3-.72,1,1,0,0,0-.78-.33H55Zm9,2.39a3.14,3.14,0,0,1-4.4,0,3.24,3.24,0,0,1,0-4.45,3,3,0,0,1,2.2-.92,3.08,3.08,0,0,1,2.2.92A3.24,3.24,0,0,1,64,12.22Zm-3.83-.5a2.31,2.31,0,0,0,3.26,0,2.53,2.53,0,0,0,0-3.44,2.31,2.31,0,0,0-3.26,0A2.53,2.53,0,0,0,60.17,11.72ZM66,13V7h.94l2.9,4.67V7h.78v6h-.8l-3-4.9V13Zm6,0V7h.77v6Zm2.15,0V7h2.16a1.8,1.8,0,0,1,1.22.46A1.51,1.51,0,0,1,78,8.63a1.34,1.34,0,0,1-.82,1.25,1.6,1.6,0,0,1,.74.5,1.41,1.41,0,0,1,.3.87,1.64,1.64,0,0,1-.55,1.22,1.89,1.89,0,0,1-1.28.5l-2.3,0Zm.76-3.43h1.4a.94.94,0,0,0,.7-.3.9.9,0,0,0,.3-.62A1,1,0,0,0,77,8a.85.85,0,0,0-.67-.3H74.86Zm0,2.7h1.55a.92.92,0,0,0,.73-.32,1,1,0,0,0,.28-.68,1,1,0,0,0-1-1H74.88v2Zm4.38.73V7H80v5.26h2.6V13Zm7.84-5.26H84.35v1.9h2.46v.72H84.36v1.9h2.73V13h-3.5V7h3.5Zm4.66,5.39a2.21,2.21,0,0,1-1.28-.43,2,2,0,0,1-.82-1.2l.7-.28a1.74,1.74,0,0,0,.5.83,1.34,1.34,0,0,0,.9.34,1.53,1.53,0,0,0,.85-.27.86.86,0,0,0,.35-.72.93.93,0,0,0-.36-.76,3.85,3.85,0,0,0-1.14-.5,3,3,0,0,1-1.2-.66,1.31,1.31,0,0,1-.42-1,1.56,1.56,0,0,1,.5-1.12,1.89,1.89,0,0,1,1.34-.48,1.87,1.87,0,0,1,1.24.38,1.65,1.65,0,0,1,.62.83l-.7.28a1.09,1.09,0,0,0-.37-.53,1.31,1.31,0,0,0-1.53,0,.75.75,0,0,0-.3.62A.69.69,0,0,0,90.9,9a2.76,2.76,0,0,0,.85.4c.25.1.5.18.74.3a2.55,2.55,0,0,1,.6.35,1.3,1.3,0,0,1,.47.54,2,2,0,0,1,.16.77,1.84,1.84,0,0,1-.18.8,1.43,1.43,0,0,1-.48.53,2.09,2.09,0,0,1-.64.3,2.32,2.32,0,0,1-.7.1Zm5.2,0a2,2,0,0,1-1.6-.65,2.36,2.36,0,0,1-.63-1.7V7h.78v3.8A1.66,1.66,0,0,0,95.86,12,1.54,1.54,0,0,0,98,12a1.66,1.66,0,0,0,.37-1.15V7h.77v3.77a2.43,2.43,0,0,1-.6,1.7,2.08,2.08,0,0,1-1.6.66ZM100.4,13V7h2a2,2,0,0,1,1.32.5,1.74,1.74,0,0,1,.15,2.4,1.7,1.7,0,0,1-1,.6l1.68,2.5h-.9L102,10.57h-.86V13Zm.77-3.15h1.24a1.14,1.14,0,0,0,.8-.3,1,1,0,0,0,.33-.76,1.08,1.08,0,0,0-1.07-1.06h-1.3V9.85Z"/><path class="cls-7" d="M130.2,39a3.8,3.8,0,0,0,3.8-3.73V4.73A3.8,3.8,0,0,0,130.2,1H4.73A3.73,3.73,0,0,0,1,4.73V35.27A3.74,3.74,0,0,0,4.73,39Zm0,1H4.73A4.75,4.75,0,0,1,0,35.27V4.73A4.74,4.74,0,0,1,4.73,0H130.2A4.8,4.8,0,0,1,135,4.73V35.27A4.81,4.81,0,0,1,130.2,40Z"/></svg>