<svg width="259" height="174" viewBox="0 0 259 174" xmlns="http://www.w3.org/2000/svg"><title>Group</title><g fill="none" fill-rule="evenodd"><path d="M84 55.855c1.172.14 2.344.21 3.516.21 6.867 0 12.984-2.108 18.35-6.327-3.186-.047-6.046-1.025-8.577-2.935-2.532-1.91-4.267-4.354-5.204-7.33.984.187 1.91.28 2.777.28 1.336 0 2.625-.175 3.867-.526-3.398-.704-6.222-2.403-8.472-5.098-2.25-2.696-3.375-5.825-3.375-9.388v-.176c2.11 1.15 4.347 1.758 6.715 1.83-2.016-1.337-3.616-3.083-4.8-5.24-1.183-2.156-1.775-4.5-1.775-7.03 0-2.673.668-5.157 2.004-7.454 3.703 4.547 8.192 8.18 13.465 10.898 5.274 2.72 10.934 4.23 16.98 4.535-.257-1.148-.386-2.26-.386-3.34 0-4.078 1.44-7.558 4.324-10.44C126.293 5.44 129.773 4 133.852 4c4.29 0 7.886 1.547 10.793 4.64 3.304-.656 6.42-1.85 9.35-3.585-1.124 3.562-3.28 6.293-6.468 8.19 2.907-.35 5.73-1.124 8.473-2.32-1.97 2.977-4.43 5.52-7.383 7.63.047.843.07 1.476.07 1.898 0 2.79-.298 5.608-.896 8.455-.597 2.848-1.5 5.65-2.706 8.403-1.207 2.754-2.666 5.38-4.377 7.876-1.71 2.496-3.75 4.798-6.117 6.908-2.367 2.11-4.94 3.937-7.717 5.484-2.777 1.547-5.894 2.754-9.352 3.62-3.456.868-7.082 1.302-10.88 1.302-8.18 0-15.726-2.215-22.64-6.645z" fill="#55ACEE"/><path d="M0 38.215V26.05h8.93V15.646c0-2.086.345-4.05 1.037-5.89.69-1.84 1.722-3.497 3.094-4.974 1.372-1.475 3.2-2.64 5.485-3.497C20.83.428 23.437 0 26.367 0c1.453 0 2.895.04 4.324.123 1.43.082 2.497.158 3.2.23l1.055.104-.28 11.355c-2.485-.023-5.075-.035-7.77-.035-2.04 0-3.4.434-4.08 1.3-.678.868-1.018 2.228-1.018 4.08v8.892h13.22l-.6 12.165h-12.62V72H8.93V38.215H0z" fill="#3B5998"/><path d="M186.492 63.527c0 .633.024 1.102.07 1.407.258 1.992 1.167 3.668 2.725 5.027 1.56 1.36 3.346 2.04 5.36 2.04h55.583c.235 0 .563-.023.985-.07 2.04-.258 3.75-1.16 5.133-2.707 1.382-1.547 2.074-3.352 2.074-5.414V8.19l.035-.35c0-.235-.012-.352-.035-.352-.235-2.156-1.143-3.943-2.725-5.36C254.115.707 252.247 0 250.09 0H194.79c-.517 0-.997.047-1.442.14-2.04.376-3.686 1.33-4.94 2.866-1.254 1.535-1.88 3.346-1.88 5.431V36c0 3.047-.007 7.635-.018 13.764-.012 6.13-.018 10.716-.018 13.763zm7.946-2.707V30.234h6.574c-.47 1.946-.703 3.856-.703 5.73 0 3.587.854 7.02 2.565 10.302 1.97 3.773 4.805 6.726 8.508 8.86 3.422 1.99 7.113 2.987 11.074 2.987.234-.023.47-.035.703-.035 4.22-.14 8.086-1.37 11.602-3.69 3.867-2.58 6.656-6.107 8.367-10.583.96-2.485 1.44-5.075 1.44-7.77 0-1.875-.234-3.808-.703-5.8h6.012v.562c0 3.328.022 8.332.07 15.012.046 6.678.07 11.682.07 15.01 0 .844-.258 1.535-.774 2.075-.516.54-1.195.808-2.04.808h-49.78c-.844 0-1.553-.27-2.127-.808-.575-.54-.863-1.23-.863-2.075zM208.605 36c0-3.82 1.354-7.084 4.06-9.79 2.708-2.708 5.972-4.062 9.792-4.062 3.82 0 7.078 1.348 9.773 4.043 2.696 2.697 4.043 5.966 4.043 9.81 0 3.844-1.347 7.113-4.043 9.81-2.695 2.694-5.953 4.042-9.773 4.042-3.844 0-7.113-1.348-9.81-4.043-2.694-2.697-4.042-5.966-4.042-9.81zm27.704-16.63v-8.26c0-.798.268-1.46.807-1.987.54-.527 1.207-.79 2.004-.79.47 0 1.15-.007 2.04-.02.89-.01 1.57-.016 2.04-.016.468 0 1.16.006 2.073.017.915.012 1.594.018 2.04.018.82 0 1.494.264 2.02.79.528.528.792 1.19.792 1.987v8.26c0 .798-.264 1.46-.79 1.987-.528.528-1.19.79-1.987.79h-8.227c-.82 0-1.493-.262-2.02-.79-.528-.527-.79-1.19-.79-1.986z" fill="#517FA4"/><path d="M84 157.855c1.172.14 2.344.21 3.516.21 6.867 0 12.984-2.108 18.35-6.327-3.186-.047-6.046-1.025-8.577-2.935-2.532-1.91-4.267-4.354-5.204-7.33.984.187 1.91.28 2.777.28 1.336 0 2.625-.175 3.867-.526-3.398-.704-6.222-2.403-8.472-5.098-2.25-2.696-3.375-5.825-3.375-9.388v-.176c2.11 1.15 4.347 1.758 6.715 1.83-2.016-1.337-3.616-3.083-4.8-5.24-1.183-2.156-1.775-4.5-1.775-7.03 0-2.673.668-5.157 2.004-7.454 3.703 4.547 8.192 8.18 13.465 10.898 5.274 2.72 10.934 4.23 16.98 4.535-.257-1.148-.386-2.26-.386-3.34 0-4.078 1.44-7.558 4.324-10.44 2.883-2.884 6.363-4.325 10.442-4.325 4.29 0 7.886 1.547 10.793 4.64 3.304-.656 6.42-1.85 9.35-3.585-1.124 3.562-3.28 6.293-6.468 8.19 2.907-.35 5.73-1.124 8.473-2.32-1.97 2.977-4.43 5.52-7.383 7.63.047.843.07 1.476.07 1.898 0 2.79-.298 5.608-.896 8.455-.597 2.848-1.5 5.65-2.706 8.403-1.207 2.754-2.666 5.38-4.377 7.876-1.71 2.496-3.75 4.798-6.117 6.908-2.367 2.11-4.94 3.937-7.717 5.484-2.777 1.547-5.894 2.754-9.352 3.62-3.456.868-7.082 1.302-10.88 1.302-8.18 0-15.726-2.215-22.64-6.645zM0 140.215V128.05h8.93v-10.405c0-2.086.345-4.05 1.037-5.89.69-1.84 1.722-3.497 3.094-4.974 1.372-1.475 3.2-2.64 5.485-3.497 2.285-.855 4.892-1.283 7.822-1.283 1.453 0 2.895.04 4.324.123 1.43.082 2.497.158 3.2.23l1.055.104-.28 11.356c-2.485-.024-5.075-.036-7.77-.036-2.04 0-3.4.434-4.08 1.3-.678.868-1.018 2.228-1.018 4.08v8.892h13.22l-.6 12.165h-12.62V174H8.93v-33.785H0zM187 165.527c0 .633.023 1.102.07 1.407.258 1.992 1.166 3.668 2.725 5.027 1.56 1.36 3.346 2.04 5.36 2.04h55.583c.235 0 .563-.023.985-.07 2.04-.258 3.75-1.16 5.132-2.707 1.383-1.547 2.075-3.352 2.075-5.414v-55.62l.035-.35c0-.235-.012-.352-.035-.352-.235-2.156-1.143-3.943-2.725-5.36-1.582-1.42-3.45-2.128-5.607-2.128h-55.301c-.516 0-.996.047-1.442.14-2.04.376-3.685 1.33-4.94 2.866-1.253 1.535-1.88 3.346-1.88 5.431V138c0 3.047-.006 7.635-.017 13.764-.012 6.13-.018 10.716-.018 13.763zm7.945-2.707v-30.586h6.575c-.47 1.946-.704 3.856-.704 5.73 0 3.587.856 7.02 2.567 10.302 1.97 3.773 4.804 6.726 8.508 8.86 3.423 1.99 7.114 2.987 11.075 2.987.234-.023.47-.035.703-.035 4.22-.14 8.086-1.37 11.602-3.69 3.867-2.58 6.656-6.107 8.367-10.583.96-2.485 1.44-5.075 1.44-7.77 0-1.875-.233-3.808-.702-5.8h6.012v.562c0 3.328.023 8.332.07 15.012.047 6.678.07 11.682.07 15.01 0 .844-.257 1.535-.773 2.075-.516.54-1.195.808-2.04.808h-49.78c-.844 0-1.553-.27-2.127-.808-.575-.54-.862-1.23-.862-2.075zM209.113 138c0-3.82 1.354-7.084 4.06-9.79 2.708-2.708 5.972-4.062 9.792-4.062 3.82 0 7.078 1.348 9.773 4.043 2.696 2.697 4.043 5.966 4.043 9.81 0 3.844-1.346 7.113-4.042 9.81-2.695 2.694-5.953 4.042-9.773 4.042-3.844 0-7.113-1.348-9.81-4.043-2.694-2.697-4.042-5.966-4.042-9.81zm27.703-16.63v-8.26c0-.798.27-1.46.81-1.987.538-.527 1.206-.79 2.003-.79.468 0 1.147-.007 2.038-.02.89-.01 1.57-.016 2.04-.016.468 0 1.16.006 2.073.017.915.012 1.595.018 2.04.018.82 0 1.494.264 2.022.79.527.528.79 1.19.79 1.987v8.26c0 .798-.263 1.46-.79 1.987-.528.528-1.19.79-1.987.79H239.63c-.82 0-1.495-.262-2.023-.79-.527-.527-.79-1.19-.79-1.986z" fill="#FFF"/></g></svg>