<?xml version="1.0" standalone="no"?>
<!DOCTYPE svg PUBLIC "-//W3C//DTD SVG 1.1//EN" "http://www.w3.org/Graphics/SVG/1.1/DTD/svg11.dtd" >
<svg xmlns="http://www.w3.org/2000/svg" xmlns:xlink="http://www.w3.org/1999/xlink" version="1.1">
<metadata>
Created by FontForge 20170731 at Wed Jul 27 17:26:40 2016
 By Aleksey,,,
Copyright 2016 Production Systems SAS - Design Yoann Minet. Original art direction with Emmanuel Labard - All rights reserved - End-User License Agreement:  http://www.productiontype.com/license
</metadata>
<defs>
<font id="StratosDeliverooWeb-SemiBold" horiz-adv-x="550" >
  <font-face 
    font-family="Stratos Deliveroo Web SemiBold"
    font-weight="600"
    font-stretch="normal"
    units-per-em="1000"
    panose-1="2 0 0 0 0 0 0 0 0 0"
    ascent="740"
    descent="-260"
    x-height="500"
    cap-height="750"
    bbox="-255 -367 1329 1170"
    underline-thickness="92"
    underline-position="-329"
    unicode-range="U+0020-FB02"
  />
<missing-glyph horiz-adv-x="510" 
d="M10 0v750h490v-750h-490zM90 697l165 -273l165 273h-330zM450 102v545l-165 -272zM61 102l165 273l-165 272v-545zM90 55h330l-165 271z" />
    <glyph glyph-name="fi" unicode="fi" horiz-adv-x="605" 
d="M471 587q-37 0 -61 24.5t-24 59.5q0 36 24 60t61 24t61 -24t24 -60t-24 -60t-61 -24zM235 0h-145v383h-72v117h72v71q0 91 51 140t134 49q45 0 65 -5v-122q-18 5 -48 5q-57 0 -57 -72v-66h310v-500h-145v383h-165v-383z" />
    <glyph glyph-name="fl" unicode="fl" horiz-adv-x="605" 
d="M545 0h-145v750h145v-750zM235 566v-66h113v-117h-113v-383h-145v383h-72v117h72v71q0 91 55.5 140t144.5 49q42 0 69 -8v-122q-30 8 -50 8q-35 0 -54.5 -18.5t-19.5 -53.5z" />
    <glyph glyph-name="f_b" unicode="fb" horiz-adv-x="955" 
d="M693 -10q-91 0 -150 73v-63h-143v750h145v-310q59 70 148 70q102 0 167 -72t65 -188t-65 -188t-167 -72zM235 566v-66h113v-117h-113v-383h-145v383h-72v117h72v71q0 91 55.5 140t144.5 49q42 0 69 -8v-122q-24 8 -50 8q-35 0 -54.5 -18.5t-19.5 -53.5zM664 381
q-52 0 -85.5 -36t-33.5 -95q0 -58 33.5 -94.5t85.5 -36.5t85.5 36.5t33.5 94.5q0 59 -33.5 95t-85.5 36z" />
    <glyph glyph-name="f_f_b" unicode="ffb" horiz-adv-x="1265" 
d="M1003 -10q-91 0 -150 73v-63h-143v750h145v-310q59 70 148 70q102 0 167 -72t65 -188t-65 -188t-167 -72zM235 0h-145v383h-72v117h72v71q0 91 55.5 140t144.5 49q42 0 69 -8v-122q-24 8 -50 8q-35 0 -54.5 -18.5t-19.5 -53.5v-66h165v71q0 91 55.5 140t144.5 49
q42 0 69 -8v-122q-24 8 -50 8q-35 0 -54.5 -18.5t-19.5 -53.5v-66h113v-117h-113v-383h-145v383h-165v-383zM974 381q-52 0 -85.5 -36t-33.5 -95q0 -58 33.5 -94.5t85.5 -36.5t85.5 36.5t33.5 94.5q0 59 -33.5 95t-85.5 36z" />
    <glyph glyph-name="f_f" unicode="ff" horiz-adv-x="690" 
d="M235 0h-145v383h-72v117h72v71q0 91 55.5 140t144.5 49q42 0 69 -8v-122q-24 8 -50 8q-35 0 -54.5 -18.5t-19.5 -53.5v-66h165v71q0 91 55.5 140t144.5 49q48 0 75 -9v-122q-24 9 -56 9q-35 0 -54.5 -18.5t-19.5 -53.5v-66h123v-117h-123v-383h-145v383h-165v-383z" />
    <glyph glyph-name="f_h" unicode="fh" horiz-adv-x="925" 
d="M235 566v-66h113v-117h-113v-383h-145v383h-72v117h72v71q0 91 55.5 140t144.5 49q42 0 69 -8v-122q-24 8 -50 8q-35 0 -54.5 -18.5t-19.5 -53.5zM545 276v-276h-145v750h145v-317q49 77 143 77q81 0 131.5 -52t50.5 -149v-309h-145v276q0 56 -23.5 85t-66.5 29
t-66.5 -29t-23.5 -85z" />
    <glyph glyph-name="f_f_h" unicode="ffh" horiz-adv-x="1235" 
d="M235 0h-145v383h-72v117h72v71q0 91 55.5 140t144.5 49q42 0 69 -8v-122q-24 8 -50 8q-35 0 -54.5 -18.5t-19.5 -53.5v-66h165v71q0 91 55.5 140t144.5 49q42 0 69 -8v-122q-24 8 -50 8q-35 0 -54.5 -18.5t-19.5 -53.5v-66h113v-117h-113v-383h-145v383h-165v-383z
M855 276v-276h-145v750h145v-317q49 77 143 77q81 0 131.5 -52t50.5 -149v-309h-145v276q0 56 -23.5 85t-66.5 29t-66.5 -29t-23.5 -85z" />
    <glyph glyph-name="f_f_i" unicode="ffi" horiz-adv-x="915" 
d="M781 587q-37 0 -61 24.5t-24 59.5q0 36 24 60t61 24t61 -24t24 -60t-24 -60t-61 -24zM235 0h-145v383h-72v117h72v71q0 91 55.5 140t144.5 49q42 0 69 -8v-122q-24 8 -50 8q-35 0 -54.5 -18.5t-19.5 -53.5v-66h165v71q0 91 51 140t134 49q45 0 65 -5v-122q-18 5 -48 5
q-57 0 -57 -72v-66h310v-500h-145v383h-165v-383h-145v383h-165v-383z" />
    <glyph glyph-name="f_j" unicode="fj" horiz-adv-x="605" 
d="M471 587q-37 0 -61 24.5t-24 59.5q0 36 24 60t61 24t61 -24t24 -60t-24 -60t-61 -24zM361 -253q-39 0 -63 6v120q18 -3 37 -3q33 0 49 14t16 50v449h-165v-383h-145v383h-72v117h72v71q0 91 55.5 140t144.5 49q39 0 65 -8v-121q-24 7 -48 7q-34 0 -53 -18.5t-19 -53.5
v-66h310v-571q0 -182 -184 -182z" />
    <glyph glyph-name="f_f_j" unicode="ffj" horiz-adv-x="915" 
d="M781 587q-37 0 -61 24.5t-24 59.5q0 36 24 60t61 24t61 -24t24 -60t-24 -60t-61 -24zM671 -253q-39 0 -63 6v120q18 -3 37 -3q33 0 49 14t16 50v449h-165v-383h-145v383h-165v-383h-145v383h-72v117h72v71q0 91 55.5 140t144.5 49q42 0 69 -8v-122q-24 8 -50 8
q-35 0 -54.5 -18.5t-19.5 -53.5v-66h165v71q0 91 51 140t134 49q45 0 65 -5v-122q-18 5 -48 5q-57 0 -57 -72v-66h310v-571q0 -182 -184 -182z" />
    <glyph glyph-name="f_k" unicode="fk" horiz-adv-x="905" 
d="M235 566v-66h113v-117h-113v-383h-145v383h-72v117h72v71q0 91 55.5 140t144.5 49q42 0 69 -8v-122q-30 8 -50 8q-35 0 -54.5 -18.5t-19.5 -53.5zM727 0l-182 262v-262h-145v750h145v-466l165 216h177l-193 -226l204 -274h-171z" />
    <glyph glyph-name="f_f_k" unicode="ffk" horiz-adv-x="1215" 
d="M235 0h-145v383h-72v117h72v71q0 91 55.5 140t144.5 49q42 0 69 -8v-122q-24 8 -50 8q-35 0 -54.5 -18.5t-19.5 -53.5v-66h165v71q0 91 55.5 140t144.5 49q42 0 69 -8v-122q-24 8 -50 8q-35 0 -54.5 -18.5t-19.5 -53.5v-66h113v-117h-113v-383h-145v383h-165v-383z
M1037 0l-182 262v-262h-145v750h145v-466l165 216h177l-193 -226l204 -274h-171z" />
    <glyph glyph-name="f_f_l" unicode="ffl" horiz-adv-x="915" 
d="M855 0h-145v750h145v-750zM235 0h-145v383h-72v117h72v71q0 91 55.5 140t144.5 49q42 0 69 -8v-122q-24 8 -50 8q-35 0 -54.5 -18.5t-19.5 -53.5v-66h165v71q0 91 55.5 140t144.5 49q42 0 69 -8v-122q-24 8 -50 8q-35 0 -54.5 -18.5t-19.5 -53.5v-66h113v-117h-113v-383
h-145v383h-165v-383z" />
    <glyph glyph-name="f_t" unicode="ft" horiz-adv-x="700" 
d="M668 2q-38 -12 -84 -12q-87 0 -135.5 41t-48.5 140v212h-165v-383h-145v383h-72v117h72v71q0 91 55.5 140t144.5 49q39 0 65 -8v-121q-24 7 -48 7q-34 0 -53 -18.5t-19 -53.5v-66h165v140h145v-140h123v-117h-123v-204q0 -34 16.5 -50t51.5 -16q29 0 55 9v-120z" />
    <glyph glyph-name="f_f_t" unicode="fft" horiz-adv-x="1010" 
d="M978 2q-38 -12 -84 -12q-87 0 -135.5 41t-48.5 140v212h-165v-383h-145v383h-165v-383h-145v383h-72v117h72v71q0 91 55.5 140t144.5 49q42 0 69 -8v-122q-24 8 -50 8q-35 0 -54.5 -18.5t-19.5 -53.5v-66h165v71q0 91 55.5 140t144.5 49q39 0 65 -8v-121q-25 7 -48 7
q-34 0 -53 -18.5t-19 -53.5v-66h165v140h145v-140h123v-117h-123v-204q0 -34 16.5 -50t51.5 -16q29 0 55 9v-120z" />
    <glyph glyph-name=".notdef" horiz-adv-x="510" 
d="M10 0v750h490v-750h-490zM90 697l165 -273l165 273h-330zM450 102v545l-165 -272zM61 102l165 273l-165 272v-545zM90 55h330l-165 271z" />
    <glyph glyph-name=".null" horiz-adv-x="0" 
 />
    <glyph glyph-name="nonmarkingreturn" horiz-adv-x="333" 
 />
    <glyph glyph-name="space" unicode=" " horiz-adv-x="230" 
 />
    <glyph glyph-name="exclam" unicode="!" horiz-adv-x="273" 
d="M200 250h-127l-13 500h153zM136 -10q-32 0 -54.5 23t-22.5 55t22.5 54.5t54.5 22.5q33 0 55.5 -22.5t22.5 -54.5t-22.5 -55t-55.5 -23z" />
    <glyph glyph-name="quotedbl" unicode="&#x22;" horiz-adv-x="450" 
d="M275 495l-15 255h130l-15 -255h-100zM75 495l-15 255h130l-15 -255h-100z" />
    <glyph glyph-name="numbersign" unicode="#" 
d="M311 286l43 175h-116l-43 -175h116zM240 0l47 191h-116l-47 -191h-105l47 191h-66v95h90l43 175h-76v95h100l48 194h105l-48 -194h116l48 194h105l-48 -194h67v-95h-91l-43 -175h78v-95h-102l-47 -191h-105z" />
    <glyph glyph-name="dollar" unicode="$" 
d="M196 574q0 -46 47 -83v149q-47 -15 -47 -66zM363 179q0 49 -50 91v-160q50 18 50 69zM313 -125h-70v114q-84 9 -137.5 61.5t-53.5 137.5v62h136v-55q0 -70 55 -86v212l-65 45q-57 39 -87.5 87t-30.5 118q0 84 50.5 133t132.5 57v114h70v-114q79 -11 128 -64.5t49 -141.5
v-52h-135v49q0 68 -42 86v-197l68 -46q119 -83 119 -202q0 -89 -52 -141.5t-135 -62.5v-114z" />
    <glyph glyph-name="percent" unicode="%" horiz-adv-x="806" 
d="M179 355q-71 0 -114.5 50.5t-43.5 149.5t43.5 150t114.5 51t114 -51t43 -150q0 -100 -42.5 -150t-114.5 -50zM103 0l520 750h80l-520 -750h-80zM179 448q52 0 52 107q0 112 -52 112q-53 0 -53 -112q0 -107 53 -107zM627 -6q-71 0 -114.5 50.5t-43.5 149.5t43.5 150
t114.5 51t114 -51t43 -150q0 -100 -42.5 -150t-114.5 -50zM627 87q52 0 52 107q0 112 -52 112q-53 0 -53 -112q0 -107 53 -107z" />
    <glyph glyph-name="ampersand" unicode="&#x26;" horiz-adv-x="580" 
d="M259 102q48 0 71.5 28.5t23.5 93.5v35h-89q-41 0 -66 -22t-25 -59q0 -35 23.5 -55.5t61.5 -20.5zM373 0v77q-41 -87 -146 -87q-86 0 -136.5 48.5t-50.5 136.5q0 89 78 143q-65 47 -65 122t58.5 122.5t153.5 47.5t154 -49.5t59 -127.5h-132q0 27 -22.5 45t-58.5 18
t-57 -17.5t-21 -44.5q0 -26 21 -42.5t57 -16.5h305v-116h-81v-259h-116z" />
    <glyph glyph-name="quotesingle" unicode="'" horiz-adv-x="250" 
d="M75 495l-15 255h130l-15 -255h-100z" />
    <glyph glyph-name="parenleft" unicode="(" horiz-adv-x="340" 
d="M78 285q0 258 150 465h112q-140 -193 -140 -465t140 -465h-112q-150 207 -150 465z" />
    <glyph glyph-name="parenright" unicode=")" horiz-adv-x="340" 
d="M263 285q0 -258 -150 -465h-113q140 193 140 465t-140 465h113q150 -207 150 -465z" />
    <glyph glyph-name="asterisk" unicode="*" horiz-adv-x="389" 
d="M237 440l-45 102l-42 -102l-93 66l78 76l-106 7l35 108l90 -55l-19 108h114l-18 -108l92 55l37 -108l-110 -7l79 -75z" />
    <glyph glyph-name="plus" unicode="+" 
d="M475 258h-153v-162h-94v162h-153v90h153v162h94v-162h153v-90z" />
    <glyph glyph-name="comma" unicode="," horiz-adv-x="233" 
d="M115 -140h-74q50 77 67 130q-33 3 -53.5 26t-20.5 55q0 35 23 58t59 23t60 -25t24 -65q0 -82 -85 -202z" />
    <glyph glyph-name="hyphen" unicode="-" horiz-adv-x="350" 
d="M305 215h-260v123h260v-123z" />
    <glyph glyph-name="period" unicode="." horiz-adv-x="233" 
d="M117 -10q-35 0 -58.5 23.5t-23.5 57.5q0 35 23.5 58t58.5 23t58 -23t23 -58q0 -34 -23 -57.5t-58 -23.5z" />
    <glyph glyph-name="slash" unicode="/" horiz-adv-x="416" 
d="M135 0h-104l250 750h104z" />
    <glyph glyph-name="zero" unicode="0" 
d="M275 -13q-105 0 -163.5 63.5t-58.5 187.5v275q0 123 58.5 186.5t163.5 63.5q106 0 164.5 -63.5t58.5 -186.5v-275q0 -124 -58.5 -187.5t-164.5 -63.5zM275 118q40 0 60 27t20 90v280q0 63 -20.5 90.5t-59.5 27.5q-80 0 -80 -118v-280q0 -63 20 -90t60 -27z" />
    <glyph glyph-name="one" unicode="1" 
d="M238 711v39h143v-750h-145v489h-134v114h29q57 0 82 25t25 83z" />
    <glyph glyph-name="two" unicode="2" 
d="M478 549q0 -55 -22.5 -106t-57.5 -90.5t-70.5 -75.5t-66.5 -75t-42 -74h266v-128h-423v64q0 64 28.5 122.5t69 102.5t81 84t69 84.5t28.5 87.5q0 90 -65 90q-67 0 -67 -98v-55h-140v62q0 104 58 161.5t148 57.5t148 -56t58 -158z" />
    <glyph glyph-name="three" unicode="3" 
d="M285 -13q-96 0 -159 54t-63 149v55h140v-40q0 -90 82 -90q83 0 83 91v24q0 89 -88 89h-55v129h55q71 0 71 83v32q0 72 -66 72t-66 -71v-33h-140v41q0 92 58 141.5t148 49.5q89 0 147.5 -49t58.5 -136v-38q0 -95 -79 -143q96 -50 96 -157v-50q0 -95 -63.5 -149t-159.5 -54
z" />
    <glyph glyph-name="four" unicode="4" 
d="M156 238h128v390zM506 110h-80v-110h-142v110h-243v140l168 500h217v-512h80v-128z" />
    <glyph glyph-name="five" unicode="5" 
d="M276 -13q-92 0 -151.5 56t-59.5 157v35h138v-17q0 -103 73 -103q72 0 72 97v75q0 103 -72 103q-55 0 -68 -50h-133v410h388v-127h-255v-157q39 44 100 44q87 0 132 -55t45 -162v-81q0 -107 -59 -166t-150 -59z" />
    <glyph glyph-name="six" unicode="6" 
d="M498 218q0 -109 -62.5 -170t-160.5 -61t-160 63t-62 178v295q0 115 61.5 177.5t160.5 62.5q93 0 154 -56t61 -156v-26h-142v16q0 94 -73 94q-80 0 -80 -117v-110q42 62 122 62q77 0 129 -58t52 -163v-31zM195 238v-18q0 -105 81 -105q82 0 82 105v18q0 105 -82 105
q-81 0 -81 -105z" />
    <glyph glyph-name="seven" unicode="7" 
d="M325 55v-55h-145v34q0 94 12 173.5t38 150.5t48 118.5t61 120.5q9 17 14 26h-273v127h391v-175q-6 -12 -27 -53.5t-26 -53t-21.5 -47.5t-21.5 -52t-16.5 -49.5t-15 -57.5t-9.5 -59t-7.5 -71t-1.5 -77z" />
    <glyph glyph-name="eight" unicode="8" 
d="M275 -13q-96 0 -159 54.5t-63 151.5v45q0 111 97 160q-77 48 -77 142v38q0 87 57 136t145 49t145.5 -49t57.5 -136v-38q0 -94 -78 -142q98 -50 98 -160v-45q0 -97 -63.5 -151.5t-159.5 -54.5zM209 561v-25q0 -81 66 -81t66 81v25q0 72 -66 72t-66 -72zM193 240v-32
q0 -90 82 -90q83 0 83 90v32q0 90 -83 90q-82 0 -82 -90z" />
    <glyph glyph-name="nine" unicode="9" 
d="M355 513v17q0 105 -81 105t-81 -105v-17q0 -105 81 -105t81 105zM275 -13q-93 0 -154 56t-61 156v26h143v-16q0 -94 72 -94q80 0 80 118v109q-42 -62 -122 -62q-77 0 -128.5 58t-51.5 163v32q0 109 62 169.5t160 60.5q99 0 161 -63t62 -177v-295q0 -115 -62 -178
t-161 -63z" />
    <glyph glyph-name="colon" unicode=":" horiz-adv-x="233" 
d="M117 348q-35 0 -58.5 23.5t-23.5 57.5q0 35 23.5 58t58.5 23t58 -23t23 -58q0 -34 -23 -57.5t-58 -23.5zM117 -10q-35 0 -58.5 23.5t-23.5 57.5q0 35 23.5 58t58.5 23t58 -23t23 -58q0 -34 -23 -57.5t-58 -23.5z" />
    <glyph glyph-name="semicolon" unicode=";" horiz-adv-x="233" 
d="M117 348q-35 0 -58.5 23.5t-23.5 57.5q0 35 23.5 58t58.5 23t58 -23t23 -58q0 -34 -23 -57.5t-58 -23.5zM115 -140h-74q50 77 67 130q-33 3 -53.5 26t-20.5 55q0 35 23 58t59 23t60 -25t24 -65q0 -82 -85 -202z" />
    <glyph glyph-name="less" unicode="&#x3c;" 
d="M475 64l-400 195v89l400 195v-104l-284 -136l284 -136v-103z" />
    <glyph glyph-name="equal" unicode="=" 
d="M75 358v90h400v-90h-400zM75 158v90h400v-90h-400z" />
    <glyph glyph-name="greater" unicode="&#x3e;" 
d="M75 64v103l285 136l-285 136v104l400 -195v-89z" />
    <glyph glyph-name="question" unicode="?" horiz-adv-x="497" 
d="M475 562q0 -40 -16 -74t-39 -57.5t-46.5 -46t-40 -51t-17.5 -61.5l-1 -22h-128v30q0 40 15 75.5t37 60.5t44 47t37 47t15 50q0 73 -84 73q-41 0 -65.5 -24.5t-24.5 -77.5v-32h-141v43q0 104 66.5 161t164.5 57q100 0 162 -52.5t62 -145.5zM251 -10q-32 0 -55 23t-23 55
t23 54.5t55 22.5q33 0 55.5 -22.5t22.5 -54.5t-22.5 -55t-55.5 -23z" />
    <glyph glyph-name="at" unicode="@" horiz-adv-x="861" 
d="M425 -160q-163 0 -274 111.5t-111 273.5q0 163 111 274t274 111q167 0 281.5 -110t114.5 -267q0 -121 -45.5 -182t-122.5 -61q-97 0 -137 72q-50 -72 -151 -72q-63 0 -109 34t-46 96q0 51 29.5 81t72 39.5t84.5 15t71.5 17.5t29.5 36q0 23 -20.5 37.5t-51.5 14.5
q-34 0 -53.5 -17t-19.5 -49h-128q0 83 58.5 123.5t144.5 40.5q85 0 142.5 -40t57.5 -122v-172q0 -70 51 -70q37 0 59 46t22 132q0 134 -96.5 227t-237.5 93q-137 0 -229.5 -94t-92.5 -234q0 -139 93 -233.5t229 -94.5q82 0 156 40l24 -53q-83 -44 -180 -44zM399 91
q42 0 70 23.5t28 64.5v23q-22 -9 -66 -16.5t-68.5 -18.5t-24.5 -35q0 -41 61 -41z" />
    <glyph glyph-name="A" unicode="A" horiz-adv-x="510" 
d="M314 278l-59 362l-59 -362h118zM360 0l-25 153h-160l-25 -153h-142l136 750h222l137 -750h-143z" />
    <glyph glyph-name="B" unicode="B" 
d="M272 625h-69v-170h69q84 0 84 85v10q0 75 -84 75zM288 330h-85v-205h85q85 0 85 102v10q0 93 -85 93zM60 0v750h224q97 0 154.5 -48.5t57.5 -137.5v-10q0 -104 -91 -146q53 -22 83 -66.5t30 -107.5v-20q0 -102 -58 -158t-154 -56h-246z" />
    <glyph glyph-name="C" unicode="C" horiz-adv-x="570" 
d="M375 305h145v-57q0 -128 -62 -194.5t-173 -66.5q-112 0 -173.5 66.5t-61.5 194.5v255q0 128 61.5 194t173.5 66t173.5 -66t61.5 -194v-48h-145v50q0 70 -23 100t-67 30t-67 -30t-23 -100v-260q0 -70 23 -100t67 -30t67 30t23 100v60z" />
    <glyph glyph-name="D" unicode="D" horiz-adv-x="570" 
d="M285 750q111 0 173 -64t62 -188v-245q0 -125 -61.5 -189t-173.5 -64h-225v750h225zM285 128q44 0 67 28t23 94v250q0 66 -23 94.5t-67 28.5h-80v-495h80z" />
    <glyph glyph-name="E" unicode="E" horiz-adv-x="454" 
d="M60 0v750h359v-127h-215v-175h195v-128h-195v-192h215v-128h-359z" />
    <glyph glyph-name="F" unicode="F" horiz-adv-x="434" 
d="M387 300h-183v-300h-144v750h354v-127h-210v-195h183v-128z" />
    <glyph glyph-name="G" unicode="G" horiz-adv-x="575" 
d="M404 0v78q-45 -91 -149 -91q-97 0 -151 66.5t-54 194.5v255q0 128 61.5 194t173.5 66t173.5 -66t61.5 -194v-34h-145v36q0 70 -23 100t-67 30t-67 -30t-23 -100v-260q0 -70 23 -100t67 -30q90 0 90 123v40h-102v122h247v-400h-116z" />
    <glyph glyph-name="H" unicode="H" horiz-adv-x="590" 
d="M385 0v321h-180v-321h-145v750h145v-301h180v301h145v-750h-145z" />
    <glyph glyph-name="I" unicode="I" horiz-adv-x="265" 
d="M205 0h-145v750h145v-750z" />
    <glyph glyph-name="J" unicode="J" horiz-adv-x="523" 
d="M326 750h145v-542q0 -107 -60 -164t-158 -57q-97 0 -157.5 57t-60.5 164v79h145v-74q0 -98 73 -98q36 0 54.5 22t18.5 76v537z" />
    <glyph glyph-name="K" unicode="K" horiz-adv-x="523" 
d="M358 0l-154 362v-362h-144v750h144v-360l156 360h154l-172 -354l181 -396h-165z" />
    <glyph glyph-name="L" unicode="L" horiz-adv-x="434" 
d="M60 0v750h145v-622h219v-128h-364z" />
    <glyph glyph-name="M" unicode="M" horiz-adv-x="780" 
d="M307 0l-119 656v-656h-128v750h234l96 -572l93 572h237v-750h-135v651l-119 -651h-159z" />
    <glyph glyph-name="N" unicode="N" horiz-adv-x="590" 
d="M308 0l-124 650v-650h-124v750h223l123 -641v641h124v-750h-222z" />
    <glyph glyph-name="O" unicode="O" horiz-adv-x="570" 
d="M285 -13q-112 0 -173.5 66t-61.5 195v255q0 128 61.5 194t173.5 66t173.5 -66t61.5 -194v-255q0 -129 -61.5 -195t-173.5 -66zM285 115q44 0 67 30t23 100v260q0 70 -23 100t-67 30t-67 -30t-23 -100v-260q0 -70 23 -100t67 -30z" />
    <glyph glyph-name="P" unicode="P" horiz-adv-x="530" 
d="M278 625h-75v-227h75q88 0 88 105v25q0 97 -88 97zM287 273h-84v-273h-143v750h227q100 0 159 -55t59 -157v-45q0 -105 -59 -162.5t-159 -57.5z" />
    <glyph glyph-name="Q" unicode="Q" horiz-adv-x="570" 
d="M285 115q19 0 36 6l-98 142h124l27 -42q1 8 1 24v260q0 70 -23 100t-67 30t-67 -30t-23 -100v-260q0 -70 23 -100t67 -30zM410 0l-35 53q-25 -66 -115 -66q-95 0 -152.5 67t-57.5 194v255q0 128 61.5 194t173.5 66t173.5 -66t61.5 -194v-245q0 -106 -53 -152l68 -106
h-125z" />
    <glyph glyph-name="R" unicode="R" 
d="M282 625h-78v-201h78q88 0 88 99v13q0 89 -88 89zM204 369v-369h-144v750h238q97 0 156.5 -51t59.5 -144v-29q0 -75 -39 -122t-106 -64l166 -340h-165z" />
    <glyph glyph-name="S" unicode="S" horiz-adv-x="485" 
d="M41 567q0 99 56.5 147.5t146.5 48.5q89 0 146.5 -51.5t57.5 -148.5v-53h-139v50q0 80 -65 80q-28 0 -45.5 -17t-17.5 -49q0 -34 18 -57t58 -53l86 -63q115 -86 115 -205q0 -100 -60.5 -154.5t-152.5 -54.5q-91 0 -151.5 53.5t-60.5 147.5v62h140v-55q0 -39 19.5 -62
t52.5 -23t52.5 18.5t19.5 50.5q0 37 -19.5 63t-60.5 57l-82 61q-55 40 -84.5 88.5t-29.5 118.5z" />
    <glyph glyph-name="T" unicode="T" horiz-adv-x="434" 
d="M424 623h-134v-623h-145v623h-135v127h414v-127z" />
    <glyph glyph-name="U" unicode="U" horiz-adv-x="570" 
d="M55 750h145v-517q0 -63 21.5 -90.5t63.5 -27.5t63.5 27.5t21.5 90.5v517h145v-515q0 -122 -60.5 -185t-169.5 -63t-169.5 63t-60.5 185v515z" />
    <glyph glyph-name="V" unicode="V" horiz-adv-x="510" 
d="M144 0l-136 750h142l105 -640l105 640h143l-137 -750h-222z" />
    <glyph glyph-name="W" unicode="W" horiz-adv-x="750" 
d="M99 0l-91 750h137l62 -620l71 620h192l73 -617l62 617h138l-92 -750h-204l-72 626l-70 -626h-206z" />
    <glyph glyph-name="X" unicode="X" horiz-adv-x="490" 
d="M339 0l-94 285l-94 -285h-151l154 385l-145 365h150l86 -269l86 269h150l-145 -365l154 -385h-151z" />
    <glyph glyph-name="Y" unicode="Y" horiz-adv-x="480" 
d="M313 273v-273h-145v273l-168 477h141l99 -310l99 310h141z" />
    <glyph glyph-name="Z" unicode="Z" horiz-adv-x="440" 
d="M425 0h-400v158l254 465h-249v127h385v-157l-253 -465h263v-128z" />
    <glyph glyph-name="bracketleft" unicode="[" horiz-adv-x="340" 
d="M83 -180v930h255v-102h-130v-726h130v-102h-255z" />
    <glyph glyph-name="backslash" unicode="\" horiz-adv-x="416" 
d="M281 0l-250 750h104l250 -750h-104z" />
    <glyph glyph-name="bracketright" unicode="]" horiz-adv-x="340" 
d="M3 -180v102h130v726h-130v102h255v-930h-255z" />
    <glyph glyph-name="asciicircum" unicode="^" 
d="M411 350l-136 285l-136 -285h-103l195 400h89l195 -400h-104z" />
    <glyph glyph-name="underscore" unicode="_" horiz-adv-x="500" 
d="M455 -191h-410v92h410v-92z" />
    <glyph glyph-name="grave" unicode="`" horiz-adv-x="500" 
d="M198 600l-93 150h150l58 -150h-115z" />
    <glyph glyph-name="a" unicode="a" 
d="M244 97q48 0 80 27t32 75v26q-24 -11 -73 -20.5t-75.5 -21.5t-26.5 -38q0 -23 17.5 -35.5t45.5 -12.5zM359 0v76q-45 -86 -159 -86q-68 0 -116 36.5t-48 106.5q0 50 23.5 82.5t59 45.5t76.5 22t76.5 13t59 16.5t23.5 35.5q0 26 -22 41t-57 15q-38 0 -59.5 -20t-21.5 -56
h-143q0 92 66 137t162 45q95 0 157.5 -41t62.5 -125v-344h-140z" />
    <glyph glyph-name="b" unicode="b" horiz-adv-x="615" 
d="M353 -10q-91 0 -150 73v-63h-143v750h145v-310q59 70 148 70q102 0 167 -72t65 -188t-65 -188t-167 -72zM324 381q-52 0 -85.5 -36t-33.5 -95t33.5 -95t85.5 -36t85.5 36t33.5 95t-33.5 95t-85.5 36z" />
    <glyph glyph-name="c" unicode="c" horiz-adv-x="572" 
d="M539 309h-148q-9 35 -37.5 53.5t-66.5 18.5q-51 0 -83 -36t-32 -95t32 -95t83 -36q39 0 68 21.5t38 61.5h148q-10 -96 -80 -154t-175 -58q-111 0 -183.5 73t-72.5 187t72.5 187t183.5 73q102 0 170.5 -55t82.5 -146z" />
    <glyph glyph-name="d" unicode="d" horiz-adv-x="615" 
d="M291 381q-52 0 -85 -36t-33 -95t33 -95t85 -36t85.5 36t33.5 95t-33.5 95t-85.5 36zM413 0v64q-58 -74 -150 -74q-103 0 -168 72t-65 188t65 188t168 72q88 0 147 -70v310h145v-750h-142z" />
    <glyph glyph-name="e" unicode="e" horiz-adv-x="566" 
d="M283 391q-95 0 -113 -96h226q-18 96 -113 96zM524 158q-23 -82 -85.5 -125t-155.5 -43q-111 0 -182 73t-71 187t71 187t182 73t182 -73t71 -187q0 -14 -2 -40h-365q18 -101 118 -101q69 0 90 49h147z" />
    <glyph glyph-name="f" unicode="f" horiz-adv-x="380" 
d="M235 566v-66h123v-117h-123v-383h-145v383h-72v117h72v71q0 91 55.5 140t144.5 49q48 0 75 -9v-122q-24 9 -56 9q-35 0 -54.5 -18.5t-19.5 -53.5z" />
    <glyph glyph-name="g" unicode="g" horiz-adv-x="540" 
d="M260 253q33 0 54.5 20.5t21.5 53.5q0 34 -21 54.5t-55 20.5t-55 -20.5t-21 -54.5q0 -33 21.5 -53.5t54.5 -20.5zM529 -95q0 -75 -60 -120t-180 -45h-35q-115 0 -174 37t-59 98q0 65 76 100q-66 35 -66 102q0 40 24 69.5t68 43.5q-67 52 -67 137q0 79 59 131t145 52
q90 0 149 -56l20 30q10 15 20 20.5t30 5.5h51v-131h-74q8 -26 8 -52q0 -80 -59.5 -131.5t-144.5 -51.5q-42 0 -81 14q-15 -4 -24.5 -15t-9.5 -27q0 -46 63 -46h108q213 0 213 -165zM267 -150h19q114 0 114 56q0 49 -99 49h-52q-100 0 -100 -49q0 -56 118 -56z" />
    <glyph glyph-name="h" unicode="h" horiz-adv-x="585" 
d="M205 276v-276h-145v750h145v-317q49 77 143 77q81 0 131.5 -52t50.5 -149v-309h-145v276q0 56 -23.5 85t-66.5 29t-66.5 -29t-23.5 -85z" />
    <glyph glyph-name="i" unicode="i" horiz-adv-x="265" 
d="M133 587q-37 0 -62 24.5t-25 59.5q0 36 25 60t62 24t61.5 -24t24.5 -60t-24.5 -60t-61.5 -24zM205 0h-145v500h145v-500z" />
    <glyph glyph-name="j" unicode="j" horiz-adv-x="265" 
d="M133 587q-37 0 -62 24.5t-25 59.5q0 36 25 60t62 24t61.5 -24t24.5 -60t-24.5 -60t-61.5 -24zM60 -66v566h145v-571q0 -182 -184 -182q-40 0 -64 6v120q18 -3 38 -3q33 0 49 14t16 50z" />
    <glyph glyph-name="k" unicode="k" horiz-adv-x="565" 
d="M387 0l-182 262v-262h-145v750h145v-466l165 216h177l-193 -226l204 -274h-171z" />
    <glyph glyph-name="l" unicode="l" horiz-adv-x="265" 
d="M205 0h-145v750h145v-750z" />
    <glyph glyph-name="m" unicode="m" horiz-adv-x="875" 
d="M205 284v-284h-145v500h143v-65q45 75 136 75q111 0 154 -91q22 43 62.5 67t91.5 24q77 0 125 -49.5t48 -143.5v-317h-145v284q0 52 -21 79t-60 27q-81 0 -81 -106v-284h-145v284q0 106 -82 106q-39 0 -60 -27t-21 -79z" />
    <glyph glyph-name="n" unicode="n" horiz-adv-x="585" 
d="M205 276v-276h-145v500h143v-71q47 81 145 81q81 0 131.5 -52t50.5 -149v-309h-145v276q0 56 -23.5 85t-66.5 29t-66.5 -29t-23.5 -85z" />
    <glyph glyph-name="o" unicode="o" horiz-adv-x="580" 
d="M290 -10q-113 0 -186.5 72.5t-73.5 187.5t73.5 187.5t186.5 72.5t186.5 -72.5t73.5 -187.5t-73.5 -187.5t-186.5 -72.5zM290 119q52 0 85.5 36.5t33.5 94.5q0 59 -33.5 95t-85.5 36t-85.5 -36t-33.5 -95q0 -58 33.5 -94.5t85.5 -36.5z" />
    <glyph glyph-name="p" unicode="p" horiz-adv-x="615" 
d="M324 119q52 0 85.5 36t33.5 95t-33.5 95t-85.5 36t-85.5 -36t-33.5 -95t33.5 -95t85.5 -36zM353 -10q-89 0 -148 70v-310h-145v750h143v-63q59 73 150 73q102 0 167 -72t65 -188t-65 -188t-167 -72z" />
    <glyph glyph-name="q" unicode="q" horiz-adv-x="615" 
d="M555 -250h-145v310q-59 -70 -147 -70q-103 0 -168 72t-65 188t65 188t168 72q92 0 150 -74v64h142v-750zM291 119q52 0 85.5 36t33.5 95t-33.5 95t-85.5 36t-85 -36t-33 -95t33 -95t85 -36z" />
    <glyph glyph-name="r" unicode="r" horiz-adv-x="403" 
d="M205 253v-253h-145v500h140v-87q52 97 161 97q19 0 25 -2v-148q-22 8 -52 8q-62 0 -95.5 -30t-33.5 -85z" />
    <glyph glyph-name="s" unicode="s" horiz-adv-x="504" 
d="M472 148q0 -73 -59.5 -115.5t-152.5 -42.5q-99 0 -163 47t-64 128h140q0 -35 24 -54t62 -19q71 0 71 48q0 23 -21.5 36t-53.5 17.5t-69 14t-69 22.5t-53.5 45.5t-21.5 80.5q0 70 57.5 112t145.5 42q93 0 155.5 -49t62.5 -120h-140q0 29 -22 48t-55 19q-30 0 -48 -12
t-18 -33q0 -20 21.5 -32.5t54 -17t70.5 -14t70.5 -23.5t54 -46.5t21.5 -81.5z" />
    <glyph glyph-name="t" unicode="t" horiz-adv-x="390" 
d="M235 179q0 -34 16.5 -50t51.5 -16q29 0 55 9v-120q-40 -12 -84 -12q-87 0 -135.5 41t-48.5 140v212h-72v117h72v148h145v-148h123v-117h-123v-204z" />
    <glyph glyph-name="u" unicode="u" horiz-adv-x="580" 
d="M378 0v71q-47 -81 -143 -81q-80 0 -130 52t-50 149v309h145v-276q0 -56 23 -85t65 -29t64.5 29t22.5 85v276h145v-500h-142z" />
    <glyph glyph-name="v" unicode="v" horiz-adv-x="500" 
d="M143 0l-135 500h145l97 -401l97 401h145l-135 -500h-214z" />
    <glyph glyph-name="w" unicode="w" horiz-adv-x="765" 
d="M124 0l-112 500h132l76 -390l76 390h173l76 -390l76 390h132l-112 -500h-182l-76 392l-77 -392h-182z" />
    <glyph glyph-name="x" unicode="x" horiz-adv-x="520" 
d="M359 0l-103 172l-94 -172h-162l165 258l-156 242h160l94 -160l88 160h160l-157 -243l166 -257h-161z" />
    <glyph glyph-name="y" unicode="y" horiz-adv-x="501" 
d="M92 -260q-46 0 -85 11v116q42 -10 70 -10q71 0 109 62l-182 581h143l102 -391l106 391h142l-162 -522q-34 -119 -89.5 -178.5t-153.5 -59.5z" />
    <glyph glyph-name="z" unicode="z" horiz-adv-x="470" 
d="M450 0h-420v148l259 235h-254v117h395v-147l-258 -235h278v-118z" />
    <glyph glyph-name="braceleft" unicode="{" horiz-adv-x="340" 
d="M338 -180h-60q-66 0 -107.5 41t-41.5 111v192q0 29 -15.5 44.5t-33.5 15.5h-46v122h46q18 0 33.5 15.5t15.5 44.5v192q0 70 41.5 111t107.5 41h60v-102h-29q-25 0 -40 -18t-15 -52v-189q0 -63 -57 -104q57 -41 57 -104v-189q0 -34 15 -52t40 -18h29v-102z" />
    <glyph glyph-name="bar" unicode="|" horiz-adv-x="275" 
d="M186 -250h-97v1000h97v-1000z" />
    <glyph glyph-name="braceright" unicode="}" horiz-adv-x="340" 
d="M212 -28q0 -69 -41.5 -110.5t-107.5 -41.5h-60v102h29q25 0 40 18t15 52v189q0 63 56 104q-56 41 -56 104v189q0 34 -15 52t-40 18h-29v102h60q66 0 107.5 -41.5t41.5 -110.5v-192q0 -29 15 -44.5t33 -15.5h46v-122h-46q-18 0 -33 -15.5t-15 -44.5v-192z" />
    <glyph glyph-name="asciitilde" unicode="~" 
d="M201 286q-16 0 -27 -11t-11 -31v-16h-93v31q0 59 30.5 92t79.5 33q45 0 101 -32t75 -32q14 0 23 11t9 32v16h92v-31q0 -60 -29.5 -92.5t-77.5 -32.5q-36 0 -91 31.5t-81 31.5z" />
    <glyph glyph-name="exclamdown" unicode="&#xa1;" horiz-adv-x="273" 
d="M136 510q33 0 55.5 -22.5t22.5 -54.5t-22.5 -55t-55.5 -23q-32 0 -54.5 23t-22.5 55t22.5 54.5t54.5 22.5zM73 250h127l13 -500h-153z" />
    <glyph glyph-name="cent" unicode="&#xa2;" 
d="M152 375q0 -52 24.5 -86.5t66.5 -45.5v264q-41 -11 -66 -46t-25 -86zM533 327q-9 -87 -68.5 -143.5t-151.5 -66.5v-117h-70v117q-102 11 -166 82t-64 176t64 176t166 82v117h70v-117q89 -10 147.5 -63t70.5 -136h-146q-13 57 -72 72v-262q61 19 75 83h145z" />
    <glyph glyph-name="sterling" unicode="&#xa3;" 
d="M492 128v-128h-438v64q67 78 88.5 124t21.5 114q0 8 -2 22h-98v76h62l-9 13q-9 13 -9.5 14.5t-8.5 13.5t-9.5 15.5t-7.5 15t-7.5 17t-5 16t-4.5 19t-2.5 19t-1.5 20.5q0 96 60 148t154 52q93 0 153 -57t60 -160v-23h-140v15q0 52 -19 74.5t-55 22.5q-73 0 -73 -75
q0 -25 10.5 -50.5t30.5 -58t29 -51.5h166v-76h-145q1 -5 1 -15q0 -105 -56 -181h255z" />
    <glyph glyph-name="currency" unicode="&#xa4;" 
d="M389 124l-62 61q-27 -10 -52 -10q-26 0 -54 10l-55 -55l-64 64l53 53q-12 26 -12 55q0 31 12 55l-59 60l66 66l62 -62q23 9 51 9q26 0 53 -10l57 57l64 -64l-55 -55q13 -28 13 -56q0 -29 -12 -53l60 -59zM275 252q21 0 35 14t14 36t-14 36t-35 14t-35.5 -14t-14.5 -36
t14.5 -36t35.5 -14z" />
    <glyph glyph-name="yen" unicode="&#xa5;" 
d="M461 245h-113v-245h-145v245h-117v77h117v109h-117v76h82l-137 243h139l105 -200l105 200h139l-136 -243h78v-76h-113v-109h113v-77z" />
    <glyph glyph-name="brokenbar" unicode="&#xa6;" horiz-adv-x="275" 
d="M186 350h-97v400h97v-400zM186 -250h-97v400h97v-400z" />
    <glyph glyph-name="section" unicode="&#xa7;" horiz-adv-x="498" 
d="M249 180q33 0 54 19.5t21 50.5q0 32 -21 51t-54 19q-32 0 -53.5 -19t-21.5 -51q0 -31 21.5 -50.5t53.5 -19.5zM251 -263q-89 0 -146.5 48.5t-57.5 139.5v38h139v-35q0 -72 65 -72q29 0 46 14.5t17 40.5q0 20 -11 37t-24 27t-41 29l-80 53q-59 40 -90 82.5t-31 102.5
q0 111 111 162q-53 44 -77.5 83t-24.5 93q0 93 56.5 138t146.5 45q89 0 146 -48.5t57 -140.5v-37h-138v35q0 72 -65 72q-29 0 -46 -14.5t-17 -41.5q0 -28 17.5 -47t58.5 -46l85 -56q55 -36 85 -78.5t30 -102.5q0 -109 -108 -161q100 -73 100 -177q0 -93 -56.5 -138
t-146.5 -45z" />
    <glyph glyph-name="dieresis" unicode="&#xa8;" horiz-adv-x="500" 
d="M352 605q-28 0 -48.5 20.5t-20.5 49.5t20.5 49.5t48.5 20.5q30 0 50 -20.5t20 -49.5t-20 -49.5t-50 -20.5zM148 605q-28 0 -49 20.5t-21 49.5t20.5 49.5t49.5 20.5t49.5 -20.5t20.5 -49.5t-20.5 -49.5t-49.5 -20.5z" />
    <glyph glyph-name="copyright" unicode="&#xa9;" horiz-adv-x="830" 
d="M415 -10q-163 0 -271.5 112.5t-108.5 272.5q0 161 108.5 273t271.5 112t271.5 -112t108.5 -273q0 -160 -108.5 -272.5t-271.5 -112.5zM415 703q-136 0 -226.5 -95.5t-90.5 -232.5t90.5 -232t226.5 -95t227 95t91 232t-91 232.5t-227 95.5zM622 422h-119
q-10 27 -33.5 42.5t-53.5 15.5q-43 0 -70 -29t-27 -76q0 -48 27 -76.5t70 -28.5q32 0 56.5 17.5t33.5 48.5h118q-11 -77 -68 -124t-141 -47q-91 0 -150.5 59t-59.5 151t59.5 151t150.5 59q81 0 138 -45t69 -118z" />
    <glyph glyph-name="ordfeminine" unicode="&#xaa;" horiz-adv-x="379" 
d="M166 341q26 0 43.5 15.5t17.5 43.5v20q-14 -7 -41 -13t-42 -13t-15 -23q0 -14 10.5 -22t26.5 -8zM230 274v51q-28 -57 -104 -57q-42 0 -72.5 24.5t-30.5 68.5q0 46 31.5 69.5t69.5 26.5t69.5 12t31.5 29q0 15 -12 24t-31 9q-47 0 -47 -45h-103q0 61 45 90.5t110 29.5
q64 0 105.5 -27t41.5 -84v-221h-104zM334 87h-289v95h289v-95z" />
    <glyph glyph-name="guillemotleft" unicode="&#xab;" horiz-adv-x="573" 
d="M530 43l-225 145v135l225 145v-128l-144 -85l144 -85v-127zM268 43l-225 145v135l225 145v-128l-144 -85l144 -85v-127z" />
    <glyph glyph-name="logicalnot" unicode="&#xac;" 
d="M475 96h-94v162h-306v90h400v-252z" />
    <glyph glyph-name="registered" unicode="&#xae;" horiz-adv-x="498" 
d="M249 298q-98 0 -163 67.5t-65 163.5q0 97 65 164t163 67t163 -67t65 -164q0 -96 -65 -163.5t-163 -67.5zM249 719q-79 0 -131.5 -55t-52.5 -135t52.5 -135t131.5 -55t131.5 55t52.5 135t-52.5 135t-131.5 55zM256 594h-35v-44h35q26 0 26 23q0 21 -26 21zM282 409l-52 91
h-9v-91h-65v240h104q86 0 86 -74q0 -48 -46 -67l60 -99h-78z" />
    <glyph glyph-name="macron" unicode="&#xaf;" horiz-adv-x="500" 
d="M396 700v-92h-285v92h285z" />
    <glyph glyph-name="degree" unicode="&#xb0;" horiz-adv-x="359" 
d="M180 500q-56 0 -93 35.5t-37 89.5t37 89.5t93 35.5t92.5 -35.5t36.5 -89.5t-36.5 -89.5t-92.5 -35.5zM180 575q21 0 35 14t14 36t-14 36t-35 14t-35.5 -14t-14.5 -36t14.5 -36t35.5 -14z" />
    <glyph glyph-name="plusminus" unicode="&#xb1;" 
d="M475 266h-153v-155h-94v155h-153v90h153v154h94v-154h153v-90zM75 0v90h400v-90h-400z" />
    <glyph glyph-name="twosuperior" unicode="&#xb2;" horiz-adv-x="316" 
d="M300 537q0 -41 -31.5 -76.5t-72 -65.5t-50.5 -47h156v-86h-285v35q0 35 19 66.5t45.5 53.5t53.5 41t46 38.5t19 36.5t-11 27.5t-29 10.5q-43 0 -43 -46v-13h-98v21q0 59 39.5 91.5t101.5 32.5q60 0 100 -31.5t40 -88.5z" />
    <glyph glyph-name="threesuperior" unicode="&#xb3;" horiz-adv-x="345" 
d="M178 256q-73 0 -117 35.5t-44 96.5h101q0 -23 15.5 -36t40.5 -13q22 0 36 11.5t14 30.5q0 41 -53 41h-38v79h38q20 0 31.5 9.5t11.5 25.5q0 35 -45 35t-45 -43h-100q0 61 39 95t109 34q66 0 106 -31t40 -81q0 -53 -47 -80q57 -30 57 -91q0 -56 -40.5 -87t-109.5 -31z" />
    <glyph glyph-name="acute" unicode="&#xb4;" horiz-adv-x="500" 
d="M313 600h-115l57 150h150z" />
    <glyph glyph-name="paragraph" unicode="&#xb6;" horiz-adv-x="640" 
d="M570 -250h-90v1000h90v-1000zM380 -250h-90v523h-4q-101 0 -163.5 58t-62.5 162v45q0 101 62.5 156.5t163.5 55.5h94v-1000z" />
    <glyph glyph-name="periodcentered" unicode="&#xb7;" horiz-adv-x="263" 
d="M132 179q-35 0 -58.5 23.5t-23.5 57.5q0 35 23.5 58t58.5 23t58 -23t23 -58q0 -34 -23 -57.5t-58 -23.5z" />
    <glyph glyph-name="cedilla" unicode="&#xb8;" horiz-adv-x="500" 
d="M250 -250q-51 0 -84 25t-33 61h79q4 -23 38 -23q17 0 28.5 11.5t11.5 27.5q0 17 -11.5 28.5t-28.5 11.5q-27 0 -34 -16h-78l78 124h75l-30 -45q46 0 76 -30t30 -73t-32.5 -72.5t-84.5 -29.5z" />
    <glyph glyph-name="onesuperior" unicode="&#xb9;" horiz-adv-x="224" 
d="M85 645v6h106v-389h-109v242h-72v82h19q29 0 42.5 14t13.5 45z" />
    <glyph glyph-name="ordmasculine" unicode="&#xba;" horiz-adv-x="379" 
d="M190 268q-74 0 -123 47.5t-49 121.5q0 75 49 122t123 47t122.5 -47t48.5 -122q0 -74 -48.5 -121.5t-122.5 -47.5zM190 364q29 0 48 20t19 53t-18.5 53.5t-48.5 20.5t-49 -20.5t-19 -53.5t19 -53t49 -20zM334 87h-289v95h289v-95z" />
    <glyph glyph-name="guillemotright" unicode="&#xbb;" horiz-adv-x="573" 
d="M43 43v127l144 85l-144 85v128l225 -145v-135zM305 43v127l144 85l-144 85v128l225 -145v-135z" />
    <glyph glyph-name="onequarter" unicode="&#xbc;" horiz-adv-x="806" 
d="M103 0l520 750h80l-520 -750h-80zM165 744v6h106v-389h-109v242h-72v82h19q29 0 42.5 14t13.5 45zM531 150h78v166zM769 67h-58v-67h-102v67h-171v80l116 242h157v-239h58v-83z" />
    <glyph glyph-name="onehalf" unicode="&#xbd;" horiz-adv-x="806" 
d="M103 0l520 750h80l-520 -750h-80zM165 744v6h106v-389h-109v242h-72v82h19q29 0 42.5 14t13.5 45zM748 275q0 -41 -31.5 -76.5t-72 -65.5t-50.5 -47h156v-86h-285v35q0 35 19 66.5t45.5 53.5t53.5 41t46 38.5t19 36.5t-11 27.5t-29 10.5q-43 0 -43 -46v-13h-98v21
q0 59 39.5 91.5t101.5 32.5q60 0 100 -31.5t40 -88.5z" />
    <glyph glyph-name="threequarters" unicode="&#xbe;" horiz-adv-x="806" 
d="M103 0l520 750h80l-520 -750h-80zM178 355q-73 0 -117 35.5t-44 96.5h101q0 -23 15.5 -36t40.5 -13q22 0 36 11.5t14 30.5q0 41 -53 41h-38v79h38q20 0 31.5 9.5t11.5 25.5q0 35 -45 35t-45 -43h-100q0 61 39 95t109 34q66 0 106 -31t40 -81q0 -53 -47 -80q57 -30 57 -91
q0 -56 -40.5 -87t-109.5 -31zM531 150h78v166zM769 67h-58v-67h-102v67h-171v80l116 242h157v-239h58v-83z" />
    <glyph glyph-name="questiondown" unicode="&#xbf;" horiz-adv-x="497" 
d="M245 510q32 0 54.5 -23t22.5 -54q0 -32 -22.5 -55t-54.5 -23q-33 0 -55.5 23t-22.5 55q0 31 22.5 54t55.5 23zM20 -62q0 40 16 74t39 57.5t46.5 46t40.5 51t18 61.5l1 22h127v-30q0 -49 -23 -92t-50.5 -68.5t-50.5 -57.5t-23 -62q0 -73 84 -73q40 0 65 25t25 77v32h140
v-43q0 -105 -66 -161.5t-164 -56.5q-101 0 -163 52.5t-62 145.5z" />
    <glyph glyph-name="Agrave" unicode="&#xc0;" horiz-adv-x="510" 
d="M202 820l-93 150h150l58 -150h-115zM314 278l-59 362l-59 -362h118zM360 0l-25 153h-160l-25 -153h-142l136 750h222l137 -750h-143z" />
    <glyph glyph-name="Aacute" unicode="&#xc1;" horiz-adv-x="510" 
d="M318 820h-115l57 150h150zM314 278l-59 362l-59 -362h118zM360 0l-25 153h-160l-25 -153h-142l136 750h222l137 -750h-143z" />
    <glyph glyph-name="Acircumflex" unicode="&#xc2;" horiz-adv-x="510" 
d="M317 820l-63 74l-62 -74h-113l98 150h155l97 -150h-112zM314 278l-59 362l-59 -362h118zM360 0l-25 153h-160l-25 -153h-142l136 750h222l137 -750h-143z" />
    <glyph glyph-name="Atilde" unicode="&#xc3;" horiz-adv-x="510" 
d="M83 820v48q0 102 88 102q34 0 81 -25.5t62 -25.5q29 0 29 34v17h85v-47q0 -103 -89 -103q-34 0 -80.5 25.5t-61.5 25.5q-29 0 -29 -34v-17h-85zM314 278l-59 362l-59 -362h118zM360 0l-25 153h-160l-25 -153h-142l136 750h222l137 -750h-143z" />
    <glyph glyph-name="Adieresis" unicode="&#xc4;" horiz-adv-x="510" 
d="M357 825q-28 0 -48.5 20.5t-20.5 49.5t20.5 49.5t48.5 20.5q30 0 50 -20.5t20 -49.5t-20 -49.5t-50 -20.5zM153 825q-29 0 -49.5 20.5t-20.5 49.5t20.5 49.5t49.5 20.5t49.5 -20.5t20.5 -49.5t-20.5 -49.5t-49.5 -20.5zM314 278l-59 362l-59 -362h118zM360 0l-25 153
h-160l-25 -153h-142l136 750h222l137 -750h-143z" />
    <glyph glyph-name="Aring" unicode="&#xc5;" horiz-adv-x="510" 
d="M255 790q-49 0 -80 27t-31 68q0 40 31 67.5t80 27.5t80.5 -27.5t31.5 -67.5q0 -41 -31 -68t-81 -27zM255 853q15 0 25 9t10 23t-10 23.5t-25 9.5q-14 0 -23.5 -9.5t-9.5 -23.5t9.5 -23t23.5 -9zM314 278l-59 362l-59 -362h118zM360 0l-25 153h-160l-25 -153h-142l136 750
h222l137 -750h-143z" />
    <glyph glyph-name="AE" unicode="&#xc6;" horiz-adv-x="778" 
d="M386 285v372l-135 -372h135zM386 0v160h-181l-58 -160h-147l286 750h457v-127h-213v-175h193v-128h-193v-192h213v-128h-357z" />
    <glyph glyph-name="Ccedilla" unicode="&#xc7;" horiz-adv-x="570" 
d="M285 -250q-51 0 -84 25t-33 61h79q5 -23 38 -23q17 0 28.5 11t11.5 28t-11.5 28.5t-28.5 11.5q-27 0 -34 -16h-78l71 113q-93 12 -143.5 77.5t-50.5 181.5v255q0 128 61.5 194t173.5 66t173.5 -66t61.5 -194v-48h-145v50q0 70 -23 100t-67 30t-67 -30t-23 -100v-260
q0 -70 23 -100t67 -30t67 30t23 100v60h145v-57q0 -118 -53 -184t-149 -75l-22 -34q46 0 76 -30t30 -73t-32.5 -72.5t-84.5 -29.5z" />
    <glyph glyph-name="Egrave" unicode="&#xc8;" horiz-adv-x="454" 
d="M190 820l-93 150h150l58 -150h-115zM60 0v750h359v-127h-215v-175h195v-128h-195v-192h215v-128h-359z" />
    <glyph glyph-name="Eacute" unicode="&#xc9;" horiz-adv-x="454" 
d="M306 820h-115l57 150h150zM60 0v750h359v-127h-215v-175h195v-128h-195v-192h215v-128h-359z" />
    <glyph glyph-name="Ecircumflex" unicode="&#xca;" horiz-adv-x="454" 
d="M305 820l-63 74l-62 -74h-113l98 150h155l97 -150h-112zM60 0v750h359v-127h-215v-175h195v-128h-195v-192h215v-128h-359z" />
    <glyph glyph-name="Edieresis" unicode="&#xcb;" horiz-adv-x="454" 
d="M345 825q-28 0 -48.5 20.5t-20.5 49.5t20.5 49.5t48.5 20.5q30 0 50 -20.5t20 -49.5t-20 -49.5t-50 -20.5zM141 825q-29 0 -49.5 20.5t-20.5 49.5t20.5 49.5t49.5 20.5t49.5 -20.5t20.5 -49.5t-20.5 -49.5t-49.5 -20.5zM60 0v750h359v-127h-215v-175h195v-128h-195v-192
h215v-128h-359z" />
    <glyph glyph-name="Igrave" unicode="&#xcc;" horiz-adv-x="265" 
d="M79 820l-93 150h150l58 -150h-115zM205 0h-145v750h145v-750z" />
    <glyph glyph-name="Iacute" unicode="&#xcd;" horiz-adv-x="265" 
d="M195 820h-115l57 150h150zM205 0h-145v750h145v-750z" />
    <glyph glyph-name="Icircumflex" unicode="&#xce;" horiz-adv-x="265" 
d="M194 820l-63 74l-62 -74h-113l98 150h155l97 -150h-112zM205 0h-145v750h145v-750z" />
    <glyph glyph-name="Idieresis" unicode="&#xcf;" horiz-adv-x="265" 
d="M234 825q-28 0 -48.5 20.5t-20.5 49.5t20.5 49.5t48.5 20.5q30 0 50 -20.5t20 -49.5t-20 -49.5t-50 -20.5zM30 825q-28 0 -49 20.5t-21 49.5t20.5 49.5t49.5 20.5t49.5 -20.5t20.5 -49.5t-20.5 -49.5t-49.5 -20.5zM205 0h-145v750h145v-750z" />
    <glyph glyph-name="Eth" unicode="&#xd0;" horiz-adv-x="570" 
d="M285 0h-225v338h-60v92h60v320h225q111 0 173 -64t62 -188v-245q0 -125 -61.5 -189t-173.5 -64zM205 128h80q44 0 67 28t23 94v250q0 66 -23 94.5t-67 28.5h-80v-193h86v-92h-86v-210z" />
    <glyph glyph-name="Ntilde" unicode="&#xd1;" horiz-adv-x="590" 
d="M123 820v48q0 102 88 102q34 0 81 -25.5t62 -25.5q29 0 29 34v17h85v-47q0 -103 -89 -103q-34 0 -80.5 25.5t-61.5 25.5q-29 0 -29 -34v-17h-85zM308 0l-124 650v-650h-124v750h223l123 -641v641h124v-750h-222z" />
    <glyph glyph-name="Ograve" unicode="&#xd2;" horiz-adv-x="570" 
d="M232 820l-93 150h150l58 -150h-115zM285 -13q-112 0 -173.5 66t-61.5 195v255q0 128 61.5 194t173.5 66t173.5 -66t61.5 -194v-255q0 -129 -61.5 -195t-173.5 -66zM285 115q44 0 67 30t23 100v260q0 70 -23 100t-67 30t-67 -30t-23 -100v-260q0 -70 23 -100t67 -30z" />
    <glyph glyph-name="Oacute" unicode="&#xd3;" horiz-adv-x="570" 
d="M348 820h-115l57 150h150zM285 -13q-112 0 -173.5 66t-61.5 195v255q0 128 61.5 194t173.5 66t173.5 -66t61.5 -194v-255q0 -129 -61.5 -195t-173.5 -66zM285 115q44 0 67 30t23 100v260q0 70 -23 100t-67 30t-67 -30t-23 -100v-260q0 -70 23 -100t67 -30z" />
    <glyph glyph-name="Ocircumflex" unicode="&#xd4;" horiz-adv-x="570" 
d="M347 820l-63 74l-62 -74h-113l98 150h155l97 -150h-112zM285 -13q-112 0 -173.5 66t-61.5 195v255q0 128 61.5 194t173.5 66t173.5 -66t61.5 -194v-255q0 -129 -61.5 -195t-173.5 -66zM285 115q44 0 67 30t23 100v260q0 70 -23 100t-67 30t-67 -30t-23 -100v-260
q0 -70 23 -100t67 -30z" />
    <glyph glyph-name="Otilde" unicode="&#xd5;" horiz-adv-x="570" 
d="M113 820v48q0 102 88 102q34 0 81 -25.5t62 -25.5q29 0 29 34v17h85v-47q0 -103 -89 -103q-34 0 -80.5 25.5t-61.5 25.5q-29 0 -29 -34v-17h-85zM285 -13q-112 0 -173.5 66t-61.5 195v255q0 128 61.5 194t173.5 66t173.5 -66t61.5 -194v-255q0 -129 -61.5 -195
t-173.5 -66zM285 115q44 0 67 30t23 100v260q0 70 -23 100t-67 30t-67 -30t-23 -100v-260q0 -70 23 -100t67 -30z" />
    <glyph glyph-name="Odieresis" unicode="&#xd6;" horiz-adv-x="570" 
d="M387 825q-28 0 -48.5 20.5t-20.5 49.5t20.5 49.5t48.5 20.5q30 0 50 -20.5t20 -49.5t-20 -49.5t-50 -20.5zM183 825q-29 0 -49.5 20.5t-20.5 49.5t20.5 49.5t49.5 20.5t49.5 -20.5t20.5 -49.5t-20.5 -49.5t-49.5 -20.5zM285 -13q-112 0 -173.5 66t-61.5 195v255
q0 128 61.5 194t173.5 66t173.5 -66t61.5 -194v-255q0 -129 -61.5 -195t-173.5 -66zM285 115q44 0 67 30t23 100v260q0 70 -23 100t-67 30t-67 -30t-23 -100v-260q0 -70 23 -100t67 -30z" />
    <glyph glyph-name="multiply" unicode="&#xd7;" 
d="M389 124l-114 115l-109 -109l-64 64l109 109l-115 114l66 66l115 -114l108 108l64 -64l-108 -108l114 -115z" />
    <glyph glyph-name="Oslash" unicode="&#xd8;" horiz-adv-x="570" 
d="M303 -13q-93 0 -136 42l-14 -29h-103l46 94q-46 52 -46 164v245q0 127 59.5 193.5t158.5 66.5q93 0 135 -43l15 30h102l-46 -95q46 -50 46 -162v-245q0 -127 -59 -194t-158 -67zM195 505v-209l154 313q-21 26 -64 26q-44 0 -67 -30t-23 -100zM285 115q45 0 67.5 29.5
t22.5 100.5v209l-153 -314q21 -25 63 -25z" />
    <glyph glyph-name="Ugrave" unicode="&#xd9;" horiz-adv-x="570" 
d="M232 820l-93 150h150l58 -150h-115zM55 750h145v-517q0 -63 21.5 -90.5t63.5 -27.5t63.5 27.5t21.5 90.5v517h145v-515q0 -122 -60.5 -185t-169.5 -63t-169.5 63t-60.5 185v515z" />
    <glyph glyph-name="Uacute" unicode="&#xda;" horiz-adv-x="570" 
d="M348 820h-115l57 150h150zM55 750h145v-517q0 -63 21.5 -90.5t63.5 -27.5t63.5 27.5t21.5 90.5v517h145v-515q0 -122 -60.5 -185t-169.5 -63t-169.5 63t-60.5 185v515z" />
    <glyph glyph-name="Ucircumflex" unicode="&#xdb;" horiz-adv-x="570" 
d="M347 820l-63 74l-62 -74h-113l98 150h155l97 -150h-112zM55 750h145v-517q0 -63 21.5 -90.5t63.5 -27.5t63.5 27.5t21.5 90.5v517h145v-515q0 -122 -60.5 -185t-169.5 -63t-169.5 63t-60.5 185v515z" />
    <glyph glyph-name="Udieresis" unicode="&#xdc;" horiz-adv-x="570" 
d="M387 825q-28 0 -48.5 20.5t-20.5 49.5t20.5 49.5t48.5 20.5q30 0 50 -20.5t20 -49.5t-20 -49.5t-50 -20.5zM183 825q-29 0 -49.5 20.5t-20.5 49.5t20.5 49.5t49.5 20.5t49.5 -20.5t20.5 -49.5t-20.5 -49.5t-49.5 -20.5zM55 750h145v-517q0 -63 21.5 -90.5t63.5 -27.5
t63.5 27.5t21.5 90.5v517h145v-515q0 -122 -60.5 -185t-169.5 -63t-169.5 63t-60.5 185v515z" />
    <glyph glyph-name="Yacute" unicode="&#xdd;" horiz-adv-x="480" 
d="M303 820h-115l57 150h150zM313 273v-273h-145v273l-168 477h141l99 -310l99 310h141z" />
    <glyph glyph-name="Thorn" unicode="&#xde;" horiz-adv-x="530" 
d="M278 518h-75v-228h75q88 0 88 105v25q0 98 -88 98zM287 165h-84v-165h-143v750h143v-107h84q100 0 159 -55.5t59 -157.5v-45q0 -105 -59.5 -162.5t-158.5 -57.5z" />
    <glyph glyph-name="germandbls" unicode="&#xdf;" horiz-adv-x="624" 
d="M235 565v-565h-145v383h-72v117h72v67q0 92 59.5 142.5t160.5 50.5q100 0 162 -50t62 -136q0 -76 -63 -119q57 -31 90 -86t33 -126q0 -107 -71 -175t-180 -68h-37v118h17q57 0 93.5 36.5t36.5 95.5t-36.5 96t-93.5 37h-17v117h5q75 0 75 67q0 34 -20 53t-56 19
q-35 0 -55 -19.5t-20 -54.5z" />
    <glyph glyph-name="agrave" unicode="&#xe0;" 
d="M227 600l-93 150h150l58 -150h-115zM244 97q48 0 80 27t32 75v26q-24 -11 -73 -20.5t-75.5 -21.5t-26.5 -38q0 -23 17.5 -35.5t45.5 -12.5zM359 0v76q-45 -86 -159 -86q-68 0 -116 36.5t-48 106.5q0 50 23.5 82.5t59 45.5t76.5 22t76.5 13t59 16.5t23.5 35.5q0 26 -22 41
t-57 15q-38 0 -59.5 -20t-21.5 -56h-143q0 92 66 137t162 45q95 0 157.5 -41t62.5 -125v-344h-140z" />
    <glyph glyph-name="aacute" unicode="&#xe1;" 
d="M342 600h-115l57 150h150zM244 97q48 0 80 27t32 75v26q-24 -11 -73 -20.5t-75.5 -21.5t-26.5 -38q0 -23 17.5 -35.5t45.5 -12.5zM359 0v76q-45 -86 -159 -86q-68 0 -116 36.5t-48 106.5q0 50 23.5 82.5t59 45.5t76.5 22t76.5 13t59 16.5t23.5 35.5q0 26 -22 41t-57 15
q-38 0 -59.5 -20t-21.5 -56h-143q0 92 66 137t162 45q95 0 157.5 -41t62.5 -125v-344h-140z" />
    <glyph glyph-name="acircumflex" unicode="&#xe2;" 
d="M342 600l-63 74l-62 -74h-113l98 150h155l97 -150h-112zM244 97q48 0 80 27t32 75v26q-24 -11 -73 -20.5t-75.5 -21.5t-26.5 -38q0 -23 17.5 -35.5t45.5 -12.5zM359 0v76q-45 -86 -159 -86q-68 0 -116 36.5t-48 106.5q0 50 23.5 82.5t59 45.5t76.5 22t76.5 13t59 16.5
t23.5 35.5q0 26 -22 41t-57 15q-38 0 -59.5 -20t-21.5 -56h-143q0 92 66 137t162 45q95 0 157.5 -41t62.5 -125v-344h-140z" />
    <glyph glyph-name="atilde" unicode="&#xe3;" 
d="M107 600v48q0 102 88 102q34 0 81 -25.5t62 -25.5q29 0 29 34v17h85v-47q0 -103 -89 -103q-34 0 -80.5 25.5t-61.5 25.5q-29 0 -29 -34v-17h-85zM244 97q48 0 80 27t32 75v26q-24 -11 -73 -20.5t-75.5 -21.5t-26.5 -38q0 -23 17.5 -35.5t45.5 -12.5zM359 0v76
q-45 -86 -159 -86q-68 0 -116 36.5t-48 106.5q0 50 23.5 82.5t59 45.5t76.5 22t76.5 13t59 16.5t23.5 35.5q0 26 -22 41t-57 15q-38 0 -59.5 -20t-21.5 -56h-143q0 92 66 137t162 45q95 0 157.5 -41t62.5 -125v-344h-140z" />
    <glyph glyph-name="adieresis" unicode="&#xe4;" 
d="M381 605q-28 0 -48.5 20.5t-20.5 49.5t20.5 49.5t48.5 20.5q30 0 50 -20.5t20 -49.5t-20 -49.5t-50 -20.5zM177 605q-29 0 -49.5 20.5t-20.5 49.5t20.5 49.5t49.5 20.5t49.5 -20.5t20.5 -49.5t-20.5 -49.5t-49.5 -20.5zM244 97q48 0 80 27t32 75v26q-24 -11 -73 -20.5
t-75.5 -21.5t-26.5 -38q0 -23 17.5 -35.5t45.5 -12.5zM359 0v76q-45 -86 -159 -86q-68 0 -116 36.5t-48 106.5q0 50 23.5 82.5t59 45.5t76.5 22t76.5 13t59 16.5t23.5 35.5q0 26 -22 41t-57 15q-38 0 -59.5 -20t-21.5 -56h-143q0 92 66 137t162 45q95 0 157.5 -41t62.5 -125
v-344h-140z" />
    <glyph glyph-name="aring" unicode="&#xe5;" 
d="M279 570q-49 0 -80 27t-31 68q0 40 31 67.5t80 27.5t80.5 -27.5t31.5 -67.5q0 -41 -31 -68t-81 -27zM279 633q15 0 25 9t10 23t-10 23.5t-25 9.5q-14 0 -23.5 -9.5t-9.5 -23.5t9.5 -23t23.5 -9zM244 97q48 0 80 27t32 75v26q-24 -11 -73 -20.5t-75.5 -21.5t-26.5 -38
q0 -23 17.5 -35.5t45.5 -12.5zM359 0v76q-45 -86 -159 -86q-68 0 -116 36.5t-48 106.5q0 50 23.5 82.5t59 45.5t76.5 22t76.5 13t59 16.5t23.5 35.5q0 26 -22 41t-57 15q-38 0 -59.5 -20t-21.5 -56h-143q0 92 66 137t162 45q95 0 157.5 -41t62.5 -125v-344h-140z" />
    <glyph glyph-name="ae" unicode="&#xe6;" horiz-adv-x="899" 
d="M616 391q-95 0 -113 -96h226q-18 96 -113 96zM244 97q48 0 80 27t32 75v26q-24 -11 -73 -20.5t-75.5 -21.5t-26.5 -38q0 -23 17.5 -35.5t45.5 -12.5zM857 158q-23 -82 -85.5 -125t-155.5 -43q-133 0 -204 103q-48 -103 -191 -103q-76 0 -130.5 36.5t-54.5 106.5
q0 50 23.5 82.5t59 45.5t76.5 22t76.5 13t59 16.5t23.5 35.5q0 26 -22 41t-57 15q-38 0 -59.5 -20t-21.5 -56h-143q0 92 63.5 137t157.5 45q119 0 172 -66q68 66 172 66q111 0 182 -73t71 -187q0 -14 -2 -40h-365q18 -101 118 -101q69 0 90 49h147z" />
    <glyph glyph-name="ccedilla" unicode="&#xe7;" horiz-adv-x="572" 
d="M286 -250q-51 0 -84 25t-33 61h79q5 -23 38 -23q17 0 28.5 11t11.5 28t-11.5 28.5t-28.5 11.5q-27 0 -34 -16h-78l74 117q-97 13 -157.5 83.5t-60.5 173.5q0 114 72.5 187t183.5 73q102 0 170.5 -55t82.5 -146h-148q-9 35 -37.5 53.5t-66.5 18.5q-51 0 -83 -36t-32 -95
t32 -95t83 -36q39 0 68 21.5t38 61.5h148q-9 -87 -68.5 -143.5t-150.5 -66.5l-26 -37q47 0 77 -30t30 -73t-32.5 -72.5t-84.5 -29.5z" />
    <glyph glyph-name="egrave" unicode="&#xe8;" horiz-adv-x="566" 
d="M231 600l-93 150h150l58 -150h-115zM283 391q-95 0 -113 -96h226q-18 96 -113 96zM524 158q-23 -82 -85.5 -125t-155.5 -43q-111 0 -182 73t-71 187t71 187t182 73t182 -73t71 -187q0 -14 -2 -40h-365q18 -101 118 -101q69 0 90 49h147z" />
    <glyph glyph-name="eacute" unicode="&#xe9;" horiz-adv-x="566" 
d="M346 600h-115l57 150h150zM283 391q-95 0 -113 -96h226q-18 96 -113 96zM524 158q-23 -82 -85.5 -125t-155.5 -43q-111 0 -182 73t-71 187t71 187t182 73t182 -73t71 -187q0 -14 -2 -40h-365q18 -101 118 -101q69 0 90 49h147z" />
    <glyph glyph-name="ecircumflex" unicode="&#xea;" horiz-adv-x="566" 
d="M346 600l-63 74l-62 -74h-113l98 150h155l97 -150h-112zM283 391q-95 0 -113 -96h226q-18 96 -113 96zM524 158q-23 -82 -85.5 -125t-155.5 -43q-111 0 -182 73t-71 187t71 187t182 73t182 -73t71 -187q0 -14 -2 -40h-365q18 -101 118 -101q69 0 90 49h147z" />
    <glyph glyph-name="edieresis" unicode="&#xeb;" horiz-adv-x="566" 
d="M385 605q-28 0 -48.5 20.5t-20.5 49.5t20.5 49.5t48.5 20.5q30 0 50 -20.5t20 -49.5t-20 -49.5t-50 -20.5zM181 605q-29 0 -49.5 20.5t-20.5 49.5t20.5 49.5t49.5 20.5t49.5 -20.5t20.5 -49.5t-20.5 -49.5t-49.5 -20.5zM283 391q-95 0 -113 -96h226q-18 96 -113 96z
M524 158q-23 -82 -85.5 -125t-155.5 -43q-111 0 -182 73t-71 187t71 187t182 73t182 -73t71 -187q0 -14 -2 -40h-365q18 -101 118 -101q69 0 90 49h147z" />
    <glyph glyph-name="igrave" unicode="&#xec;" horiz-adv-x="265" 
d="M80 600l-93 150h150l58 -150h-115zM205 0h-145v500h145v-500z" />
    <glyph glyph-name="iacute" unicode="&#xed;" horiz-adv-x="265" 
d="M195 600h-115l57 150h150zM205 0h-145v500h145v-500z" />
    <glyph glyph-name="icircumflex" unicode="&#xee;" horiz-adv-x="265" 
d="M195 600l-63 74l-62 -74h-113l98 150h155l97 -150h-112zM205 0h-145v500h145v-500z" />
    <glyph glyph-name="idieresis" unicode="&#xef;" horiz-adv-x="265" 
d="M234 605q-28 0 -48.5 20.5t-20.5 49.5t20.5 49.5t48.5 20.5q30 0 50 -20.5t20 -49.5t-20 -49.5t-50 -20.5zM30 605q-28 0 -49 20.5t-21 49.5t20.5 49.5t49.5 20.5t49.5 -20.5t20.5 -49.5t-20.5 -49.5t-49.5 -20.5zM205 0h-145v500h145v-500z" />
    <glyph glyph-name="eth" unicode="&#xf0;" horiz-adv-x="575" 
d="M278 -10q-108 0 -178 67.5t-70 172.5q0 106 65 173t172 67q72 0 121 -44q-10 88 -49 138l-61 -55h-123l117 105q-34 14 -83 14q-27 0 -61 -6v124q44 7 77 7q97 0 171 -45l47 42h122l-105 -95q100 -111 100 -323q0 -178 -72 -260t-190 -82zM278 115q48 0 79 32t31 83
t-31 83t-79 32t-79 -32t-31 -83t31 -83t79 -32z" />
    <glyph glyph-name="ntilde" unicode="&#xf1;" horiz-adv-x="585" 
d="M123 600v48q0 102 88 102q34 0 81 -25.5t62 -25.5q29 0 29 34v17h85v-47q0 -103 -89 -103q-34 0 -80.5 25.5t-61.5 25.5q-29 0 -29 -34v-17h-85zM205 276v-276h-145v500h143v-71q47 81 145 81q81 0 131.5 -52t50.5 -149v-309h-145v276q0 56 -23.5 85t-66.5 29t-66.5 -29
t-23.5 -85z" />
    <glyph glyph-name="ograve" unicode="&#xf2;" horiz-adv-x="580" 
d="M238 600l-93 150h150l58 -150h-115zM290 -10q-113 0 -186.5 72.5t-73.5 187.5t73.5 187.5t186.5 72.5t186.5 -72.5t73.5 -187.5t-73.5 -187.5t-186.5 -72.5zM290 119q52 0 85.5 36.5t33.5 94.5q0 59 -33.5 95t-85.5 36t-85.5 -36t-33.5 -95q0 -58 33.5 -94.5t85.5 -36.5z
" />
    <glyph glyph-name="oacute" unicode="&#xf3;" horiz-adv-x="580" 
d="M353 600h-115l57 150h150zM290 -10q-113 0 -186.5 72.5t-73.5 187.5t73.5 187.5t186.5 72.5t186.5 -72.5t73.5 -187.5t-73.5 -187.5t-186.5 -72.5zM290 119q52 0 85.5 36.5t33.5 94.5q0 59 -33.5 95t-85.5 36t-85.5 -36t-33.5 -95q0 -58 33.5 -94.5t85.5 -36.5z" />
    <glyph glyph-name="ocircumflex" unicode="&#xf4;" horiz-adv-x="580" 
d="M353 600l-63 74l-62 -74h-113l98 150h155l97 -150h-112zM290 -10q-113 0 -186.5 72.5t-73.5 187.5t73.5 187.5t186.5 72.5t186.5 -72.5t73.5 -187.5t-73.5 -187.5t-186.5 -72.5zM290 119q52 0 85.5 36.5t33.5 94.5q0 59 -33.5 95t-85.5 36t-85.5 -36t-33.5 -95
q0 -58 33.5 -94.5t85.5 -36.5z" />
    <glyph glyph-name="otilde" unicode="&#xf5;" horiz-adv-x="580" 
d="M118 600v48q0 102 88 102q34 0 81 -25.5t62 -25.5q29 0 29 34v17h85v-47q0 -103 -89 -103q-34 0 -80.5 25.5t-61.5 25.5q-29 0 -29 -34v-17h-85zM290 -10q-113 0 -186.5 72.5t-73.5 187.5t73.5 187.5t186.5 72.5t186.5 -72.5t73.5 -187.5t-73.5 -187.5t-186.5 -72.5z
M290 119q52 0 85.5 36.5t33.5 94.5q0 59 -33.5 95t-85.5 36t-85.5 -36t-33.5 -95q0 -58 33.5 -94.5t85.5 -36.5z" />
    <glyph glyph-name="odieresis" unicode="&#xf6;" horiz-adv-x="580" 
d="M392 605q-28 0 -48.5 20.5t-20.5 49.5t20.5 49.5t48.5 20.5q30 0 50 -20.5t20 -49.5t-20 -49.5t-50 -20.5zM188 605q-28 0 -49 20.5t-21 49.5t20.5 49.5t49.5 20.5t49.5 -20.5t20.5 -49.5t-20.5 -49.5t-49.5 -20.5zM290 -10q-113 0 -186.5 72.5t-73.5 187.5t73.5 187.5
t186.5 72.5t186.5 -72.5t73.5 -187.5t-73.5 -187.5t-186.5 -72.5zM290 119q52 0 85.5 36.5t33.5 94.5q0 59 -33.5 95t-85.5 36t-85.5 -36t-33.5 -95q0 -58 33.5 -94.5t85.5 -36.5z" />
    <glyph glyph-name="divide" unicode="&#xf7;" 
d="M213 463q0 25 19 44t43 19q27 0 45 -18.5t18 -44.5t-18 -43.5t-45 -17.5q-25 0 -43.5 17.5t-18.5 43.5zM75 258v90h400v-90h-400zM213 142q0 25 19 44t43 19q27 0 45 -18.5t18 -44.5t-18 -43.5t-45 -17.5q-25 0 -43.5 17.5t-18.5 43.5z" />
    <glyph glyph-name="oslash" unicode="&#xf8;" horiz-adv-x="580" 
d="M290 -10q-71 0 -126 29l-16 -19h-118l61 76q-61 72 -61 174q0 115 73.5 187.5t186.5 72.5q69 0 127 -30l16 20h117l-61 -76q61 -72 61 -174q0 -115 -73.5 -187.5t-186.5 -72.5zM166 250q0 -34 13 -65l156 193q-22 8 -45 8q-54 0 -89 -37.5t-35 -98.5zM290 114q54 0 89 38
t35 98q0 34 -13 65l-155 -193q21 -8 44 -8z" />
    <glyph glyph-name="ugrave" unicode="&#xf9;" horiz-adv-x="580" 
d="M234 600l-93 150h150l58 -150h-115zM378 0v71q-47 -81 -143 -81q-80 0 -130 52t-50 149v309h145v-276q0 -56 23 -85t65 -29t64.5 29t22.5 85v276h145v-500h-142z" />
    <glyph glyph-name="uacute" unicode="&#xfa;" horiz-adv-x="580" 
d="M349 600h-115l57 150h150zM378 0v71q-47 -81 -143 -81q-80 0 -130 52t-50 149v309h145v-276q0 -56 23 -85t65 -29t64.5 29t22.5 85v276h145v-500h-142z" />
    <glyph glyph-name="ucircumflex" unicode="&#xfb;" horiz-adv-x="580" 
d="M349 600l-63 74l-62 -74h-113l98 150h155l97 -150h-112zM378 0v71q-47 -81 -143 -81q-80 0 -130 52t-50 149v309h145v-276q0 -56 23 -85t65 -29t64.5 29t22.5 85v276h145v-500h-142z" />
    <glyph glyph-name="udieresis" unicode="&#xfc;" horiz-adv-x="580" 
d="M388 605q-28 0 -48.5 20.5t-20.5 49.5t20.5 49.5t48.5 20.5q30 0 50 -20.5t20 -49.5t-20 -49.5t-50 -20.5zM184 605q-28 0 -49 20.5t-21 49.5t20.5 49.5t49.5 20.5t49.5 -20.5t20.5 -49.5t-20.5 -49.5t-49.5 -20.5zM378 0v71q-47 -81 -143 -81q-80 0 -130 52t-50 149v309
h145v-276q0 -56 23 -85t65 -29t64.5 29t22.5 85v276h145v-500h-142z" />
    <glyph glyph-name="yacute" unicode="&#xfd;" horiz-adv-x="501" 
d="M321 600h-115l57 150h150zM92 -260q-46 0 -85 11v116q42 -10 70 -10q71 0 109 62l-182 581h143l102 -391l106 391h142l-162 -522q-34 -119 -89.5 -178.5t-153.5 -59.5z" />
    <glyph glyph-name="thorn" unicode="&#xfe;" horiz-adv-x="615" 
d="M324 119q52 0 85.5 36.5t33.5 94.5q0 59 -33.5 95t-85.5 36t-85.5 -36t-33.5 -95q0 -58 33.5 -94.5t85.5 -36.5zM353 -10q-89 0 -148 70v-310h-145v1000h145v-310q59 70 148 70q102 0 167 -72t65 -188t-65 -188t-167 -72z" />
    <glyph glyph-name="ydieresis" unicode="&#xff;" horiz-adv-x="501" 
d="M360 605q-28 0 -48.5 20.5t-20.5 49.5t20.5 49.5t48.5 20.5q30 0 50 -20.5t20 -49.5t-20 -49.5t-50 -20.5zM156 605q-28 0 -49 20.5t-21 49.5t20.5 49.5t49.5 20.5t49.5 -20.5t20.5 -49.5t-20.5 -49.5t-49.5 -20.5zM92 -260q-46 0 -85 11v116q42 -10 70 -10q71 0 109 62
l-182 581h143l102 -391l106 391h142l-162 -522q-34 -119 -89.5 -178.5t-153.5 -59.5z" />
    <glyph glyph-name="Amacron" unicode="&#x100;" horiz-adv-x="510" 
d="M401 920v-92h-285v92h285zM314 278l-59 362l-59 -362h118zM360 0l-25 153h-160l-25 -153h-142l136 750h222l137 -750h-143z" />
    <glyph glyph-name="amacron" unicode="&#x101;" 
d="M425 700v-92h-285v92h285zM244 97q48 0 80 27t32 75v26q-24 -11 -73 -20.5t-75.5 -21.5t-26.5 -38q0 -23 17.5 -35.5t45.5 -12.5zM359 0v76q-45 -86 -159 -86q-68 0 -116 36.5t-48 106.5q0 50 23.5 82.5t59 45.5t76.5 22t76.5 13t59 16.5t23.5 35.5q0 26 -22 41t-57 15
q-38 0 -59.5 -20t-21.5 -56h-143q0 92 66 137t162 45q95 0 157.5 -41t62.5 -125v-344h-140z" />
    <glyph glyph-name="Abreve" unicode="&#x102;" horiz-adv-x="510" 
d="M312 970h103q0 -71 -43 -111.5t-117 -40.5q-73 0 -115.5 40t-42.5 112h102q0 -30 16 -45t40 -15q57 0 57 60zM314 278l-59 362l-59 -362h118zM360 0l-25 153h-160l-25 -153h-142l136 750h222l137 -750h-143z" />
    <glyph glyph-name="abreve" unicode="&#x103;" 
d="M336 750h103q0 -71 -43 -111.5t-117 -40.5q-73 0 -115.5 40t-42.5 112h102q0 -30 16 -45t40 -15q57 0 57 60zM244 97q48 0 80 27t32 75v26q-24 -11 -73 -20.5t-75.5 -21.5t-26.5 -38q0 -23 17.5 -35.5t45.5 -12.5zM359 0v76q-45 -86 -159 -86q-68 0 -116 36.5t-48 106.5
q0 50 23.5 82.5t59 45.5t76.5 22t76.5 13t59 16.5t23.5 35.5q0 26 -22 41t-57 15q-38 0 -59.5 -20t-21.5 -56h-143q0 92 66 137t162 45q95 0 157.5 -41t62.5 -125v-344h-140z" />
    <glyph glyph-name="Aogonek" unicode="&#x104;" horiz-adv-x="510" 
d="M314 278l-59 362l-59 -362h118zM373 0h-13l-25 153h-160l-25 -153h-142l136 750h222l137 -750h-55q-76 -106 -76 -151q0 -32 33 -32q30 0 35 32h91q0 -46 -35 -74.5t-93 -28.5q-55 0 -88 24.5t-33 66.5q0 14 4 28.5t9 25t16.5 28t17.5 25.5t22.5 28.5t21.5 27.5z" />
    <glyph glyph-name="aogonek" unicode="&#x105;" 
d="M244 97q48 0 80 27t32 75v26q-24 -11 -73 -20.5t-75.5 -21.5t-26.5 -38q0 -23 17.5 -35.5t45.5 -12.5zM366 0h-7v76q-45 -86 -159 -86q-68 0 -116 36.5t-48 106.5q0 50 23.5 82.5t59 45.5t76.5 22t76.5 13t59 16.5t23.5 35.5q0 26 -22 41t-57 15q-38 0 -59.5 -20
t-21.5 -56h-143q0 92 66 137t162 45q95 0 157.5 -41t62.5 -125v-344h-58q-76 -108 -76 -151q0 -32 33 -32q30 0 35 32h91q0 -47 -35 -75t-93 -28q-55 0 -88 24.5t-33 66.5q0 16 4.5 31.5t16 34.5t18.5 29.5t26.5 35t25.5 32.5z" />
    <glyph glyph-name="Cacute" unicode="&#x106;" horiz-adv-x="570" 
d="M348 820h-115l57 150h150zM375 305h145v-57q0 -128 -62 -194.5t-173 -66.5q-112 0 -173.5 66.5t-61.5 194.5v255q0 128 61.5 194t173.5 66t173.5 -66t61.5 -194v-48h-145v50q0 70 -23 100t-67 30t-67 -30t-23 -100v-260q0 -70 23 -100t67 -30t67 30t23 100v60z" />
    <glyph glyph-name="cacute" unicode="&#x107;" horiz-adv-x="572" 
d="M349 600h-115l57 150h150zM539 309h-148q-9 35 -37.5 53.5t-66.5 18.5q-51 0 -83 -36t-32 -95t32 -95t83 -36q39 0 68 21.5t38 61.5h148q-10 -96 -80 -154t-175 -58q-111 0 -183.5 73t-72.5 187t72.5 187t183.5 73q102 0 170.5 -55t82.5 -146z" />
    <glyph glyph-name="Ccircumflex" unicode="&#x108;" horiz-adv-x="570" 
d="M347 820l-63 74l-62 -74h-113l98 150h155l97 -150h-112zM375 305h145v-57q0 -128 -62 -194.5t-173 -66.5q-112 0 -173.5 66.5t-61.5 194.5v255q0 128 61.5 194t173.5 66t173.5 -66t61.5 -194v-48h-145v50q0 70 -23 100t-67 30t-67 -30t-23 -100v-260q0 -70 23 -100
t67 -30t67 30t23 100v60z" />
    <glyph glyph-name="ccircumflex" unicode="&#x109;" horiz-adv-x="572" 
d="M349 600l-63 74l-62 -74h-113l98 150h155l97 -150h-112zM539 309h-148q-9 35 -37.5 53.5t-66.5 18.5q-51 0 -83 -36t-32 -95t32 -95t83 -36q39 0 68 21.5t38 61.5h148q-10 -96 -80 -154t-175 -58q-111 0 -183.5 73t-72.5 187t72.5 187t183.5 73q102 0 170.5 -55
t82.5 -146z" />
    <glyph glyph-name="Cdotaccent" unicode="&#x10a;" horiz-adv-x="570" 
d="M285 818q-33 0 -55 22.5t-22 54.5q0 34 22 56t55 22q34 0 56 -22t22 -56q0 -33 -22.5 -55t-55.5 -22zM375 305h145v-57q0 -128 -62 -194.5t-173 -66.5q-112 0 -173.5 66.5t-61.5 194.5v255q0 128 61.5 194t173.5 66t173.5 -66t61.5 -194v-48h-145v50q0 70 -23 100t-67 30
t-67 -30t-23 -100v-260q0 -70 23 -100t67 -30t67 30t23 100v60z" />
    <glyph glyph-name="cdotaccent" unicode="&#x10b;" horiz-adv-x="572" 
d="M286 598q-33 0 -55 22.5t-22 54.5q0 34 22 56t55 22q34 0 56 -22t22 -56q0 -33 -22 -55t-56 -22zM539 309h-148q-9 35 -37.5 53.5t-66.5 18.5q-51 0 -83 -36t-32 -95t32 -95t83 -36q39 0 68 21.5t38 61.5h148q-10 -96 -80 -154t-175 -58q-111 0 -183.5 73t-72.5 187
t72.5 187t183.5 73q102 0 170.5 -55t82.5 -146z" />
    <glyph glyph-name="Ccaron" unicode="&#x10c;" horiz-adv-x="570" 
d="M207 820l-98 150h113l62 -74l63 74h112l-97 -150h-155zM375 305h145v-57q0 -128 -62 -194.5t-173 -66.5q-112 0 -173.5 66.5t-61.5 194.5v255q0 128 61.5 194t173.5 66t173.5 -66t61.5 -194v-48h-145v50q0 70 -23 100t-67 30t-67 -30t-23 -100v-260q0 -70 23 -100t67 -30
t67 30t23 100v60z" />
    <glyph glyph-name="ccaron" unicode="&#x10d;" horiz-adv-x="572" 
d="M209 600l-98 150h113l62 -74l63 74h112l-97 -150h-155zM539 309h-148q-9 35 -37.5 53.5t-66.5 18.5q-51 0 -83 -36t-32 -95t32 -95t83 -36q39 0 68 21.5t38 61.5h148q-10 -96 -80 -154t-175 -58q-111 0 -183.5 73t-72.5 187t72.5 187t183.5 73q102 0 170.5 -55t82.5 -146
z" />
    <glyph glyph-name="Dcaron" unicode="&#x10e;" horiz-adv-x="570" 
d="M199 820l-98 150h113l62 -74l63 74h112l-97 -150h-155zM285 750q111 0 173 -64t62 -188v-245q0 -125 -61.5 -189t-173.5 -64h-225v750h225zM285 128q44 0 67 28t23 94v250q0 66 -23 94.5t-67 28.5h-80v-495h80z" />
    <glyph glyph-name="dcaron" unicode="&#x10f;" horiz-adv-x="615" 
d="M624 750h127l-48 -190h-79v190zM291 381q-52 0 -85 -36t-33 -95t33 -95t85 -36t85.5 36t33.5 95t-33.5 95t-85.5 36zM413 0v64q-58 -74 -150 -74q-103 0 -168 72t-65 188t65 188t168 72q88 0 147 -70v310h145v-750h-142z" />
    <glyph glyph-name="Dcroat" unicode="&#x110;" horiz-adv-x="570" 
d="M285 0h-225v338h-60v92h60v320h225q111 0 173 -64t62 -188v-245q0 -125 -61.5 -189t-173.5 -64zM205 128h80q44 0 67 28t23 94v250q0 66 -23 94.5t-67 28.5h-80v-193h86v-92h-86v-210z" />
    <glyph glyph-name="dcroat" unicode="&#x111;" horiz-adv-x="615" 
d="M291 381q-52 0 -85 -36t-33 -95q0 -58 33.5 -94.5t84.5 -36.5q52 0 85.5 36.5t33.5 94.5q0 59 -33.5 95t-85.5 36zM413 0v64q-58 -74 -150 -74q-103 0 -168 72t-65 188t65 188t168 72q88 0 147 -70v151h-124v80h124v79h145v-79h60v-80h-60v-591h-142z" />
    <glyph glyph-name="Emacron" unicode="&#x112;" horiz-adv-x="454" 
d="M389 920v-92h-285v92h285zM60 0v750h359v-127h-215v-175h195v-128h-195v-192h215v-128h-359z" />
    <glyph glyph-name="emacron" unicode="&#x113;" horiz-adv-x="566" 
d="M429 700v-92h-285v92h285zM283 391q-95 0 -113 -96h226q-18 96 -113 96zM524 158q-23 -82 -85.5 -125t-155.5 -43q-111 0 -182 73t-71 187t71 187t182 73t182 -73t71 -187q0 -14 -2 -40h-365q18 -101 118 -101q69 0 90 49h147z" />
    <glyph glyph-name="Ebreve" unicode="&#x114;" horiz-adv-x="454" 
d="M300 970h103q0 -71 -43 -111.5t-117 -40.5q-73 0 -115.5 40t-42.5 112h102q0 -30 16 -45t40 -15q57 0 57 60zM60 0v750h359v-127h-215v-175h195v-128h-195v-192h215v-128h-359z" />
    <glyph glyph-name="ebreve" unicode="&#x115;" horiz-adv-x="566" 
d="M340 750h103q0 -71 -43 -111.5t-117 -40.5q-73 0 -115.5 40t-42.5 112h102q0 -30 16 -45t40 -15q57 0 57 60zM283 391q-95 0 -113 -96h226q-18 96 -113 96zM524 158q-23 -82 -85.5 -125t-155.5 -43q-111 0 -182 73t-71 187t71 187t182 73t182 -73t71 -187q0 -14 -2 -40
h-365q18 -101 118 -101q69 0 90 49h147z" />
    <glyph glyph-name="Edotaccent" unicode="&#x116;" horiz-adv-x="454" 
d="M243 818q-33 0 -55 22.5t-22 54.5q0 34 22 56t55 22q34 0 56 -22t22 -56q0 -33 -22.5 -55t-55.5 -22zM60 0v750h359v-127h-215v-175h195v-128h-195v-192h215v-128h-359z" />
    <glyph glyph-name="edotaccent" unicode="&#x117;" horiz-adv-x="566" 
d="M283 598q-33 0 -55 22.5t-22 54.5q0 34 22 56t55 22q34 0 56 -22t22 -56q0 -33 -22.5 -55t-55.5 -22zM283 391q-95 0 -113 -96h226q-18 96 -113 96zM524 158q-23 -82 -85.5 -125t-155.5 -43q-111 0 -182 73t-71 187t71 187t182 73t182 -73t71 -187q0 -14 -2 -40h-365
q18 -101 118 -101q69 0 90 49h147z" />
    <glyph glyph-name="Eogonek" unicode="&#x118;" horiz-adv-x="454" 
d="M60 0v750h359v-127h-215v-175h195v-128h-195v-192h215v-128h-359zM291 -254q-55 0 -88 24.5t-33 66.5q0 16 4.5 31.5t16 34.5t18.5 29.5t26.5 35t25.5 32.5h75q-76 -106 -76 -151q0 -32 33 -32q30 0 35 32h91q0 -47 -35 -75t-93 -28z" />
    <glyph glyph-name="eogonek" unicode="&#x119;" horiz-adv-x="566" 
d="M283 391q-95 0 -113 -96h226q-18 96 -113 96zM522 -151q-1 -42 -33.5 -70.5t-83.5 -28.5q-53 0 -85 25.5t-32 67.5q0 15 4 31t8.5 26.5t16 27.5t16.5 24.5t21 27t20 24.5q-44 -14 -91 -14q-111 0 -182 73t-71 187t71 187t182 73t182 -73t71 -187q0 -14 -2 -40h-365
q18 -101 118 -101q69 0 90 49h147q-11 -48 -50.5 -110.5t-73 -113.5t-33.5 -80q0 -37 38 -37q14 0 24.5 9t12.5 23h80z" />
    <glyph glyph-name="Ecaron" unicode="&#x11a;" horiz-adv-x="454" 
d="M165 820l-98 150h113l62 -74l63 74h112l-97 -150h-155zM60 0v750h359v-127h-215v-175h195v-128h-195v-192h215v-128h-359z" />
    <glyph glyph-name="ecaron" unicode="&#x11b;" horiz-adv-x="566" 
d="M206 600l-98 150h113l62 -74l63 74h112l-97 -150h-155zM283 391q-95 0 -113 -96h226q-18 96 -113 96zM524 158q-23 -82 -85.5 -125t-155.5 -43q-111 0 -182 73t-71 187t71 187t182 73t182 -73t71 -187q0 -14 -2 -40h-365q18 -101 118 -101q69 0 90 49h147z" />
    <glyph glyph-name="Gcircumflex" unicode="&#x11c;" horiz-adv-x="575" 
d="M347 820l-63 74l-62 -74h-113l98 150h155l97 -150h-112zM404 0v78q-45 -91 -149 -91q-97 0 -151 66.5t-54 194.5v255q0 128 61.5 194t173.5 66t173.5 -66t61.5 -194v-34h-145v36q0 70 -23 100t-67 30t-67 -30t-23 -100v-260q0 -70 23 -100t67 -30q90 0 90 123v40h-102
v122h247v-400h-116z" />
    <glyph glyph-name="gcircumflex" unicode="&#x11d;" horiz-adv-x="540" 
d="M323 600l-63 74l-62 -74h-113l98 150h155l97 -150h-112zM260 253q33 0 54.5 20.5t21.5 53.5q0 34 -21 54.5t-55 20.5t-55 -20.5t-21 -54.5q0 -33 21.5 -53.5t54.5 -20.5zM529 -95q0 -75 -60 -120t-180 -45h-35q-115 0 -174 37t-59 98q0 65 76 100q-66 35 -66 102
q0 40 24 69.5t68 43.5q-67 52 -67 137q0 79 59 131t145 52q90 0 149 -56l20 30q10 15 20 20.5t30 5.5h51v-131h-74q8 -26 8 -52q0 -80 -59.5 -131.5t-144.5 -51.5q-42 0 -81 14q-15 -4 -24.5 -15t-9.5 -27q0 -46 63 -46h108q213 0 213 -165zM267 -150h19q114 0 114 56
q0 49 -99 49h-52q-100 0 -100 -49q0 -56 118 -56z" />
    <glyph glyph-name="Gbreve" unicode="&#x11e;" horiz-adv-x="575" 
d="M342 970h103q0 -71 -43 -111.5t-117 -40.5q-73 0 -115.5 40t-42.5 112h102q0 -30 16 -45t40 -15q57 0 57 60zM404 0v78q-45 -91 -149 -91q-97 0 -151 66.5t-54 194.5v255q0 128 61.5 194t173.5 66t173.5 -66t61.5 -194v-34h-145v36q0 70 -23 100t-67 30t-67 -30t-23 -100
v-260q0 -70 23 -100t67 -30q90 0 90 123v40h-102v122h247v-400h-116z" />
    <glyph glyph-name="gbreve" unicode="&#x11f;" horiz-adv-x="540" 
d="M317 750h103q0 -71 -43 -111.5t-117 -40.5q-73 0 -115.5 40t-42.5 112h102q0 -30 16 -45t40 -15q57 0 57 60zM260 253q33 0 54.5 20.5t21.5 53.5q0 34 -21 54.5t-55 20.5t-55 -20.5t-21 -54.5q0 -33 21.5 -53.5t54.5 -20.5zM529 -95q0 -75 -60 -120t-180 -45h-35
q-115 0 -174 37t-59 98q0 65 76 100q-66 35 -66 102q0 40 24 69.5t68 43.5q-67 52 -67 137q0 79 59 131t145 52q90 0 149 -56l20 30q10 15 20 20.5t30 5.5h51v-131h-74q8 -26 8 -52q0 -80 -59.5 -131.5t-144.5 -51.5q-42 0 -81 14q-15 -4 -24.5 -15t-9.5 -27q0 -46 63 -46
h108q213 0 213 -165zM267 -150h19q114 0 114 56q0 49 -99 49h-52q-100 0 -100 -49q0 -56 118 -56z" />
    <glyph glyph-name="Gdotaccent" unicode="&#x120;" horiz-adv-x="575" 
d="M285 818q-33 0 -55 22.5t-22 54.5q0 34 22 56t55 22q34 0 56 -22t22 -56q0 -33 -22.5 -55t-55.5 -22zM404 0v78q-45 -91 -149 -91q-97 0 -151 66.5t-54 194.5v255q0 128 61.5 194t173.5 66t173.5 -66t61.5 -194v-34h-145v36q0 70 -23 100t-67 30t-67 -30t-23 -100v-260
q0 -70 23 -100t67 -30q90 0 90 123v40h-102v122h247v-400h-116z" />
    <glyph glyph-name="gdotaccent" unicode="&#x121;" horiz-adv-x="540" 
d="M260 598q-33 0 -55 22.5t-22 54.5q0 34 22 56t55 22q34 0 56 -22t22 -56q0 -33 -22 -55t-56 -22zM260 253q33 0 54.5 20.5t21.5 53.5q0 34 -21 54.5t-55 20.5t-55 -20.5t-21 -54.5q0 -33 21.5 -53.5t54.5 -20.5zM529 -95q0 -75 -60 -120t-180 -45h-35q-115 0 -174 37
t-59 98q0 65 76 100q-66 35 -66 102q0 40 24 69.5t68 43.5q-67 52 -67 137q0 79 59 131t145 52q90 0 149 -56l20 30q10 15 20 20.5t30 5.5h51v-131h-74q8 -26 8 -52q0 -80 -59.5 -131.5t-144.5 -51.5q-42 0 -81 14q-15 -4 -24.5 -15t-9.5 -27q0 -46 63 -46h108
q213 0 213 -165zM267 -150h19q114 0 114 56q0 49 -99 49h-52q-100 0 -100 -49q0 -56 118 -56z" />
    <glyph glyph-name="Gcommaaccent" unicode="&#x122;" horiz-adv-x="575" 
d="M404 0v78q-45 -91 -149 -91q-97 0 -151 66.5t-54 194.5v255q0 128 61.5 194t173.5 66t173.5 -66t61.5 -194v-34h-145v36q0 70 -23 100t-67 30t-67 -30t-23 -100v-260q0 -70 23 -100t67 -30q90 0 90 123v40h-102v122h247v-400h-116zM266 -210h-95l25 150h142z" />
    <glyph glyph-name="gcommaaccent" unicode="&#x123;" horiz-adv-x="540" 
d="M269 780h95l-25 -150h-143zM260 253q33 0 54.5 20.5t21.5 53.5q0 34 -21 54.5t-55 20.5t-55 -20.5t-21 -54.5q0 -33 21.5 -53.5t54.5 -20.5zM529 -95q0 -75 -60 -120t-180 -45h-35q-115 0 -174 37t-59 98q0 65 76 100q-66 35 -66 102q0 40 24 69.5t68 43.5
q-67 52 -67 137q0 79 59 131t145 52q90 0 149 -56l20 30q10 15 20 20.5t30 5.5h51v-131h-74q8 -26 8 -52q0 -80 -59.5 -131.5t-144.5 -51.5q-42 0 -81 14q-15 -4 -24.5 -15t-9.5 -27q0 -46 63 -46h108q213 0 213 -165zM267 -150h19q114 0 114 56q0 49 -99 49h-52
q-100 0 -100 -49q0 -56 118 -56z" />
    <glyph glyph-name="Hcircumflex" unicode="&#x124;" horiz-adv-x="590" 
d="M357 820l-63 74l-62 -74h-113l98 150h155l97 -150h-112zM385 0v321h-180v-321h-145v750h145v-301h180v301h145v-750h-145z" />
    <glyph glyph-name="hcircumflex" unicode="&#x125;" horiz-adv-x="585" 
d="M357 820l-63 74l-62 -74h-113l98 150h155l97 -150h-112zM205 276v-276h-145v750h145v-317q49 77 143 77q81 0 131.5 -52t50.5 -149v-309h-145v276q0 56 -23.5 85t-66.5 29t-66.5 -29t-23.5 -85z" />
    <glyph glyph-name="Hbar" unicode="&#x126;" horiz-adv-x="590" 
d="M385 449v105h-180v-105h180zM385 0v321h-180v-321h-145v554h-60v92h60v104h145v-104h180v104h145v-104h60v-92h-60v-554h-145z" />
    <glyph glyph-name="hbar" unicode="&#x127;" horiz-adv-x="585" 
d="M205 276v-276h-145v591h-60v80h60v79h145v-79h124v-80h-124v-158q49 77 143 77q81 0 131.5 -52t50.5 -149v-309h-145v276q0 56 -23.5 85t-66.5 29t-66.5 -29t-23.5 -85z" />
    <glyph glyph-name="Itilde" unicode="&#x128;" horiz-adv-x="265" 
d="M-40 820v48q0 102 88 102q34 0 81 -25.5t62 -25.5q29 0 29 34v17h85v-47q0 -103 -89 -103q-34 0 -80.5 25.5t-61.5 25.5q-29 0 -29 -34v-17h-85zM205 0h-145v750h145v-750z" />
    <glyph glyph-name="itilde" unicode="&#x129;" horiz-adv-x="265" 
d="M-40 600v48q0 102 88 102q34 0 81 -25.5t62 -25.5q29 0 29 34v17h85v-47q0 -103 -89 -103q-34 0 -80.5 25.5t-61.5 25.5q-29 0 -29 -34v-17h-85zM205 0h-145v500h145v-500z" />
    <glyph glyph-name="Imacron" unicode="&#x12a;" horiz-adv-x="265" 
d="M278 920v-92h-285v92h285zM205 0h-145v750h145v-750z" />
    <glyph glyph-name="imacron" unicode="&#x12b;" horiz-adv-x="265" 
d="M278 700v-92h-285v92h285zM205 0h-145v500h145v-500z" />
    <glyph glyph-name="Ibreve" unicode="&#x12c;" horiz-adv-x="265" 
d="M189 970h103q0 -71 -43 -111.5t-117 -40.5q-73 0 -115.5 40t-42.5 112h102q0 -30 16 -45t40 -15q57 0 57 60zM205 0h-145v750h145v-750z" />
    <glyph glyph-name="ibreve" unicode="&#x12d;" horiz-adv-x="265" 
d="M189 750h103q0 -71 -43 -111.5t-117 -40.5q-73 0 -115.5 40t-42.5 112h102q0 -30 16 -45t40 -15q57 0 57 60zM205 0h-145v500h145v-500z" />
    <glyph glyph-name="Iogonek" unicode="&#x12e;" horiz-adv-x="265" 
d="M99 0h-39v750h145v-750h-31q-76 -106 -76 -151q0 -32 33 -32q30 0 35 32h91q0 -47 -35 -75t-93 -28q-55 0 -88 24.5t-33 66.5q0 16 4.5 31.5t16 34.5t18.5 29.5t26.5 35t25.5 32.5z" />
    <glyph glyph-name="iogonek" unicode="&#x12f;" horiz-adv-x="265" 
d="M133 587q-37 0 -62 24.5t-25 59.5q0 36 25 60t62 24t61.5 -24t24.5 -60t-24.5 -60t-61.5 -24zM99 0h-39v500h145v-500h-31q-76 -106 -76 -151q0 -32 33 -32q30 0 35 32h91q0 -47 -35 -75t-93 -28q-55 0 -88 24.5t-33 66.5q0 16 4.5 31.5t16 34.5t18.5 29.5t26.5 35
t25.5 32.5z" />
    <glyph glyph-name="Idotaccent" unicode="&#x130;" horiz-adv-x="265" 
d="M132 818q-33 0 -55 22.5t-22 54.5q0 34 22 56t55 22q34 0 56 -22t22 -56q0 -33 -22 -55t-56 -22zM205 0h-145v750h145v-750z" />
    <glyph glyph-name="dotlessi" unicode="&#x131;" horiz-adv-x="265" 
d="M205 0h-145v500h145v-500z" />
    <glyph glyph-name="IJ" unicode="&#x132;" horiz-adv-x="788" 
d="M205 0h-145v750h145v-750zM591 750h145v-542q0 -107 -60 -164t-158 -57q-97 0 -157.5 57t-60.5 164v79h145v-74q0 -98 73 -98q36 0 54.5 22t18.5 76v537z" />
    <glyph glyph-name="ij" unicode="&#x133;" horiz-adv-x="530" 
d="M398 587q-37 0 -62 24.5t-25 59.5q0 36 25 60t62 24t61.5 -24t24.5 -60t-24.5 -60t-61.5 -24zM133 587q-37 0 -62 24.5t-25 59.5q0 36 25 60t62 24t61.5 -24t24.5 -60t-24.5 -60t-61.5 -24zM205 0h-145v500h145v-500zM325 -66v566h145v-571q0 -182 -184 -182q-40 0 -64 6
v120q18 -3 38 -3q33 0 49 14t16 50z" />
    <glyph glyph-name="Jcircumflex" unicode="&#x134;" horiz-adv-x="523" 
d="M460 820l-63 74l-62 -74h-113l98 150h155l97 -150h-112zM326 750h145v-542q0 -107 -60 -164t-158 -57q-97 0 -157.5 57t-60.5 164v79h145v-74q0 -98 73 -98q36 0 54.5 22t18.5 76v537z" />
    <glyph glyph-name="jcircumflex" unicode="&#x135;" horiz-adv-x="265" 
d="M195 600l-63 74l-62 -74h-113l98 150h155l97 -150h-112zM60 -66v566h145v-571q0 -182 -184 -182q-40 0 -64 6v120q18 -3 38 -3q33 0 49 14t16 50z" />
    <glyph glyph-name="Kcommaaccent" unicode="&#x136;" horiz-adv-x="523" 
d="M358 0l-154 362v-362h-144v750h144v-360l156 360h154l-172 -354l181 -396h-165zM261 -210h-95l25 150h142z" />
    <glyph glyph-name="kcommaaccent" unicode="&#x137;" horiz-adv-x="565" 
d="M387 0l-182 262v-262h-145v750h145v-466l165 216h177l-193 -226l204 -274h-171zM282 -210h-95l25 150h142z" />
    <glyph glyph-name="Lacute" unicode="&#x139;" horiz-adv-x="434" 
d="M193 820h-115l57 150h150zM60 0v750h145v-622h219v-128h-364z" />
    <glyph glyph-name="lacute" unicode="&#x13a;" horiz-adv-x="265" 
d="M190 820h-115l57 150h150zM205 0h-145v750h145v-750z" />
    <glyph glyph-name="Lcommaaccent" unicode="&#x13b;" horiz-adv-x="434" 
d="M60 0v750h145v-622h219v-128h-364zM249 -210h-95l25 150h142z" />
    <glyph glyph-name="lcommaaccent" unicode="&#x13c;" horiz-adv-x="265" 
d="M205 0h-145v750h145v-750zM131 -210h-95l25 150h142z" />
    <glyph glyph-name="Lcaron" unicode="&#x13d;" horiz-adv-x="434" 
d="M255 750h127l-48 -190h-79v190zM60 0v750h145v-622h219v-128h-364z" />
    <glyph glyph-name="lcaron" unicode="&#x13e;" horiz-adv-x="265" 
d="M262 750h127l-48 -190h-79v190zM205 0h-145v750h145v-750z" />
    <glyph glyph-name="Ldot" unicode="&#x13f;" horiz-adv-x="434" 
d="M350 312q-33 0 -55 22.5t-22 54.5q0 34 22 56t55 22q34 0 56 -22t22 -56q0 -33 -22 -55t-56 -22zM60 0v750h145v-622h219v-128h-364z" />
    <glyph glyph-name="ldot" unicode="&#x140;" horiz-adv-x="265" 
d="M205 0h-145v750h145v-750zM313 304q-33 0 -55 22.5t-22 54.5q0 34 22 56t55 22q34 0 56 -22t22 -56q0 -33 -22.5 -55t-55.5 -22z" />
    <glyph glyph-name="Lslash" unicode="&#x141;" horiz-adv-x="434" 
d="M60 0v265l-63 -37v110l63 37v375h145v-288l95 56v-110l-95 -56v-224h219v-128h-364z" />
    <glyph glyph-name="lslash" unicode="&#x142;" horiz-adv-x="265" 
d="M205 0h-145v276l-63 -37v110l63 37v364h145v-277l63 37v-110l-63 -37v-363z" />
    <glyph glyph-name="Nacute" unicode="&#x143;" horiz-adv-x="590" 
d="M358 820h-115l57 150h150zM308 0l-124 650v-650h-124v750h223l123 -641v641h124v-750h-222z" />
    <glyph glyph-name="nacute" unicode="&#x144;" horiz-adv-x="585" 
d="M358 600h-115l57 150h150zM205 276v-276h-145v500h143v-71q47 81 145 81q81 0 131.5 -52t50.5 -149v-309h-145v276q0 56 -23.5 85t-66.5 29t-66.5 -29t-23.5 -85z" />
    <glyph glyph-name="Ncommaaccent" unicode="&#x145;" horiz-adv-x="590" 
d="M308 0l-124 650v-650h-124v750h223l123 -641v641h124v-750h-222zM294 -210h-95l25 150h142z" />
    <glyph glyph-name="ncommaaccent" unicode="&#x146;" horiz-adv-x="585" 
d="M205 276v-276h-145v500h143v-71q47 81 145 81q81 0 131.5 -52t50.5 -149v-309h-145v276q0 56 -23.5 85t-66.5 29t-66.5 -29t-23.5 -85zM294 -210h-95l25 150h142z" />
    <glyph glyph-name="Ncaron" unicode="&#x147;" horiz-adv-x="590" 
d="M217 820l-98 150h113l62 -74l63 74h112l-97 -150h-155zM308 0l-124 650v-650h-124v750h223l123 -641v641h124v-750h-222z" />
    <glyph glyph-name="ncaron" unicode="&#x148;" horiz-adv-x="585" 
d="M218 600l-98 150h113l62 -74l63 74h112l-97 -150h-155zM205 276v-276h-145v500h143v-71q47 81 145 81q81 0 131.5 -52t50.5 -149v-309h-145v276q0 56 -23.5 85t-66.5 29t-66.5 -29t-23.5 -85z" />
    <glyph glyph-name="Eng" unicode="&#x14a;" horiz-adv-x="590" 
d="M356 -253q-40 0 -66 6v120q18 -3 38 -3q78 0 78 64v66h-98l-124 637v-637h-124v750h223l123 -628v628h124v-821q0 -182 -174 -182z" />
    <glyph glyph-name="eng" unicode="&#x14b;" horiz-adv-x="585" 
d="M346 -253q-39 0 -63 6v120q18 -3 37 -3q33 0 49 14t16 50v342q0 56 -23.5 85t-66.5 29t-66.5 -29t-23.5 -85v-276h-145v500h143v-71q47 81 145 81q81 0 131.5 -52t50.5 -149v-380q0 -182 -184 -182z" />
    <glyph glyph-name="Omacron" unicode="&#x14c;" horiz-adv-x="570" 
d="M431 920v-92h-285v92h285zM285 -13q-112 0 -173.5 66t-61.5 195v255q0 128 61.5 194t173.5 66t173.5 -66t61.5 -194v-255q0 -129 -61.5 -195t-173.5 -66zM285 115q44 0 67 30t23 100v260q0 70 -23 100t-67 30t-67 -30t-23 -100v-260q0 -70 23 -100t67 -30z" />
    <glyph glyph-name="omacron" unicode="&#x14d;" horiz-adv-x="580" 
d="M436 700v-92h-285v92h285zM290 -10q-113 0 -186.5 72.5t-73.5 187.5t73.5 187.5t186.5 72.5t186.5 -72.5t73.5 -187.5t-73.5 -187.5t-186.5 -72.5zM290 119q52 0 85.5 36.5t33.5 94.5q0 59 -33.5 95t-85.5 36t-85.5 -36t-33.5 -95q0 -58 33.5 -94.5t85.5 -36.5z" />
    <glyph glyph-name="Obreve" unicode="&#x14e;" horiz-adv-x="570" 
d="M342 970h103q0 -71 -43 -111.5t-117 -40.5q-73 0 -115.5 40t-42.5 112h102q0 -30 16 -45t40 -15q57 0 57 60zM285 -13q-112 0 -173.5 66t-61.5 195v255q0 128 61.5 194t173.5 66t173.5 -66t61.5 -194v-255q0 -129 -61.5 -195t-173.5 -66zM285 115q44 0 67 30t23 100v260
q0 70 -23 100t-67 30t-67 -30t-23 -100v-260q0 -70 23 -100t67 -30z" />
    <glyph glyph-name="obreve" unicode="&#x14f;" horiz-adv-x="580" 
d="M347 750h103q0 -71 -43 -111.5t-117 -40.5q-73 0 -115.5 40t-42.5 112h102q0 -30 16 -45t40 -15q57 0 57 60zM290 -10q-113 0 -186.5 72.5t-73.5 187.5t73.5 187.5t186.5 72.5t186.5 -72.5t73.5 -187.5t-73.5 -187.5t-186.5 -72.5zM290 119q52 0 85.5 36.5t33.5 94.5
q0 59 -33.5 95t-85.5 36t-85.5 -36t-33.5 -95q0 -58 33.5 -94.5t85.5 -36.5z" />
    <glyph glyph-name="Ohungarumlaut" unicode="&#x150;" horiz-adv-x="570" 
d="M433 820h-93l25 150h138zM243 820h-93l25 150h138zM285 -13q-112 0 -173.5 66t-61.5 195v255q0 128 61.5 194t173.5 66t173.5 -66t61.5 -194v-255q0 -129 -61.5 -195t-173.5 -66zM285 115q44 0 67 30t23 100v260q0 70 -23 100t-67 30t-67 -30t-23 -100v-260
q0 -70 23 -100t67 -30z" />
    <glyph glyph-name="ohungarumlaut" unicode="&#x151;" horiz-adv-x="580" 
d="M438 600h-93l25 150h138zM248 600h-93l25 150h138zM290 -10q-113 0 -186.5 72.5t-73.5 187.5t73.5 187.5t186.5 72.5t186.5 -72.5t73.5 -187.5t-73.5 -187.5t-186.5 -72.5zM290 119q52 0 85.5 36.5t33.5 94.5q0 59 -33.5 95t-85.5 36t-85.5 -36t-33.5 -95
q0 -58 33.5 -94.5t85.5 -36.5z" />
    <glyph glyph-name="OE" unicode="&#x152;" horiz-adv-x="759" 
d="M285 0q-105 0 -170 68t-65 192v230q0 124 65 192t170 68h437v-127h-212v-175h192v-128h-192v-192h212v-128h-437zM285 623q-90 0 -90 -138v-220q0 -137 90 -137h80v495h-80z" />
    <glyph glyph-name="oe" unicode="&#x153;" horiz-adv-x="946" 
d="M661 391q-95 0 -113 -96h226q-18 96 -113 96zM290 120q52 0 85.5 36t33.5 94t-33.5 94t-85.5 36t-85.5 -36t-33.5 -94t33.5 -94t85.5 -36zM904 158q-23 -82 -85.5 -125t-154.5 -43q-119 0 -189 88q-70 -88 -187 -88q-112 0 -185.5 73t-73.5 187t73.5 187t185.5 73
q117 0 187 -88q70 88 189 88q109 0 180.5 -73t71.5 -187q0 -14 -2 -40h-367q18 -101 118 -101q69 0 90 49h149z" />
    <glyph glyph-name="Racute" unicode="&#x154;" 
d="M338 820h-115l57 150h150zM282 625h-78v-201h78q88 0 88 99v13q0 89 -88 89zM204 369v-369h-144v750h238q97 0 156.5 -51t59.5 -144v-29q0 -75 -39 -122t-106 -64l166 -340h-165z" />
    <glyph glyph-name="racute" unicode="&#x155;" horiz-adv-x="403" 
d="M298 600h-115l57 150h150zM205 253v-253h-145v500h140v-87q52 97 161 97q19 0 25 -2v-148q-22 8 -52 8q-62 0 -95.5 -30t-33.5 -85z" />
    <glyph glyph-name="Rcommaaccent" unicode="&#x156;" 
d="M282 625h-78v-201h78q88 0 88 99v13q0 89 -88 89zM204 369v-369h-144v750h238q97 0 156.5 -51t59.5 -144v-29q0 -75 -39 -122t-106 -64l166 -340h-165zM265 -210h-95l25 150h142z" />
    <glyph glyph-name="rcommaaccent" unicode="&#x157;" horiz-adv-x="403" 
d="M205 253v-253h-145v500h140v-87q52 97 161 97q19 0 25 -2v-148q-22 8 -52 8q-62 0 -95.5 -30t-33.5 -85zM131 -210h-95l25 150h142z" />
    <glyph glyph-name="Rcaron" unicode="&#x158;" 
d="M197 820l-98 150h113l62 -74l63 74h112l-97 -150h-155zM282 625h-78v-201h78q88 0 88 99v13q0 89 -88 89zM204 369v-369h-144v750h238q97 0 156.5 -51t59.5 -144v-29q0 -75 -39 -122t-106 -64l166 -340h-165z" />
    <glyph glyph-name="rcaron" unicode="&#x159;" horiz-adv-x="403" 
d="M158 600l-98 150h113l62 -74l63 74h112l-97 -150h-155zM205 253v-253h-145v500h140v-87q52 97 161 97q19 0 25 -2v-148q-22 8 -52 8q-62 0 -95.5 -30t-33.5 -85z" />
    <glyph glyph-name="Sacute" unicode="&#x15a;" horiz-adv-x="485" 
d="M307 820h-115l57 150h150zM41 567q0 99 56.5 147.5t146.5 48.5q89 0 146.5 -51.5t57.5 -148.5v-53h-139v50q0 80 -65 80q-28 0 -45.5 -17t-17.5 -49q0 -34 18 -57t58 -53l86 -63q115 -86 115 -205q0 -100 -60.5 -154.5t-152.5 -54.5q-91 0 -151.5 53.5t-60.5 147.5v62
h140v-55q0 -39 19.5 -62t52.5 -23t52.5 18.5t19.5 50.5q0 37 -19.5 63t-60.5 57l-82 61q-55 40 -84.5 88.5t-29.5 118.5z" />
    <glyph glyph-name="sacute" unicode="&#x15b;" horiz-adv-x="504" 
d="M313 600h-115l57 150h150zM472 148q0 -73 -59.5 -115.5t-152.5 -42.5q-99 0 -163 47t-64 128h140q0 -35 24 -54t62 -19q71 0 71 48q0 23 -21.5 36t-53.5 17.5t-69 14t-69 22.5t-53.5 45.5t-21.5 80.5q0 70 57.5 112t145.5 42q93 0 155.5 -49t62.5 -120h-140q0 29 -22 48
t-55 19q-30 0 -48 -12t-18 -33q0 -20 21.5 -32.5t54 -17t70.5 -14t70.5 -23.5t54 -46.5t21.5 -81.5z" />
    <glyph glyph-name="Scircumflex" unicode="&#x15c;" horiz-adv-x="485" 
d="M306 820l-63 74l-62 -74h-113l98 150h155l97 -150h-112zM41 567q0 99 56.5 147.5t146.5 48.5q89 0 146.5 -51.5t57.5 -148.5v-53h-139v50q0 80 -65 80q-28 0 -45.5 -17t-17.5 -49q0 -34 18 -57t58 -53l86 -63q115 -86 115 -205q0 -100 -60.5 -154.5t-152.5 -54.5
q-91 0 -151.5 53.5t-60.5 147.5v62h140v-55q0 -39 19.5 -62t52.5 -23t52.5 18.5t19.5 50.5q0 37 -19.5 63t-60.5 57l-82 61q-55 40 -84.5 88.5t-29.5 118.5z" />
    <glyph glyph-name="scircumflex" unicode="&#x15d;" horiz-adv-x="504" 
d="M313 600l-63 74l-62 -74h-113l98 150h155l97 -150h-112zM472 148q0 -73 -59.5 -115.5t-152.5 -42.5q-99 0 -163 47t-64 128h140q0 -35 24 -54t62 -19q71 0 71 48q0 23 -21.5 36t-53.5 17.5t-69 14t-69 22.5t-53.5 45.5t-21.5 80.5q0 70 57.5 112t145.5 42q93 0 155.5 -49
t62.5 -120h-140q0 29 -22 48t-55 19q-30 0 -48 -12t-18 -33q0 -20 21.5 -32.5t54 -17t70.5 -14t70.5 -23.5t54 -46.5t21.5 -81.5z" />
    <glyph glyph-name="Scedilla" unicode="&#x15e;" horiz-adv-x="485" 
d="M245 -250q-51 0 -84 25t-33 61h79q5 -23 38 -23q17 0 28.5 11t11.5 28t-11.5 28.5t-28.5 11.5q-27 0 -34 -16h-78l72 114q-77 12 -124.5 63.5t-47.5 134.5v62h140v-55q0 -39 19.5 -62t52.5 -23t52.5 18.5t19.5 50.5q0 37 -19.5 63t-60.5 57l-82 61q-55 40 -84.5 88.5
t-29.5 118.5q0 99 56.5 147.5t146.5 48.5q89 0 146.5 -51.5t57.5 -148.5v-53h-139v50q0 80 -65 80q-28 0 -45.5 -17t-17.5 -49q0 -34 18 -57t58 -53l86 -63q115 -86 115 -205q0 -90 -50 -144t-129 -63l-23 -34q46 0 76 -30t30 -73t-32.5 -72.5t-84.5 -29.5z" />
    <glyph glyph-name="scedilla" unicode="&#x15f;" horiz-adv-x="504" 
d="M260 -250q-51 0 -84 25t-33 61h79q5 -23 38 -23q17 0 28.5 11t11.5 28t-11.5 28.5t-28.5 11.5q-27 0 -34 -16h-78l73 116q-84 9 -136 54.5t-52 118.5h140q0 -35 24 -54t62 -19q71 0 71 48q0 23 -21.5 36t-53.5 17.5t-69 14t-69 22.5t-53.5 45.5t-21.5 80.5q0 70 57.5 112
t145.5 42q93 0 155.5 -49t62.5 -120h-140q0 29 -22 48t-55 19q-30 0 -48 -12t-18 -33q0 -24 30 -36t73 -19t86 -19.5t73 -47.5t30 -93q0 -65 -49 -106.5t-128 -49.5l-24 -37q46 0 76 -30t30 -73t-32.5 -72.5t-84.5 -29.5z" />
    <glyph glyph-name="Scaron" unicode="&#x160;" horiz-adv-x="485" 
d="M166 820l-98 150h113l62 -74l63 74h112l-97 -150h-155zM41 567q0 99 56.5 147.5t146.5 48.5q89 0 146.5 -51.5t57.5 -148.5v-53h-139v50q0 80 -65 80q-28 0 -45.5 -17t-17.5 -49q0 -34 18 -57t58 -53l86 -63q115 -86 115 -205q0 -100 -60.5 -154.5t-152.5 -54.5
q-91 0 -151.5 53.5t-60.5 147.5v62h140v-55q0 -39 19.5 -62t52.5 -23t52.5 18.5t19.5 50.5q0 37 -19.5 63t-60.5 57l-82 61q-55 40 -84.5 88.5t-29.5 118.5z" />
    <glyph glyph-name="scaron" unicode="&#x161;" horiz-adv-x="504" 
d="M173 600l-98 150h113l62 -74l63 74h112l-97 -150h-155zM472 148q0 -73 -59.5 -115.5t-152.5 -42.5q-99 0 -163 47t-64 128h140q0 -35 24 -54t62 -19q71 0 71 48q0 23 -21.5 36t-53.5 17.5t-69 14t-69 22.5t-53.5 45.5t-21.5 80.5q0 70 57.5 112t145.5 42q93 0 155.5 -49
t62.5 -120h-140q0 29 -22 48t-55 19q-30 0 -48 -12t-18 -33q0 -20 21.5 -32.5t54 -17t70.5 -14t70.5 -23.5t54 -46.5t21.5 -81.5z" />
    <glyph glyph-name="Tcommaaccent" unicode="&#x162;" horiz-adv-x="434" 
d="M424 623h-134v-623h-145v623h-135v127h414v-127zM216 -210h-95l25 150h142z" />
    <glyph glyph-name="tcommaaccent" unicode="&#x163;" horiz-adv-x="390" 
d="M235 179q0 -34 16.5 -50t51.5 -16q29 0 55 9v-120q-40 -12 -84 -12q-87 0 -135.5 41t-48.5 140v212h-72v117h72v148h145v-148h123v-117h-123v-204zM235 -210h-95l25 150h142z" />
    <glyph glyph-name="Tcaron" unicode="&#x164;" horiz-adv-x="434" 
d="M139 820l-98 150h113l62 -74l63 74h112l-97 -150h-155zM424 623h-134v-623h-145v623h-135v127h414v-127z" />
    <glyph glyph-name="tcaron" unicode="&#x165;" horiz-adv-x="390" 
d="M288 750h127l-48 -190h-79v190zM235 179q0 -34 16.5 -50t51.5 -16q29 0 55 9v-120q-40 -12 -84 -12q-87 0 -135.5 41t-48.5 140v212h-72v117h72v148h145v-148h123v-117h-123v-204z" />
    <glyph glyph-name="Tbar" unicode="&#x166;" horiz-adv-x="434" 
d="M382 408h-92v-408h-145v408h-93v92h93v123h-135v127h414v-127h-134v-123h92v-92z" />
    <glyph glyph-name="tbar" unicode="&#x167;" horiz-adv-x="390" 
d="M358 2q-38 -12 -84 -12q-87 0 -135.5 41t-48.5 140v63h-52v80h52v69h-72v117h72v148h145v-148h123v-117h-123v-69h94v-80h-94v-55q0 -34 16.5 -50t51.5 -16q29 0 55 9v-120z" />
    <glyph glyph-name="Utilde" unicode="&#x168;" horiz-adv-x="570" 
d="M113 820v48q0 102 88 102q34 0 81 -25.5t62 -25.5q29 0 29 34v17h85v-47q0 -103 -89 -103q-34 0 -80.5 25.5t-61.5 25.5q-29 0 -29 -34v-17h-85zM55 750h145v-517q0 -63 21.5 -90.5t63.5 -27.5t63.5 27.5t21.5 90.5v517h145v-515q0 -122 -60.5 -185t-169.5 -63t-169.5 63
t-60.5 185v515z" />
    <glyph glyph-name="utilde" unicode="&#x169;" horiz-adv-x="580" 
d="M114 600v48q0 102 88 102q34 0 81 -25.5t62 -25.5q29 0 29 34v17h85v-47q0 -103 -89 -103q-34 0 -80.5 25.5t-61.5 25.5q-29 0 -29 -34v-17h-85zM378 0v71q-47 -81 -143 -81q-80 0 -130 52t-50 149v309h145v-276q0 -56 23 -85t65 -29t64.5 29t22.5 85v276h145v-500h-142z
" />
    <glyph glyph-name="Umacron" unicode="&#x16a;" horiz-adv-x="570" 
d="M431 920v-92h-285v92h285zM55 750h145v-517q0 -63 21.5 -90.5t63.5 -27.5t63.5 27.5t21.5 90.5v517h145v-515q0 -122 -60.5 -185t-169.5 -63t-169.5 63t-60.5 185v515z" />
    <glyph glyph-name="umacron" unicode="&#x16b;" horiz-adv-x="580" 
d="M432 700v-92h-285v92h285zM378 0v71q-47 -81 -143 -81q-80 0 -130 52t-50 149v309h145v-276q0 -56 23 -85t65 -29t64.5 29t22.5 85v276h145v-500h-142z" />
    <glyph glyph-name="Ubreve" unicode="&#x16c;" horiz-adv-x="570" 
d="M342 970h103q0 -71 -43 -111.5t-117 -40.5q-73 0 -115.5 40t-42.5 112h102q0 -30 16 -45t40 -15q57 0 57 60zM55 750h145v-517q0 -63 21.5 -90.5t63.5 -27.5t63.5 27.5t21.5 90.5v517h145v-515q0 -122 -60.5 -185t-169.5 -63t-169.5 63t-60.5 185v515z" />
    <glyph glyph-name="ubreve" unicode="&#x16d;" horiz-adv-x="580" 
d="M343 750h103q0 -71 -43 -111.5t-117 -40.5q-73 0 -115.5 40t-42.5 112h102q0 -30 16 -45t40 -15q57 0 57 60zM378 0v71q-47 -81 -143 -81q-80 0 -130 52t-50 149v309h145v-276q0 -56 23 -85t65 -29t64.5 29t22.5 85v276h145v-500h-142z" />
    <glyph glyph-name="Uring" unicode="&#x16e;" horiz-adv-x="570" 
d="M285 790q-49 0 -80 27t-31 68q0 40 31 67.5t80 27.5t80.5 -27.5t31.5 -67.5q0 -41 -31 -68t-81 -27zM285 853q15 0 25 9t10 23t-10 23.5t-25 9.5q-14 0 -23.5 -9.5t-9.5 -23.5t9.5 -23t23.5 -9zM55 750h145v-517q0 -63 21.5 -90.5t63.5 -27.5t63.5 27.5t21.5 90.5v517
h145v-515q0 -122 -60.5 -185t-169.5 -63t-169.5 63t-60.5 185v515z" />
    <glyph glyph-name="uring" unicode="&#x16f;" horiz-adv-x="580" 
d="M286 570q-49 0 -80 27t-31 68q0 40 31 67.5t80 27.5t80.5 -27.5t31.5 -67.5q0 -41 -31 -68t-81 -27zM286 633q15 0 25 9t10 23t-10 23.5t-25 9.5q-14 0 -23.5 -9.5t-9.5 -23.5t9.5 -23t23.5 -9zM378 0v71q-47 -81 -143 -81q-80 0 -130 52t-50 149v309h145v-276
q0 -56 23 -85t65 -29t64.5 29t22.5 85v276h145v-500h-142z" />
    <glyph glyph-name="Uhungarumlaut" unicode="&#x170;" horiz-adv-x="570" 
d="M433 820h-93l25 150h138zM243 820h-93l25 150h138zM55 750h145v-517q0 -63 21.5 -90.5t63.5 -27.5t63.5 27.5t21.5 90.5v517h145v-515q0 -122 -60.5 -185t-169.5 -63t-169.5 63t-60.5 185v515z" />
    <glyph glyph-name="uhungarumlaut" unicode="&#x171;" horiz-adv-x="580" 
d="M434 600h-93l25 150h138zM244 600h-93l25 150h138zM378 0v71q-47 -81 -143 -81q-80 0 -130 52t-50 149v309h145v-276q0 -56 23 -85t65 -29t64.5 29t22.5 85v276h145v-500h-142z" />
    <glyph glyph-name="Uogonek" unicode="&#x172;" horiz-adv-x="570" 
d="M281 -254q-54 0 -87 24.5t-33 66.5q0 11 2 22t7.5 23t9.5 20t14 22t14.5 20.5t17.5 23t17 22.5q-90 11 -139 73t-49 172v515h145v-517q0 -63 21.5 -90.5t63.5 -27.5t63.5 27.5t21.5 90.5v517h145v-515q0 -113 -51.5 -175t-145.5 -71q-67 -97 -67 -140q0 -32 33 -32
q30 0 35 32h91q0 -47 -35.5 -75t-93.5 -28z" />
    <glyph glyph-name="uogonek" unicode="&#x173;" horiz-adv-x="580" 
d="M386 0h-8v71q-47 -81 -143 -81q-80 0 -130 52t-50 149v309h145v-276q0 -56 23 -85t65 -29t64.5 29t22.5 85v276h145v-500h-59q-76 -106 -76 -151q0 -32 33 -32q30 0 35 32h91q0 -47 -35 -75t-93 -28q-55 0 -88 24.5t-33 66.5q0 16 4.5 31.5t16 34.5t18.5 29.5t26.5 35
t25.5 32.5z" />
    <glyph glyph-name="Wcircumflex" unicode="&#x174;" horiz-adv-x="750" 
d="M436 820l-63 74l-62 -74h-113l98 150h155l97 -150h-112zM99 0l-91 750h137l62 -620l71 620h192l73 -617l62 617h138l-92 -750h-204l-72 626l-70 -626h-206z" />
    <glyph glyph-name="wcircumflex" unicode="&#x175;" horiz-adv-x="765" 
d="M443 600l-63 74l-62 -74h-113l98 150h155l97 -150h-112zM124 0l-112 500h132l76 -390l76 390h173l76 -390l76 390h132l-112 -500h-182l-76 392l-77 -392h-182z" />
    <glyph glyph-name="Ycircumflex" unicode="&#x176;" horiz-adv-x="480" 
d="M302 820l-63 74l-62 -74h-113l98 150h155l97 -150h-112zM313 273v-273h-145v273l-168 477h141l99 -310l99 310h141z" />
    <glyph glyph-name="ycircumflex" unicode="&#x177;" horiz-adv-x="501" 
d="M321 600l-63 74l-62 -74h-113l98 150h155l97 -150h-112zM92 -260q-46 0 -85 11v116q42 -10 70 -10q71 0 109 62l-182 581h143l102 -391l106 391h142l-162 -522q-34 -119 -89.5 -178.5t-153.5 -59.5z" />
    <glyph glyph-name="Ydieresis" unicode="&#x178;" horiz-adv-x="480" 
d="M342 825q-28 0 -48.5 20.5t-20.5 49.5t20.5 49.5t48.5 20.5q30 0 50 -20.5t20 -49.5t-20 -49.5t-50 -20.5zM138 825q-28 0 -49 20.5t-21 49.5t20.5 49.5t49.5 20.5t49.5 -20.5t20.5 -49.5t-20.5 -49.5t-49.5 -20.5zM313 273v-273h-145v273l-168 477h141l99 -310l99 310
h141z" />
    <glyph glyph-name="Zacute" unicode="&#x179;" horiz-adv-x="440" 
d="M286 820h-115l57 150h150zM425 0h-400v158l254 465h-249v127h385v-157l-253 -465h263v-128z" />
    <glyph glyph-name="zacute" unicode="&#x17a;" horiz-adv-x="470" 
d="M295 600h-115l57 150h150zM450 0h-420v148l259 235h-254v117h395v-147l-258 -235h278v-118z" />
    <glyph glyph-name="Zdotaccent" unicode="&#x17b;" horiz-adv-x="440" 
d="M223 818q-33 0 -55 22.5t-22 54.5q0 34 22 56t55 22q34 0 56 -22t22 -56q0 -33 -22.5 -55t-55.5 -22zM425 0h-400v158l254 465h-249v127h385v-157l-253 -465h263v-128z" />
    <glyph glyph-name="zdotaccent" unicode="&#x17c;" horiz-adv-x="470" 
d="M232 598q-33 0 -55 22.5t-22 54.5q0 34 22 56t55 22q34 0 56 -22t22 -56q0 -33 -22 -55t-56 -22zM450 0h-420v148l259 235h-254v117h395v-147l-258 -235h278v-118z" />
    <glyph glyph-name="Zcaron" unicode="&#x17d;" horiz-adv-x="440" 
d="M145 820l-98 150h113l62 -74l63 74h112l-97 -150h-155zM425 0h-400v158l254 465h-249v127h385v-157l-253 -465h263v-128z" />
    <glyph glyph-name="zcaron" unicode="&#x17e;" horiz-adv-x="470" 
d="M155 600l-98 150h113l62 -74l63 74h112l-97 -150h-155zM450 0h-420v148l259 235h-254v117h395v-147l-258 -235h278v-118z" />
    <glyph glyph-name="florin" unicode="&#x192;" 
d="M447 324h-149l-122 -574h-145l122 574h-79v76h95l36 171q22 102 79.5 145.5t153.5 43.5q37 0 65 -8v-122q-23 8 -64 8q-75 0 -89 -72l-35 -166h132v-76z" />
    <glyph glyph-name="Aringacute" unicode="&#x1fa;" horiz-adv-x="510" 
d="M308 1020h-115l57 150h150zM255 790q-49 0 -80 27t-31 68q0 40 31 67.5t80 27.5t80.5 -27.5t31.5 -67.5q0 -41 -31 -68t-81 -27zM255 853q15 0 25 9t10 23t-10 23.5t-25 9.5q-14 0 -23.5 -9.5t-9.5 -23.5t9.5 -23t23.5 -9zM314 278l-59 362l-59 -362h118zM360 0l-25 153
h-160l-25 -153h-142l136 750h222l137 -750h-143z" />
    <glyph glyph-name="aringacute" unicode="&#x1fb;" 
d="M340 820h-115l57 150h150zM279 570q-49 0 -80 27t-31 68q0 40 31 67.5t80 27.5t80.5 -27.5t31.5 -67.5q0 -41 -31 -68t-81 -27zM279 633q15 0 25 9t10 23t-10 23.5t-25 9.5q-14 0 -23.5 -9.5t-9.5 -23.5t9.5 -23t23.5 -9zM244 97q48 0 80 27t32 75v26q-24 -11 -73 -20.5
t-75.5 -21.5t-26.5 -38q0 -23 17.5 -35.5t45.5 -12.5zM359 0v76q-45 -86 -159 -86q-68 0 -116 36.5t-48 106.5q0 50 23.5 82.5t59 45.5t76.5 22t76.5 13t59 16.5t23.5 35.5q0 26 -22 41t-57 15q-38 0 -59.5 -20t-21.5 -56h-143q0 92 66 137t162 45q95 0 157.5 -41t62.5 -125
v-344h-140z" />
    <glyph glyph-name="AEacute" unicode="&#x1fc;" horiz-adv-x="778" 
d="M519 820h-115l57 150h150zM386 285v372l-135 -372h135zM386 0v160h-181l-58 -160h-147l286 750h457v-127h-213v-175h193v-128h-193v-192h213v-128h-357z" />
    <glyph glyph-name="aeacute" unicode="&#x1fd;" horiz-adv-x="899" 
d="M501 600h-115l57 150h150zM616 391q-95 0 -113 -96h226q-18 96 -113 96zM244 97q48 0 80 27t32 75v26q-24 -11 -73 -20.5t-75.5 -21.5t-26.5 -38q0 -23 17.5 -35.5t45.5 -12.5zM857 158q-23 -82 -85.5 -125t-155.5 -43q-133 0 -204 103q-48 -103 -191 -103
q-76 0 -130.5 36.5t-54.5 106.5q0 50 23.5 82.5t59 45.5t76.5 22t76.5 13t59 16.5t23.5 35.5q0 26 -22 41t-57 15q-38 0 -59.5 -20t-21.5 -56h-143q0 92 63.5 137t157.5 45q119 0 172 -66q68 66 172 66q111 0 182 -73t71 -187q0 -14 -2 -40h-365q18 -101 118 -101
q69 0 90 49h147z" />
    <glyph glyph-name="Oslashacute" unicode="&#x1fe;" horiz-adv-x="570" 
d="M348 820h-115l57 150h150zM303 -13q-93 0 -136 42l-14 -29h-103l46 94q-46 52 -46 164v245q0 127 59.5 193.5t158.5 66.5q93 0 135 -43l15 30h102l-46 -95q46 -50 46 -162v-245q0 -127 -59 -194t-158 -67zM195 505v-209l154 313q-21 26 -64 26q-44 0 -67 -30t-23 -100z
M285 115q45 0 67.5 29.5t22.5 100.5v209l-153 -314q21 -25 63 -25z" />
    <glyph glyph-name="oslashacute" unicode="&#x1ff;" horiz-adv-x="580" 
d="M353 600h-115l57 150h150zM290 -10q-71 0 -126 29l-16 -19h-118l61 76q-61 72 -61 174q0 115 73.5 187.5t186.5 72.5q69 0 127 -30l16 20h117l-61 -76q61 -72 61 -174q0 -115 -73.5 -187.5t-186.5 -72.5zM166 250q0 -34 13 -65l156 193q-22 8 -45 8q-54 0 -89 -37.5
t-35 -98.5zM290 114q54 0 89 38t35 98q0 34 -13 65l-155 -193q21 -8 44 -8z" />
    <glyph glyph-name="Scommaaccent" unicode="&#x218;" horiz-adv-x="485" 
d="M41 567q0 99 56.5 147.5t146.5 48.5q89 0 146.5 -51.5t57.5 -148.5v-53h-139v50q0 80 -65 80q-28 0 -45.5 -17t-17.5 -49q0 -34 18 -57t58 -53l86 -63q115 -86 115 -205q0 -100 -60.5 -154.5t-152.5 -54.5q-91 0 -151.5 53.5t-60.5 147.5v62h140v-55q0 -39 19.5 -62
t52.5 -23t52.5 18.5t19.5 50.5q0 37 -19.5 63t-60.5 57l-82 61q-55 40 -84.5 88.5t-29.5 118.5zM244 -210h-95l25 150h142z" />
    <glyph glyph-name="scommaaccent" unicode="&#x219;" horiz-adv-x="504" 
d="M472 148q0 -73 -59.5 -115.5t-152.5 -42.5q-99 0 -163 47t-64 128h140q0 -35 24 -54t62 -19q71 0 71 48q0 23 -21.5 36t-53.5 17.5t-69 14t-69 22.5t-53.5 45.5t-21.5 80.5q0 70 57.5 112t145.5 42q93 0 155.5 -49t62.5 -120h-140q0 29 -22 48t-55 19q-30 0 -48 -12
t-18 -33q0 -20 21.5 -32.5t54 -17t70.5 -14t70.5 -23.5t54 -46.5t21.5 -81.5zM259 -210h-95l25 150h142z" />
    <glyph glyph-name="circumflex" unicode="&#x2c6;" horiz-adv-x="500" 
d="M313 600l-63 74l-62 -74h-113l98 150h155l97 -150h-112z" />
    <glyph glyph-name="caron" unicode="&#x2c7;" horiz-adv-x="500" 
d="M173 600l-98 150h113l62 -74l63 74h112l-97 -150h-155z" />
    <glyph glyph-name="breve" unicode="&#x2d8;" horiz-adv-x="500" 
d="M307 750h103q0 -71 -43 -111.5t-117 -40.5q-73 0 -115.5 40t-42.5 112h102q0 -30 16 -45t40 -15q57 0 57 60z" />
    <glyph glyph-name="dotaccent" unicode="&#x2d9;" horiz-adv-x="500" 
d="M250 598q-33 0 -55 22.5t-22 54.5q0 34 22 56t55 22q34 0 56 -22t22 -56q0 -33 -22 -55t-56 -22z" />
    <glyph glyph-name="ring" unicode="&#x2da;" horiz-adv-x="500" 
d="M250 570q-49 0 -80 27t-31 68q0 40 31 67.5t80 27.5t80.5 -27.5t31.5 -67.5q0 -41 -31 -68t-81 -27zM250 633q15 0 25 9t10 23t-10 23.5t-25 9.5q-14 0 -23.5 -9.5t-9.5 -23.5t9.5 -23t23.5 -9z" />
    <glyph glyph-name="ogonek" unicode="&#x2db;" horiz-adv-x="500" 
d="M246 -254q-54 0 -87 24.5t-33 66.5q0 16 4 31.5t16 35t18 28.5t27 35.5t25 32.5h75q-75 -105 -75 -151q0 -32 33 -32q30 0 35 32h91q0 -47 -35.5 -75t-93.5 -28z" />
    <glyph glyph-name="tilde" unicode="&#x2dc;" horiz-adv-x="500" 
d="M78 600v48q0 102 88 102q34 0 81 -25.5t62 -25.5q29 0 29 34v17h85v-47q0 -103 -89 -103q-34 0 -80.5 25.5t-61.5 25.5q-29 0 -29 -34v-17h-85z" />
    <glyph glyph-name="hungarumlaut" unicode="&#x2dd;" horiz-adv-x="500" 
d="M398 600h-93l25 150h138zM208 600h-93l25 150h138z" />
    <glyph glyph-name="Delta" unicode="&#x394;" horiz-adv-x="510" 
d="M340 125l-85 515l-84 -515h169zM8 0l136 750h222l137 -750h-495z" />
    <glyph glyph-name="Omega" unicode="&#x3a9;" horiz-adv-x="570" 
d="M265 0h-215v124h72q-72 50 -72 169v210q0 128 61.5 194t173.5 66t173.5 -66t61.5 -194v-210q0 -119 -72 -169h72v-124h-215v136q40 24 55 56.5t15 92.5v220q0 70 -23 100t-67 30t-67 -30t-23 -100v-220q0 -60 15 -92.5t55 -56.5v-136z" />
    <glyph glyph-name="mu" unicode="&#x3bc;" horiz-adv-x="584" 
d="M239 -10q-19 0 -35 3v-243h-145v750h145v-276q0 -56 23 -85t65 -29t64.5 29t22.5 85v276h145v-500h-143v70q-47 -80 -142 -80z" />
    <glyph glyph-name="pi" unicode="&#x3c0;" horiz-adv-x="645" 
d="M379 0v383h-88l-80 -383h-145l80 383h-87v117h550v-117h-85v-383h-145z" />
    <glyph glyph-name="Wgrave" unicode="&#x1e80;" horiz-adv-x="750" 
d="M321 820l-93 150h150l58 -150h-115zM99 0l-91 750h137l62 -620l71 620h192l73 -617l62 617h138l-92 -750h-204l-72 626l-70 -626h-206z" />
    <glyph glyph-name="wgrave" unicode="&#x1e81;" horiz-adv-x="765" 
d="M328 600l-93 150h150l58 -150h-115zM124 0l-112 500h132l76 -390l76 390h173l76 -390l76 390h132l-112 -500h-182l-76 392l-77 -392h-182z" />
    <glyph glyph-name="Wacute" unicode="&#x1e82;" horiz-adv-x="750" 
d="M437 820h-115l57 150h150zM99 0l-91 750h137l62 -620l71 620h192l73 -617l62 617h138l-92 -750h-204l-72 626l-70 -626h-206z" />
    <glyph glyph-name="wacute" unicode="&#x1e83;" horiz-adv-x="765" 
d="M443 600h-115l57 150h150zM124 0l-112 500h132l76 -390l76 390h173l76 -390l76 390h132l-112 -500h-182l-76 392l-77 -392h-182z" />
    <glyph glyph-name="Wdieresis" unicode="&#x1e84;" horiz-adv-x="750" 
d="M476 825q-28 0 -48.5 20.5t-20.5 49.5t20.5 49.5t48.5 20.5q30 0 50 -20.5t20 -49.5t-20 -49.5t-50 -20.5zM272 825q-28 0 -49 20.5t-21 49.5t20.5 49.5t49.5 20.5t49.5 -20.5t20.5 -49.5t-20.5 -49.5t-49.5 -20.5zM99 0l-91 750h137l62 -620l71 620h192l73 -617l62 617
h138l-92 -750h-204l-72 626l-70 -626h-206z" />
    <glyph glyph-name="wdieresis" unicode="&#x1e85;" horiz-adv-x="765" 
d="M482 605q-28 0 -48.5 20.5t-20.5 49.5t20.5 49.5t48.5 20.5q30 0 50 -20.5t20 -49.5t-20 -49.5t-50 -20.5zM278 605q-28 0 -49 20.5t-21 49.5t20.5 49.5t49.5 20.5t49.5 -20.5t20.5 -49.5t-20.5 -49.5t-49.5 -20.5zM124 0l-112 500h132l76 -390l76 390h173l76 -390
l76 390h132l-112 -500h-182l-76 392l-77 -392h-182z" />
    <glyph glyph-name="Ygrave" unicode="&#x1ef2;" horiz-adv-x="480" 
d="M187 820l-93 150h150l58 -150h-115zM313 273v-273h-145v273l-168 477h141l99 -310l99 310h141z" />
    <glyph glyph-name="ygrave" unicode="&#x1ef3;" horiz-adv-x="501" 
d="M206 600l-93 150h150l58 -150h-115zM92 -260q-46 0 -85 11v116q42 -10 70 -10q71 0 109 62l-182 581h143l102 -391l106 391h142l-162 -522q-34 -119 -89.5 -178.5t-153.5 -59.5z" />
    <glyph glyph-name="endash" unicode="&#x2013;" horiz-adv-x="500" 
d="M455 229h-410v92h410v-92z" />
    <glyph glyph-name="emdash" unicode="&#x2014;" horiz-adv-x="1000" 
d="M955 229h-910v92h910v-92z" />
    <glyph glyph-name="quoteleft" unicode="&#x2018;" horiz-adv-x="218" 
d="M110 465q-35 0 -58.5 25.5t-23.5 64.5q0 79 83 195h74q-48 -72 -67 -130q29 -4 49.5 -26.5t20.5 -50.5q0 -32 -23 -55t-55 -23z" />
    <glyph glyph-name="quoteright" unicode="&#x2019;" horiz-adv-x="218" 
d="M107 475h-73q48 74 66 130q-29 3 -49 26t-20 52q0 32 22.5 54.5t54.5 22.5q35 0 58.5 -25t23.5 -64q0 -78 -83 -196z" />
    <glyph glyph-name="quotesinglbase" unicode="&#x201a;" horiz-adv-x="218" 
d="M107 -140h-73q48 74 66 130q-29 3 -49 26t-20 52q0 32 22.5 54.5t54.5 22.5q35 0 58.5 -25t23.5 -64q0 -80 -83 -196z" />
    <glyph glyph-name="quotedblleft" unicode="&#x201c;" horiz-adv-x="418" 
d="M310 465q-35 0 -58.5 25.5t-23.5 64.5q0 79 83 195h74q-48 -72 -67 -130q29 -4 49.5 -26.5t20.5 -50.5q0 -32 -23 -55t-55 -23zM110 465q-35 0 -58.5 25.5t-23.5 64.5q0 79 83 195h74q-48 -72 -67 -130q29 -4 49.5 -26.5t20.5 -50.5q0 -32 -23 -55t-55 -23z" />
    <glyph glyph-name="quotedblright" unicode="&#x201d;" horiz-adv-x="418" 
d="M307 475h-73q48 74 66 130q-29 3 -49 26t-20 52q0 32 22.5 54.5t54.5 22.5q35 0 58.5 -25t23.5 -64q0 -78 -83 -196zM107 475h-73q48 74 66 130q-29 3 -49 26t-20 52q0 32 22.5 54.5t54.5 22.5q35 0 58.5 -25t23.5 -64q0 -78 -83 -196z" />
    <glyph glyph-name="quotedblbase" unicode="&#x201e;" horiz-adv-x="418" 
d="M107 -140h-73q48 74 66 130q-29 3 -49 26t-20 52q0 32 22.5 54.5t54.5 22.5q35 0 58.5 -25t23.5 -64q0 -80 -83 -196zM307 -140h-73q48 74 66 130q-29 3 -49 26t-20 52q0 32 22.5 54.5t54.5 22.5q35 0 58.5 -25t23.5 -64q0 -80 -83 -196z" />
    <glyph glyph-name="dagger" unicode="&#x2020;" horiz-adv-x="330" 
d="M313 500h-93v-500h-110v500h-92v95h92v155h110v-155h93v-95z" />
    <glyph glyph-name="daggerdbl" unicode="&#x2021;" horiz-adv-x="330" 
d="M313 155h-93v-155h-110v155h-92v95h92v250h-92v95h92v155h110v-155h93v-95h-93v-250h93v-95z" />
    <glyph glyph-name="bullet" unicode="&#x2022;" horiz-adv-x="338" 
d="M169 181q-51 0 -87.5 36.5t-36.5 86.5q0 52 36 88t88 36q51 0 87.5 -36.5t36.5 -87.5q0 -50 -37 -86.5t-87 -36.5z" />
    <glyph glyph-name="ellipsis" unicode="&#x2026;" horiz-adv-x="664" 
d="M548 -10q-33 0 -55.5 23t-22.5 55t22.5 54.5t55.5 22.5q32 0 54.5 -22.5t22.5 -54.5t-22.5 -55t-54.5 -23zM332 -10q-32 0 -55 23t-23 55t23 54.5t55 22.5q33 0 55.5 -22.5t22.5 -54.5t-22.5 -55t-55.5 -23zM117 -10q-33 0 -55.5 23t-22.5 55t22.5 54.5t55.5 22.5
q32 0 54.5 -22.5t22.5 -54.5t-22.5 -55t-54.5 -23z" />
    <glyph glyph-name="perthousand" unicode="&#x2030;" horiz-adv-x="1165" 
d="M179 355q-71 0 -114.5 50.5t-43.5 149.5t43.5 150t114.5 51t114 -51t43 -150q0 -100 -42.5 -150t-114.5 -50zM103 0l520 750h80l-520 -750h-80zM179 448q52 0 52 107q0 112 -52 112q-53 0 -53 -112q0 -107 53 -107zM986 -6q-71 0 -114.5 50.5t-43.5 149.5t43.5 150
t114.5 51t114 -51t43 -150q0 -100 -42.5 -150t-114.5 -50zM627 -6q-71 0 -114.5 50.5t-43.5 149.5t43.5 150t114.5 51t114 -51t43 -150q0 -100 -42.5 -150t-114.5 -50zM986 87q52 0 52 107q0 112 -52 112q-53 0 -53 -112q0 -107 53 -107zM627 87q52 0 52 107q0 112 -52 112
q-53 0 -53 -112q0 -107 53 -107z" />
    <glyph glyph-name="guilsinglleft" unicode="&#x2039;" horiz-adv-x="310" 
d="M268 43l-225 145v135l225 145v-128l-144 -85l144 -85v-127z" />
    <glyph glyph-name="guilsinglright" unicode="&#x203a;" horiz-adv-x="310" 
d="M43 43v127l144 85l-144 85v128l225 -145v-135z" />
    <glyph glyph-name="fraction" unicode="&#x2044;" horiz-adv-x="90" 
d="M-255 0l520 750h80l-520 -750h-80z" />
    <glyph glyph-name="zerosuperior" unicode="&#x2070;" horiz-adv-x="358" 
d="M179 256q-71 0 -114.5 50.5t-43.5 149.5t43.5 150t114.5 51t114 -51t43 -150q0 -100 -42.5 -150t-114.5 -50zM179 349q52 0 52 107q0 112 -52 112q-53 0 -53 -112q0 -107 53 -107z" />
    <glyph glyph-name="foursuperior" unicode="&#x2074;" horiz-adv-x="345" 
d="M103 412h78v166zM341 329h-58v-67h-102v67h-171v80l116 242h157v-239h58v-83z" />
    <glyph glyph-name="fivesuperior" unicode="&#x2075;" horiz-adv-x="341" 
d="M178 256q-69 0 -111 36.5t-42 94.5h102q0 -21 13.5 -33.5t37.5 -12.5q23 0 36.5 15t13.5 39q0 25 -14 41t-40 16q-18 0 -30.5 -7.5t-14.5 -17.5h-97v224h276v-85h-185v-70q28 31 75 31q56 0 94 -36.5t38 -95.5q0 -62 -42 -100.5t-110 -38.5z" />
    <glyph glyph-name="sixsuperior" unicode="&#x2076;" horiz-adv-x="348" 
d="M331 384q0 -60 -41.5 -94t-104.5 -34q-73 0 -118.5 49.5t-45.5 151.5q0 99 47.5 149.5t116.5 50.5q60 0 101 -35t41 -89h-96q-1 18 -12.5 29.5t-32.5 11.5q-28 0 -45.5 -26.5t-17.5 -79.5q28 45 85 45q50 0 86.5 -32.5t36.5 -96.5zM185 336q21 0 34.5 13.5t13.5 34.5
t-14 34.5t-34 13.5t-33.5 -13.5t-13.5 -34.5t13.5 -34.5t33.5 -13.5z" />
    <glyph glyph-name="sevensuperior" unicode="&#x2077;" horiz-adv-x="277" 
d="M174 262h-108v22q0 85 31.5 149.5t87.5 130.5h-181v87h267v-113q-54 -71 -75.5 -120t-21.5 -132v-24z" />
    <glyph glyph-name="eightsuperior" unicode="&#x2078;" horiz-adv-x="345" 
d="M172 256q-71 0 -111 32.5t-40 88.5q0 57 54 91q-43 30 -43 78q0 51 37.5 81t102.5 30q66 0 103.5 -30t37.5 -81q0 -48 -43 -78q55 -34 55 -91q0 -56 -41 -88.5t-112 -32.5zM172 502q18 0 29 10.5t11 27.5t-11 27t-29 10t-28.5 -10t-10.5 -27t10.5 -27.5t28.5 -10.5z
M172 336q24 0 37.5 13t13.5 34t-13.5 34t-37.5 13q-23 0 -36.5 -13t-13.5 -34t13.5 -34t36.5 -13z" />
    <glyph glyph-name="ninesuperior" unicode="&#x2079;" horiz-adv-x="348" 
d="M163 576q-21 0 -34.5 -13.5t-13.5 -34.5t13.5 -34t34.5 -13q20 0 33.5 13t13.5 34t-13.5 34.5t-33.5 13.5zM163 256q-59 0 -100.5 35t-41.5 88h96q1 -18 13 -29t32 -11q29 0 46 26.5t17 78.5q-27 -44 -85 -44q-50 0 -86.5 32.5t-36.5 95.5q0 61 41.5 95t104.5 34
q73 0 118.5 -49.5t45.5 -152.5q0 -98 -47.5 -148.5t-116.5 -50.5z" />
    <glyph glyph-name="parenleftsuperior" unicode="&#x207d;" horiz-adv-x="221" 
d="M43 447q0 168 98 303h81q-91 -126 -91 -303t91 -302h-81q-98 133 -98 302z" />
    <glyph glyph-name="parenrightsuperior" unicode="&#x207e;" horiz-adv-x="221" 
d="M179 447q0 -167 -98 -302h-82q92 126 92 302q0 175 -92 303h82q98 -137 98 -303z" />
    <glyph glyph-name="zeroinferior" unicode="&#x2080;" horiz-adv-x="358" 
d="M179 -256q-71 0 -114.5 50.5t-43.5 149.5t43.5 150t114.5 51t114 -51t43 -150q0 -100 -42.5 -150t-114.5 -50zM179 -163q52 0 52 107q0 112 -52 112q-53 0 -53 -112q0 -107 53 -107z" />
    <glyph glyph-name="oneinferior" unicode="&#x2081;" horiz-adv-x="220" 
d="M85 133v6h106v-389h-109v242h-72v82h19q29 0 42.5 14t13.5 45z" />
    <glyph glyph-name="twoinferior" unicode="&#x2082;" horiz-adv-x="316" 
d="M300 25q0 -41 -31.5 -76.5t-72 -65.5t-50.5 -47h156v-86h-285v35q0 35 19 66.5t45.5 53.5t53.5 41t46 38.5t19 36.5t-11 27.5t-29 10.5q-43 0 -43 -46v-13h-98v21q0 59 39.5 91.5t101.5 32.5q60 0 100 -31.5t40 -88.5z" />
    <glyph glyph-name="threeinferior" unicode="&#x2083;" horiz-adv-x="345" 
d="M178 -256q-73 0 -117 35.5t-44 96.5h101q0 -23 15.5 -36t40.5 -13q22 0 36 11.5t14 30.5q0 41 -53 41h-38v79h38q20 0 31.5 9.5t11.5 25.5q0 35 -45 35t-45 -43h-100q0 61 39 95t109 34q66 0 106 -31t40 -81q0 -53 -47 -80q57 -30 57 -91q0 -56 -40.5 -87t-109.5 -31z
" />
    <glyph glyph-name="fourinferior" unicode="&#x2084;" horiz-adv-x="345" 
d="M103 -100h78v166zM341 -183h-58v-67h-102v67h-171v80l116 242h157v-239h58v-83z" />
    <glyph glyph-name="fiveinferior" unicode="&#x2085;" horiz-adv-x="341" 
d="M178 -256q-69 0 -111 36.5t-42 94.5h102q0 -21 13.5 -33.5t37.5 -12.5q23 0 36.5 15t13.5 39q0 25 -14 41t-40 16q-18 0 -30.5 -7.5t-14.5 -17.5h-97v224h276v-85h-185v-70q28 31 75 31q56 0 94 -36.5t38 -95.5q0 -62 -42 -100.5t-110 -38.5z" />
    <glyph glyph-name="sixinferior" unicode="&#x2086;" horiz-adv-x="348" 
d="M331 -128q0 -60 -41.5 -94t-104.5 -34q-73 0 -118.5 49.5t-45.5 151.5q0 99 47.5 149.5t116.5 50.5q60 0 101 -35t41 -89h-96q-1 18 -12.5 29.5t-32.5 11.5q-28 0 -45.5 -26.5t-17.5 -79.5q28 45 85 45q50 0 86.5 -32.5t36.5 -96.5zM185 -176q21 0 34.5 13.5t13.5 34.5
t-14 34.5t-34 13.5t-33.5 -13.5t-13.5 -34.5t13.5 -34.5t33.5 -13.5z" />
    <glyph glyph-name="seveninferior" unicode="&#x2087;" horiz-adv-x="277" 
d="M174 -250h-108v22q0 85 31.5 149.5t87.5 130.5h-181v87h267v-113q-54 -71 -75.5 -120t-21.5 -132v-24z" />
    <glyph glyph-name="eightinferior" unicode="&#x2088;" horiz-adv-x="345" 
d="M172 -256q-71 0 -111 32.5t-40 88.5q0 57 54 91q-43 30 -43 78q0 51 37.5 81t102.5 30q66 0 103.5 -30t37.5 -81q0 -48 -43 -78q55 -34 55 -91q0 -56 -41 -88.5t-112 -32.5zM172 -10q18 0 29 10.5t11 27.5t-11 27t-29 10t-28.5 -10t-10.5 -27t10.5 -27.5t28.5 -10.5z
M172 -176q24 0 37.5 13t13.5 34t-13.5 34t-37.5 13q-23 0 -36.5 -13t-13.5 -34t13.5 -34t36.5 -13z" />
    <glyph glyph-name="nineinferior" unicode="&#x2089;" horiz-adv-x="348" 
d="M163 64q-21 0 -34.5 -13.5t-13.5 -34.5t13.5 -34t34.5 -13q20 0 33.5 13t13.5 34t-13.5 34.5t-33.5 13.5zM163 -256q-59 0 -100.5 35t-41.5 88h96q1 -18 13 -29t32 -11q29 0 46 26.5t17 78.5q-27 -44 -85 -44q-50 0 -86.5 32.5t-36.5 95.5q0 61 41.5 95t104.5 34
q73 0 118.5 -49.5t45.5 -152.5q0 -98 -47.5 -148.5t-116.5 -50.5z" />
    <glyph glyph-name="parenleftinferior" unicode="&#x208d;" horiz-adv-x="221" 
d="M43 -65q0 168 98 303h81q-91 -126 -91 -303t91 -302h-81q-98 133 -98 302z" />
    <glyph glyph-name="parenrightinferior" unicode="&#x208e;" horiz-adv-x="221" 
d="M179 -65q0 -167 -98 -302h-82q92 126 92 302q0 175 -92 303h82q98 -137 98 -303z" />
    <glyph glyph-name="Euro" unicode="&#x20ac;" 
d="M530 221q0 -111 -61.5 -172.5t-160.5 -61.5t-161 64.5t-62 181.5v12h-70v77h70v109h-70v76h70v11q0 117 62 181t161 64t160.5 -61.5t61.5 -172.5v-45h-140v40q0 111 -82 111q-83 0 -83 -122v-6h120v-76h-120v-109h120v-77h-120v-7q0 -123 83 -123q82 0 82 111v43h140v-48
z" />
    <glyph glyph-name="uni2117" unicode="&#x2117;" horiz-adv-x="830" 
d="M415 -10q-163 0 -271.5 112.5t-108.5 272.5q0 161 108.5 273t271.5 112t271.5 -112t108.5 -273q0 -160 -108.5 -272.5t-271.5 -112.5zM415 703q-136 0 -226.5 -95.5t-90.5 -232.5t90.5 -232t226.5 -95t227 95t91 232t-91 232.5t-227 95.5zM434 481h-46v-102h46
q49 0 49 53q0 49 -49 49zM449 286h-61v-111h-110v400h171q65 0 104 -34t39 -109q0 -65 -41 -105.5t-102 -40.5z" />
    <glyph glyph-name="trademark" unicode="&#x2122;" horiz-adv-x="926" 
d="M587 350l-72 335v-335h-90v400h171l54 -284l51 284h175v-400h-100v329l-70 -329h-119zM349 660h-104v-310h-103v310h-104v90h311v-90z" />
    <glyph glyph-name="estimated" unicode="&#x212e;" horiz-adv-x="830" 
d="M173 354v-237q39 -42 102 -67.5t140 -25.5q108 0 192 58.5t122 144.5h37q-42 -103 -137 -170t-214 -67q-169 0 -274.5 106t-105.5 279q0 170 109 277.5t271 107.5q165 0 272.5 -112t107.5 -273q0 -4 -0.5 -10.5t-0.5 -10.5h-621zM173 388h491v231q-37 46 -102.5 76
t-146.5 30q-72 0 -138 -28t-104 -70v-239z" />
    <glyph glyph-name="arrowleft" unicode="&#x2190;" 
d="M326 150l-64 -64l-217 218l217 217l64 -64l-109 -109h288v-90h-286z" />
    <glyph glyph-name="arrowup" unicode="&#x2191;" 
d="M428 229l-109 109v-288h-90v286l-108 -107l-64 64l218 217l217 -217z" />
    <glyph glyph-name="arrowright" unicode="&#x2192;" 
d="M288 86l-64 64l107 108h-286v90h288l-109 109l64 64l217 -217z" />
    <glyph glyph-name="arrowdown" unicode="&#x2193;" 
d="M275 -10l-218 217l64 64l108 -107v286h90v-288l109 109l64 -64z" />
    <glyph glyph-name="partialdiff" unicode="&#x2202;" horiz-adv-x="575" 
d="M278 -10q-108 0 -178 67.5t-70 172.5q0 106 65 173t172 67q72 0 121 -44q-12 105 -62 153.5t-137 48.5q-27 0 -61 -6v124q44 7 77 7q152 0 243.5 -108t91.5 -313q0 -178 -72 -260t-190 -82zM278 115q48 0 79 32t31 83t-31 83t-79 32t-79 -32t-31 -83t31 -83t79 -32z" />
    <glyph glyph-name="product" unicode="&#x220f;" horiz-adv-x="590" 
d="M385 -250v873h-180v-873h-145v1000h470v-1000h-145z" />
    <glyph glyph-name="summation" unicode="&#x2211;" horiz-adv-x="443" 
d="M419 -123v-127h-384v157l222 340l-222 346v157h385v-127h-236l186 -290v-166l-186 -290h235z" />
    <glyph glyph-name="minus" unicode="&#x2212;" 
d="M75 258v90h400v-90h-400z" />
    <glyph glyph-name="radical" unicode="&#x221a;" horiz-adv-x="500" 
d="M143 0l-135 500h145l97 -400l156 650h145l-194 -750h-214z" />
    <glyph glyph-name="infinity" unicode="&#x221e;" 
d="M381 177q-75 0 -106 62q-31 -62 -105 -62q-56 0 -93 35.5t-37 89.5t37 89.5t93 35.5q74 0 105 -62q31 62 106 62q56 0 92.5 -35.5t36.5 -89.5t-36.5 -89.5t-92.5 -35.5zM381 252q22 0 35.5 14t13.5 36t-13.5 36t-35.5 14q-21 0 -35.5 -14t-14.5 -36t14.5 -36t35.5 -14z
M170 252q21 0 35 14t14 36t-14 36t-35 14t-35.5 -14t-14.5 -36t14.5 -36t35.5 -14z" />
    <glyph glyph-name="integral" unicode="&#x222b;" horiz-adv-x="310" 
d="M29 -253q-40 0 -64 6v120q18 -3 38 -3q33 0 49 14t16 50v637q0 91 55 140t145 49q46 0 75 -9v-122q-26 9 -56 9q-74 0 -74 -72v-637q0 -182 -184 -182z" />
    <glyph glyph-name="approxequal" unicode="&#x2248;" 
d="M201 386q-16 0 -27 -11t-11 -31v-16h-93v31q0 59 30.5 92t79.5 33q45 0 101 -32t75 -32q14 0 23 11t9 32v16h92v-31q0 -60 -29.5 -92.5t-77.5 -32.5q-36 0 -91 31.5t-81 31.5zM201 186q-16 0 -27 -11t-11 -31v-16h-93v31q0 59 30.5 92t79.5 33q45 0 101 -32t75 -32
q14 0 23 11t9 32v16h92v-31q0 -60 -29.5 -92.5t-77.5 -32.5q-36 0 -91 31.5t-81 31.5z" />
    <glyph glyph-name="notequal" unicode="&#x2260;" 
d="M475 158h-241l-42 -62h-117l42 62h-42v90h104l75 110h-179v90h241l42 62h117l-42 -62h42v-90h-104l-75 -110h179v-90z" />
    <glyph glyph-name="lessequal" unicode="&#x2264;" 
d="M475 114l-400 170v89l400 170v-101l-275 -113l275 -114v-101zM75 0v90h400v-90h-400z" />
    <glyph glyph-name="greaterequal" unicode="&#x2265;" 
d="M75 114v101l276 114l-276 113v101l400 -170v-89zM475 0h-400v90h400v-90z" />
    <glyph glyph-name="uni25B4" unicode="&#x25b4;" horiz-adv-x="563" 
d="M58 182l223 363l223 -363h-446z" />
    <glyph glyph-name="uni25B5" unicode="&#x25b5;" horiz-adv-x="563" 
d="M58 182l223 363l223 -363h-446zM184 252h194l-97 157z" />
    <glyph glyph-name="uni25B8" unicode="&#x25b8;" horiz-adv-x="563" 
d="M141 77v446l363 -223z" />
    <glyph glyph-name="uni25B9" unicode="&#x25b9;" horiz-adv-x="563" 
d="M141 77v446l363 -223zM216 203l156 97l-156 97v-194z" />
    <glyph glyph-name="uni25BE" unicode="&#x25be;" horiz-adv-x="563" 
d="M58 535h446l-223 -363z" />
    <glyph glyph-name="uni25BF" unicode="&#x25bf;" horiz-adv-x="563" 
d="M58 535h446l-223 -363zM184 465l97 -156l97 156h-194z" />
    <glyph glyph-name="uni25C2" unicode="&#x25c2;" horiz-adv-x="563" 
d="M422 77l-363 223l363 223v-446z" />
    <glyph glyph-name="uni25C3" unicode="&#x25c3;" horiz-adv-x="563" 
d="M422 77l-363 223l363 223v-446zM347 203v194l-156 -97z" />
    <glyph glyph-name="lozenge" unicode="&#x25ca;" horiz-adv-x="500" 
d="M206 0l-183 375l183 375h89l183 -375l-183 -375h-89zM250 117l124 258l-124 259l-124 -259z" />
    <glyph glyph-name="heart" unicode="&#x2665;" horiz-adv-x="848" 
d="M442 0h-36q-17 51 -58.5 97.5t-87.5 83t-89.5 75.5t-72 91t-28.5 114q0 89 52.5 139t129.5 50q57 0 102.5 -29.5t69.5 -91.5q23 62 69 91.5t103 29.5q77 0 129.5 -50t52.5 -139q0 -62 -28.5 -114t-72.5 -91t-89.5 -75.5t-87 -83t-58.5 -97.5zM453 417h-58
q-40 144 -130 144q-41 0 -68 -28.5t-27 -84.5q0 -40 18 -72.5t48.5 -57.5t63 -48.5t67.5 -56t57 -68.5q21 36 56.5 68.5t68 56t62.5 48.5t48.5 57.5t18.5 72.5q0 55 -27.5 83.5t-68.5 28.5q-91 0 -129 -143z" />
    <glyph glyph-name="uni2780" unicode="&#x2780;" horiz-adv-x="830" 
d="M415 -10q-163 0 -271.5 112.5t-108.5 272.5q0 161 108.5 273t271.5 112t271.5 -112t108.5 -273q0 -160 -108.5 -272.5t-271.5 -112.5zM415 703q-136 0 -226.5 -95.5t-90.5 -232.5t90.5 -232t226.5 -95t227 95t91 232t-91 232.5t-227 95.5zM375 563v6h106v-389h-109v242
h-72v82h19q29 0 42.5 14t13.5 45z" />
    <glyph glyph-name="uni2781" unicode="&#x2781;" horiz-adv-x="830" 
d="M415 -10q-163 0 -271.5 112.5t-108.5 272.5q0 161 108.5 273t271.5 112t271.5 -112t108.5 -273q0 -160 -108.5 -272.5t-271.5 -112.5zM415 703q-136 0 -226.5 -95.5t-90.5 -232.5t90.5 -232t226.5 -95t227 95t91 232t-91 232.5t-227 95.5zM550 455q0 -41 -31.5 -76.5
t-72 -65.5t-50.5 -47h156v-86h-285v35q0 35 19 66.5t45.5 53.5t53.5 41t46 38.5t19 36.5t-11 27.5t-29 10.5q-43 0 -43 -46v-13h-98v21q0 59 39.5 91.5t101.5 32.5q60 0 100 -31.5t40 -88.5z" />
    <glyph glyph-name="uni2782" unicode="&#x2782;" horiz-adv-x="830" 
d="M415 -10q-163 0 -271.5 112.5t-108.5 272.5q0 161 108.5 273t271.5 112t271.5 -112t108.5 -273q0 -160 -108.5 -272.5t-271.5 -112.5zM415 703q-136 0 -226.5 -95.5t-90.5 -232.5t90.5 -232t226.5 -95t227 95t91 232t-91 232.5t-227 95.5zM416 174q-73 0 -117 35.5
t-44 96.5h101q0 -23 15.5 -36t40.5 -13q22 0 36 11.5t14 30.5q0 41 -53 41h-38v79h38q20 0 31.5 9.5t11.5 25.5q0 35 -45 35t-45 -43h-100q0 61 39 95t109 34q66 0 106 -31t40 -81q0 -53 -47 -80q57 -30 57 -91q0 -56 -40.5 -87t-109.5 -31z" />
    <glyph glyph-name="uni2783" unicode="&#x2783;" horiz-adv-x="830" 
d="M415 -10q-163 0 -271.5 112.5t-108.5 272.5q0 161 108.5 273t271.5 112t271.5 -112t108.5 -273q0 -160 -108.5 -272.5t-271.5 -112.5zM415 703q-136 0 -226.5 -95.5t-90.5 -232.5t90.5 -232t226.5 -95t227 95t91 232t-91 232.5t-227 95.5zM323 330h78v166zM561 247h-58
v-67h-102v67h-171v80l116 242h157v-239h58v-83z" />
    <glyph glyph-name="uni2784" unicode="&#x2784;" horiz-adv-x="830" 
d="M415 -10q-163 0 -271.5 112.5t-108.5 272.5q0 161 108.5 273t271.5 112t271.5 -112t108.5 -273q0 -160 -108.5 -272.5t-271.5 -112.5zM415 703q-136 0 -226.5 -95.5t-90.5 -232.5t90.5 -232t226.5 -95t227 95t91 232t-91 232.5t-227 95.5zM414 174q-69 0 -111 36.5
t-42 94.5h102q0 -21 13.5 -33.5t37.5 -12.5q23 0 36.5 15t13.5 39q0 25 -14 41t-40 16q-18 0 -30.5 -7.5t-14.5 -17.5h-97v224h276v-85h-185v-70q28 31 75 31q56 0 94 -36.5t38 -95.5q0 -62 -42 -100.5t-110 -38.5z" />
    <glyph glyph-name="uni2785" unicode="&#x2785;" horiz-adv-x="830" 
d="M415 -10q-163 0 -271.5 112.5t-108.5 272.5q0 161 108.5 273t271.5 112t271.5 -112t108.5 -273q0 -160 -108.5 -272.5t-271.5 -112.5zM415 703q-136 0 -226.5 -95.5t-90.5 -232.5t90.5 -232t226.5 -95t227 95t91 232t-91 232.5t-227 95.5zM561 302q0 -60 -41.5 -94
t-104.5 -34q-73 0 -118.5 49.5t-45.5 151.5q0 99 47.5 149.5t116.5 50.5q60 0 101 -35t41 -89h-96q-1 18 -12.5 29.5t-32.5 11.5q-28 0 -45.5 -26.5t-17.5 -79.5q28 45 85 45q50 0 86.5 -32.5t36.5 -96.5zM415 254q21 0 34.5 13.5t13.5 34.5t-14 34.5t-34 13.5t-33.5 -13.5
t-13.5 -34.5t13.5 -34.5t33.5 -13.5z" />
    <glyph glyph-name="uni2786" unicode="&#x2786;" horiz-adv-x="830" 
d="M415 -10q-163 0 -271.5 112.5t-108.5 272.5q0 161 108.5 273t271.5 112t271.5 -112t108.5 -273q0 -160 -108.5 -272.5t-271.5 -112.5zM415 703q-136 0 -226.5 -95.5t-90.5 -232.5t90.5 -232t226.5 -95t227 95t91 232t-91 232.5t-227 95.5zM458 180h-108v22
q0 85 31.5 149.5t87.5 130.5h-181v87h267v-113q-54 -71 -75.5 -120t-21.5 -132v-24z" />
    <glyph glyph-name="uni2787" unicode="&#x2787;" horiz-adv-x="830" 
d="M415 -10q-163 0 -271.5 112.5t-108.5 272.5q0 161 108.5 273t271.5 112t271.5 -112t108.5 -273q0 -160 -108.5 -272.5t-271.5 -112.5zM415 703q-136 0 -226.5 -95.5t-90.5 -232.5t90.5 -232t226.5 -95t227 95t91 232t-91 232.5t-227 95.5zM415 174q-71 0 -111 32.5
t-40 88.5q0 57 54 91q-43 30 -43 78q0 51 37.5 81t102.5 30q66 0 103.5 -30t37.5 -81q0 -48 -43 -78q55 -34 55 -91q0 -56 -41 -88.5t-112 -32.5zM415 420q18 0 29 10.5t11 27.5t-11 27t-29 10t-28.5 -10t-10.5 -27t10.5 -27.5t28.5 -10.5zM415 254q24 0 37.5 13t13.5 34
t-13.5 34t-37.5 13q-23 0 -36.5 -13t-13.5 -34t13.5 -34t36.5 -13z" />
    <glyph glyph-name="uni2788" unicode="&#x2788;" horiz-adv-x="830" 
d="M415 -10q-163 0 -271.5 112.5t-108.5 272.5q0 161 108.5 273t271.5 112t271.5 -112t108.5 -273q0 -160 -108.5 -272.5t-271.5 -112.5zM415 703q-136 0 -226.5 -95.5t-90.5 -232.5t90.5 -232t226.5 -95t227 95t91 232t-91 232.5t-227 95.5zM415 494q-21 0 -34.5 -13.5
t-13.5 -34.5t13.5 -34t34.5 -13q20 0 33.5 13t13.5 34t-13.5 34.5t-33.5 13.5zM415 174q-59 0 -100.5 35t-41.5 88h96q1 -18 13 -29t32 -11q29 0 46 26.5t17 78.5q-27 -44 -85 -44q-50 0 -86.5 32.5t-36.5 95.5q0 61 41.5 95t104.5 34q73 0 118.5 -49.5t45.5 -152.5
q0 -98 -47.5 -148.5t-116.5 -50.5z" />
    <glyph glyph-name="uni2789" unicode="&#x2789;" horiz-adv-x="830" 
d="M415 -10q-163 0 -271.5 112.5t-108.5 272.5q0 161 108.5 273t271.5 112t271.5 -112t108.5 -273q0 -160 -108.5 -272.5t-271.5 -112.5zM415 703q-136 0 -226.5 -95.5t-90.5 -232.5t90.5 -232t226.5 -95t227 95t91 232t-91 232.5t-227 95.5zM528 175q-72 0 -115 50.5
t-43 149.5t43.5 150t114.5 51t114 -51t43 -150t-43 -149.5t-114 -50.5zM231 563v6h107v-389h-110v242h-71v82h18q30 0 43 13.5t13 45.5zM528 268q52 0 52 107q0 112 -52 112q-54 0 -54 -112q0 -107 54 -107z" />
    <glyph glyph-name="uni278A" unicode="&#x278a;" horiz-adv-x="830" 
d="M415 -10q-163 0 -271.5 112.5t-108.5 272.5q0 161 108.5 273t271.5 112t271.5 -112t108.5 -273q0 -160 -108.5 -272.5t-271.5 -112.5zM375 563q0 -31 -13.5 -45t-42.5 -14h-19v-82h72v-242h109v389h-106v-6z" />
    <glyph glyph-name="uni278B" unicode="&#x278b;" horiz-adv-x="830" 
d="M415 -10q-163 0 -271.5 112.5t-108.5 272.5q0 161 108.5 273t271.5 112t271.5 -112t108.5 -273q0 -160 -108.5 -272.5t-271.5 -112.5zM550 455q0 57 -40 88.5t-100 31.5q-62 0 -101.5 -32.5t-39.5 -91.5v-21h98v13q0 46 43 46q18 0 29 -10.5t11 -27.5t-19 -36.5
t-46 -38.5t-53.5 -41t-45.5 -53.5t-19 -66.5v-35h285v86h-156q10 17 50.5 47t72 65.5t31.5 76.5z" />
    <glyph glyph-name="uni278C" unicode="&#x278c;" horiz-adv-x="830" 
d="M415 -10q-163 0 -271.5 112.5t-108.5 272.5q0 161 108.5 273t271.5 112t271.5 -112t108.5 -273q0 -160 -108.5 -272.5t-271.5 -112.5zM416 174q69 0 109.5 31t40.5 87q0 61 -57 91q47 27 47 80q0 50 -40 81t-106 31q-70 0 -109 -34t-39 -95h100q0 43 45 43t45 -35
q0 -16 -11.5 -25.5t-31.5 -9.5h-38v-79h38q53 0 53 -41q0 -19 -14 -30.5t-36 -11.5q-25 0 -40.5 13t-15.5 36h-101q0 -61 44 -96.5t117 -35.5z" />
    <glyph glyph-name="uni278D" unicode="&#x278d;" horiz-adv-x="830" 
d="M415 -10q-163 0 -271.5 112.5t-108.5 272.5q0 161 108.5 273t271.5 112t271.5 -112t108.5 -273q0 -160 -108.5 -272.5t-271.5 -112.5zM561 247v83h-58v239h-157l-116 -242v-80h171v-67h102v67h58zM323 330l78 166v-166h-78z" />
    <glyph glyph-name="uni278E" unicode="&#x278e;" horiz-adv-x="830" 
d="M415 -10q-163 0 -271.5 112.5t-108.5 272.5q0 161 108.5 273t271.5 112t271.5 -112t108.5 -273q0 -160 -108.5 -272.5t-271.5 -112.5zM414 174q68 0 110 38.5t42 100.5q0 59 -38 95.5t-94 36.5q-49 0 -75 -31v70h185v85h-276v-224h97q2 10 14.5 17.5t30.5 7.5
q26 0 40 -16t14 -41q0 -24 -13.5 -39t-36.5 -15q-24 0 -37.5 12.5t-13.5 33.5h-102q0 -58 42 -94.5t111 -36.5z" />
    <glyph glyph-name="uni278F" unicode="&#x278f;" horiz-adv-x="830" 
d="M415 -10q-163 0 -271.5 112.5t-108.5 272.5q0 161 108.5 273t271.5 112t271.5 -112t108.5 -273q0 -160 -108.5 -272.5t-271.5 -112.5zM415 174q63 0 104.5 34t41.5 94q0 64 -36.5 96.5t-86.5 32.5q-57 0 -85 -45q0 53 17.5 79.5t45.5 26.5q21 0 32.5 -11.5t12.5 -29.5h96
q0 54 -41 89t-101 35q-69 0 -116.5 -50.5t-47.5 -149.5q0 -102 45.5 -151.5t118.5 -49.5zM415 254q-20 0 -33.5 13.5t-13.5 34.5t13.5 34.5t33.5 13.5t34 -13.5t14 -34.5t-13.5 -34.5t-34.5 -13.5z" />
    <glyph glyph-name="uni2790" unicode="&#x2790;" horiz-adv-x="830" 
d="M415 -10q-163 0 -271.5 112.5t-108.5 272.5q0 161 108.5 273t271.5 112t271.5 -112t108.5 -273q0 -160 -108.5 -272.5t-271.5 -112.5zM458 180v24q0 83 21.5 132t75.5 120v113h-267v-87h181q-56 -65 -87.5 -129.5t-31.5 -150.5v-22h108z" />
    <glyph glyph-name="uni2791" unicode="&#x2791;" horiz-adv-x="830" 
d="M415 -10q-163 0 -271.5 112.5t-108.5 272.5q0 161 108.5 273t271.5 112t271.5 -112t108.5 -273q0 -160 -108.5 -272.5t-271.5 -112.5zM415 174q71 0 112 32.5t41 88.5q0 57 -55 91q43 30 43 78q0 51 -37.5 81t-103.5 30q-65 0 -102.5 -30t-37.5 -81q0 -48 43 -78
q-54 -34 -54 -91q0 -56 40 -88.5t111 -32.5zM415 420q-18 0 -28.5 10.5t-10.5 27.5t10.5 27t28.5 10t29 -10t11 -27t-11 -27.5t-29 -10.5zM415 254q-23 0 -36.5 13t-13.5 34t13.5 34t36.5 13q24 0 37.5 -13t13.5 -34t-13.5 -34t-37.5 -13z" />
    <glyph glyph-name="uni2792" unicode="&#x2792;" horiz-adv-x="830" 
d="M415 -10q-163 0 -271.5 112.5t-108.5 272.5q0 161 108.5 273t271.5 112t271.5 -112t108.5 -273q0 -160 -108.5 -272.5t-271.5 -112.5zM415 494q20 0 33.5 -13.5t13.5 -34.5t-13.5 -34t-33.5 -13q-21 0 -34.5 13t-13.5 34t13.5 34.5t34.5 13.5zM415 174q69 0 116.5 50.5
t47.5 148.5q0 103 -45.5 152.5t-118.5 49.5q-63 0 -104.5 -34t-41.5 -95q0 -63 36.5 -95.5t86.5 -32.5q58 0 85 45q-1 -106 -63 -106q-20 0 -32 11t-13 29h-96q0 -53 41.5 -88t100.5 -35z" />
    <glyph glyph-name="uni2793" unicode="&#x2793;" horiz-adv-x="830" 
d="M415 -10q-163 0 -271.5 112.5t-108.5 272.5q0 161 108.5 273t271.5 112t271.5 -112t108.5 -273q0 -160 -108.5 -272.5t-271.5 -112.5zM528 175q71 0 114 50.5t43 149.5t-43 150t-114 51t-114.5 -51t-43.5 -150t43 -149.5t115 -50.5zM231 563q0 -32 -13 -45.5t-43 -13.5
h-18v-82h71v-242h110v389h-107v-6zM528 268q-54 0 -54 107q0 112 54 112q52 0 52 -112q0 -107 -52 -107z" />
    <glyph glyph-name="uni27F7" unicode="&#x27f7;" horiz-adv-x="870" 
d="M604 86l-64 64l107 108h-424l107 -108l-64 -64l-217 218l217 217l64 -64l-109 -109h428l-109 109l64 64l217 -217z" />
    <glyph glyph-name="dotlessj" unicode="&#xf6be;" horiz-adv-x="265" 
d="M60 -66v566h145v-571q0 -182 -184 -182q-40 0 -64 6v120q18 -3 38 -3q33 0 49 14t16 50z" />
    <glyph glyph-name="commaaccent" unicode="&#xf6c3;" horiz-adv-x="500" 
d="M249 -210h-95l25 150h142z" />
    <glyph glyph-name="centinferior" unicode="&#xf6df;" horiz-adv-x="358" 
d="M109 -86q0 -64 48 -78v154q-48 -16 -48 -76zM349 -118q-9 -57 -47.5 -93.5t-98.5 -43.5v-76h-46v76q-65 8 -107 54.5t-42 114.5q0 67 42 113t107 54v75h46v-75q57 -6 95.5 -40.5t49.5 -89.5h-105q-13 30 -40 38v-152q31 9 42 45h104z" />
    <glyph glyph-name="centsuperior" unicode="&#xf6e0;" horiz-adv-x="358" 
d="M109 426q0 -64 48 -78v154q-48 -16 -48 -76zM349 394q-9 -57 -47.5 -93.5t-98.5 -43.5v-76h-46v76q-65 8 -107 54.5t-42 114.5q0 67 42 113t107 54v75h46v-75q57 -6 95.5 -40.5t49.5 -89.5h-105q-13 30 -40 38v-152q31 9 42 45h104z" />
    <glyph glyph-name="commainferior" unicode="&#xf6e1;" horiz-adv-x="152" 
d="M75 -340h-53q33 48 45 85q-19 3 -32.5 19t-13.5 36q0 22 16 38t39 16q25 0 41 -18t16 -44q0 -52 -58 -132z" />
    <glyph glyph-name="commasuperior" unicode="&#xf6e2;" horiz-adv-x="153" 
d="M75 172h-53q33 48 45 85q-19 3 -32.5 19t-13.5 36q0 22 16 38t39 16q25 0 41 -18t16 -44q0 -52 -58 -132z" />
    <glyph glyph-name="dollarinferior" unicode="&#xf6e3;" horiz-adv-x="328" 
d="M119 36q0 -20 25 -32v64q-25 -8 -25 -32zM215 -145q0 21 -26 34v-67q26 8 26 33zM189 -331h-45v76q-57 6 -92 39.5t-35 87.5h96q0 -38 31 -49v83q-27 9 -42.5 15.5t-36.5 20.5t-31 36t-10 53q0 49 33.5 79t86.5 34v77h45v-78q52 -8 85 -41.5t33 -79.5h-94q0 28 -24 41
v-75l34.5 -12t31.5 -15t30 -22.5t18 -31t8 -44.5q0 -51 -33.5 -82t-88.5 -36v-76z" />
    <glyph glyph-name="dollarsuperior" unicode="&#xf6e4;" horiz-adv-x="328" 
d="M119 548q0 -20 25 -32v64q-25 -8 -25 -32zM215 367q0 21 -26 34v-67q26 8 26 33zM189 181h-45v76q-57 6 -92 39.5t-35 87.5h96q0 -38 31 -49v83q-27 9 -42.5 15.5t-36.5 20.5t-31 36t-10 53q0 49 33.5 79t86.5 34v77h45v-78q52 -8 85 -41.5t33 -79.5h-94q0 28 -24 41v-75
l34.5 -12t31.5 -15t30 -22.5t18 -31t8 -44.5q0 -51 -33.5 -82t-88.5 -36v-76z" />
    <glyph glyph-name="periodinferior" unicode="&#xf6e7;" horiz-adv-x="152" 
d="M77 -256q-25 0 -41 16.5t-16 40.5q0 23 16 39.5t41 16.5q24 0 40.5 -16.5t16.5 -39.5q0 -24 -16.5 -40.5t-40.5 -16.5z" />
    <glyph glyph-name="periodsuperior" unicode="&#xf6e8;" horiz-adv-x="153" 
d="M77 256q-25 0 -41 16.5t-16 40.5q0 23 16 39.5t41 16.5q24 0 40.5 -16.5t16.5 -39.5q0 -24 -16.5 -40.5t-40.5 -16.5z" />
    <glyph glyph-name="CR" horiz-adv-x="250" 
 />
    <glyph glyph-name="thinspace" horiz-adv-x="125" 
 />
    <glyph glyph-name="fi.cap" horiz-adv-x="699" 
d="M639 0h-145v750h145v-750zM387 300h-183v-300h-144v750h354v-127h-210v-195h183v-128z" />
    <glyph glyph-name="fl.cap" horiz-adv-x="868" 
d="M387 300h-183v-300h-144v750h354v-127h-210v-195h183v-128zM494 0v750h145v-622h219v-128h-364z" />
    <glyph glyph-name="germandbls.cap" horiz-adv-x="970" 
d="M526 567q0 99 56.5 147.5t146.5 48.5q89 0 146.5 -51.5t57.5 -148.5v-53h-139v50q0 80 -65 80q-29 0 -46 -17t-17 -49q0 -34 18 -57t58 -53l86 -63q115 -86 115 -205q0 -100 -60.5 -154.5t-152.5 -54.5q-91 0 -151.5 53.5t-60.5 147.5v62h140v-55q0 -39 19.5 -62
t52.5 -23t52.5 18.5t19.5 50.5q0 37 -19.5 63t-60.5 57l-82 61q-55 40 -84.5 88.5t-29.5 118.5zM41 567q0 99 56.5 147.5t146.5 48.5q89 0 146.5 -51.5t57.5 -148.5v-53h-139v50q0 80 -65 80q-28 0 -45.5 -17t-17.5 -49q0 -34 18 -57t58 -53l86 -63q115 -86 115 -205
q0 -100 -60.5 -154.5t-152.5 -54.5q-91 0 -151.5 53.5t-60.5 147.5v62h140v-55q0 -39 19.5 -62t52.5 -23t52.5 18.5t19.5 50.5q0 37 -19.5 63t-60.5 57l-82 61q-55 40 -84.5 88.5t-29.5 118.5z" />
    <glyph glyph-name="Schwa" horiz-adv-x="570" 
d="M285 -13q-112 0 -173.5 66.5t-61.5 194.5v152h325v105q0 70 -23 100t-67 30t-67 -30t-23 -100v-44h-145v42q0 128 61.5 194t173.5 66t173.5 -66t61.5 -194v-255q0 -128 -62 -194.5t-173 -66.5zM285 115q44 0 67 30t23 100v33h-180v-33q0 -70 23 -100t67 -30z" />
    <glyph glyph-name="a.alt" horiz-adv-x="615" 
d="M291 381q-52 0 -85 -36t-33 -95t33 -95t85 -36t85.5 36t33.5 95t-33.5 95t-85.5 36zM413 0v64q-58 -74 -150 -74q-103 0 -168 72t-65 188t65 188t168 72q92 0 150 -74v64h142v-500h-142z" />
    <glyph glyph-name="g.alt" horiz-adv-x="615" 
d="M291 119q52 0 85.5 36t33.5 95t-33.5 95t-85.5 36t-85 -36t-33 -95t33 -95t85 -36zM298 -260q-105 0 -174.5 60t-83.5 160h141q7 -45 38 -72.5t76 -27.5q54 0 84.5 36.5t30.5 96.5v67q-59 -70 -147 -70q-103 0 -168 72t-65 188t65 188t168 72q92 0 150 -74v64h142v-505
q0 -113 -74 -184t-183 -71z" />
    <glyph glyph-name="agrave.alt" horiz-adv-x="615" 
d="M242 600l-93 150h150l58 -150h-115zM291 381q-52 0 -85 -36t-33 -95t33 -95t85 -36t85.5 36t33.5 95t-33.5 95t-85.5 36zM413 0v64q-58 -74 -150 -74q-103 0 -168 72t-65 188t65 188t168 72q92 0 150 -74v64h142v-500h-142z" />
    <glyph glyph-name="aacute.alt" horiz-adv-x="615" 
d="M357 600h-115l57 150h150zM291 381q-52 0 -85 -36t-33 -95t33 -95t85 -36t85.5 36t33.5 95t-33.5 95t-85.5 36zM413 0v64q-58 -74 -150 -74q-103 0 -168 72t-65 188t65 188t168 72q92 0 150 -74v64h142v-500h-142z" />
    <glyph glyph-name="acircumflex.alt" horiz-adv-x="615" 
d="M357 600l-63 74l-62 -74h-113l98 150h155l97 -150h-112zM291 381q-52 0 -85 -36t-33 -95t33 -95t85 -36t85.5 36t33.5 95t-33.5 95t-85.5 36zM413 0v64q-58 -74 -150 -74q-103 0 -168 72t-65 188t65 188t168 72q92 0 150 -74v64h142v-500h-142z" />
    <glyph glyph-name="atilde.alt" horiz-adv-x="615" 
d="M122 600v48q0 102 88 102q34 0 81 -25.5t62 -25.5q29 0 29 34v17h85v-47q0 -103 -89 -103q-34 0 -80.5 25.5t-61.5 25.5q-29 0 -29 -34v-17h-85zM291 381q-52 0 -85 -36t-33 -95t33 -95t85 -36t85.5 36t33.5 95t-33.5 95t-85.5 36zM413 0v64q-58 -74 -150 -74
q-103 0 -168 72t-65 188t65 188t168 72q92 0 150 -74v64h142v-500h-142z" />
    <glyph glyph-name="adieresis.alt" horiz-adv-x="615" 
d="M396 605q-28 0 -48.5 20.5t-20.5 49.5t20.5 49.5t48.5 20.5q30 0 50 -20.5t20 -49.5t-20 -49.5t-50 -20.5zM192 605q-28 0 -49 20.5t-21 49.5t20.5 49.5t49.5 20.5t49.5 -20.5t20.5 -49.5t-20.5 -49.5t-49.5 -20.5zM291 381q-52 0 -85 -36t-33 -95t33 -95t85 -36t85.5 36
t33.5 95t-33.5 95t-85.5 36zM413 0v64q-58 -74 -150 -74q-103 0 -168 72t-65 188t65 188t168 72q92 0 150 -74v64h142v-500h-142z" />
    <glyph glyph-name="amacron.alt" horiz-adv-x="615" 
d="M440 700v-92h-285v92h285zM291 381q-52 0 -85 -36t-33 -95t33 -95t85 -36t85.5 36t33.5 95t-33.5 95t-85.5 36zM413 0v64q-58 -74 -150 -74q-103 0 -168 72t-65 188t65 188t168 72q92 0 150 -74v64h142v-500h-142z" />
    <glyph glyph-name="abreve.alt" horiz-adv-x="615" 
d="M351 750h103q0 -71 -43 -111.5t-117 -40.5q-73 0 -115.5 40t-42.5 112h102q0 -30 16 -45t40 -15q57 0 57 60zM291 381q-52 0 -85 -36t-33 -95t33 -95t85 -36t85.5 36t33.5 95t-33.5 95t-85.5 36zM413 0v64q-58 -74 -150 -74q-103 0 -168 72t-65 188t65 188t168 72
q92 0 150 -74v64h142v-500h-142z" />
    <glyph glyph-name="aring.alt" horiz-adv-x="615" 
d="M294 570q-49 0 -80 27t-31 68q0 40 31 67.5t80 27.5t80.5 -27.5t31.5 -67.5q0 -41 -31 -68t-81 -27zM294 633q15 0 25 9t10 23t-10 23.5t-25 9.5q-14 0 -23.5 -9.5t-9.5 -23.5t9.5 -23t23.5 -9zM291 381q-52 0 -85 -36t-33 -95t33 -95t85 -36t85.5 36t33.5 95t-33.5 95
t-85.5 36zM413 0v64q-58 -74 -150 -74q-103 0 -168 72t-65 188t65 188t168 72q92 0 150 -74v64h142v-500h-142z" />
    <glyph glyph-name="aringacute.alt" horiz-adv-x="615" 
d="M349 820h-115l57 150h150zM294 570q-49 0 -80 27t-31 68q0 40 31 67.5t80 27.5t80.5 -27.5t31.5 -67.5q0 -41 -31 -68t-81 -27zM294 633q15 0 25 9t10 23t-10 23.5t-25 9.5q-14 0 -23.5 -9.5t-9.5 -23.5t9.5 -23t23.5 -9zM291 381q-52 0 -85 -36t-33 -95t33 -95t85 -36
t85.5 36t33.5 95t-33.5 95t-85.5 36zM413 0v64q-58 -74 -150 -74q-103 0 -168 72t-65 188t65 188t168 72q92 0 150 -74v64h142v-500h-142z" />
    <glyph glyph-name="aogonek.alt" horiz-adv-x="615" 
d="M291 381q-52 0 -85 -36t-33 -95q0 -58 33.5 -94.5t84.5 -36.5q52 0 85.5 36.5t33.5 94.5q0 59 -33.5 95t-85.5 36zM421 0h-8v64q-58 -74 -150 -74q-103 0 -168 72t-65 188t65 188t168 72q92 0 150 -74v64h142v-500h-59q-76 -106 -76 -151q0 -32 33 -32q30 0 35 32h91
q0 -47 -35 -75t-93 -28q-55 0 -88 24.5t-33 66.5q0 16 4.5 31.5t16 34.5t18.5 29.5t26.5 35t25.5 32.5z" />
    <glyph glyph-name="ae.alt" horiz-adv-x="955" 
d="M672 391q-95 0 -113 -96h227q-20 96 -114 96zM291 381q-52 0 -85 -36t-33 -95q0 -58 33.5 -94.5t84.5 -36.5q52 0 85.5 36.5t33.5 94.5q0 59 -33.5 95t-85.5 36zM913 158q-23 -82 -84 -125t-152 -43q-79 0 -133 56v-46h-132v63q-59 -73 -149 -73q-103 0 -168 72t-65 188
t65 188t168 72q90 0 149 -73v63h132v-47q55 57 135 57q108 0 177 -73t69 -187q0 -14 -2 -40h-365q18 -101 119 -101q68 0 90 49h146z" />
    <glyph glyph-name="aeacute.alt" horiz-adv-x="955" 
d="M540 600h-115l57 150h150zM672 391q-95 0 -113 -96h227q-20 96 -114 96zM291 381q-52 0 -85 -36t-33 -95q0 -58 33.5 -94.5t84.5 -36.5q52 0 85.5 36.5t33.5 94.5q0 59 -33.5 95t-85.5 36zM913 158q-23 -82 -84 -125t-152 -43q-79 0 -133 56v-46h-132v63
q-59 -73 -149 -73q-103 0 -168 72t-65 188t65 188t168 72q90 0 149 -73v63h132v-47q55 57 135 57q108 0 177 -73t69 -187q0 -14 -2 -40h-365q18 -101 119 -101q68 0 90 49h146z" />
    <glyph glyph-name="gcircumflex.alt" horiz-adv-x="615" 
d="M357 600l-63 74l-62 -74h-113l98 150h155l97 -150h-112zM291 119q52 0 85.5 36t33.5 95t-33.5 95t-85.5 36t-85 -36t-33 -95t33 -95t85 -36zM298 -260q-105 0 -174.5 60t-83.5 160h141q7 -45 38 -72.5t76 -27.5q54 0 84.5 36.5t30.5 96.5v67q-59 -70 -147 -70
q-103 0 -168 72t-65 188t65 188t168 72q92 0 150 -74v64h142v-505q0 -113 -74 -184t-183 -71z" />
    <glyph glyph-name="gbreve.alt" horiz-adv-x="615" 
d="M351 750h103q0 -71 -43 -111.5t-117 -40.5q-73 0 -115.5 40t-42.5 112h102q0 -30 16 -45t40 -15q57 0 57 60zM291 119q52 0 85.5 36t33.5 95t-33.5 95t-85.5 36t-85 -36t-33 -95t33 -95t85 -36zM298 -260q-105 0 -174.5 60t-83.5 160h141q7 -45 38 -72.5t76 -27.5
q54 0 84.5 36.5t30.5 96.5v67q-59 -70 -147 -70q-103 0 -168 72t-65 188t65 188t168 72q92 0 150 -74v64h142v-505q0 -113 -74 -184t-183 -71z" />
    <glyph glyph-name="gdotaccent.alt" horiz-adv-x="615" 
d="M294 598q-33 0 -55 22.5t-22 54.5q0 34 22 56t55 22q34 0 56 -22t22 -56q0 -33 -22 -55t-56 -22zM291 119q52 0 85.5 36t33.5 95t-33.5 95t-85.5 36t-85 -36t-33 -95t33 -95t85 -36zM298 -260q-105 0 -174.5 60t-83.5 160h141q7 -45 38 -72.5t76 -27.5q54 0 84.5 36.5
t30.5 96.5v67q-59 -70 -147 -70q-103 0 -168 72t-65 188t65 188t168 72q92 0 150 -74v64h142v-505q0 -113 -74 -184t-183 -71z" />
    <glyph glyph-name="gcommaaccent.alt" horiz-adv-x="615" 
d="M303 780h95l-25 -150h-143zM291 119q52 0 85.5 36t33.5 95t-33.5 95t-85.5 36t-85 -36t-33 -95t33 -95t85 -36zM298 -260q-105 0 -174.5 60t-83.5 160h141q7 -45 38 -72.5t76 -27.5q54 0 84.5 36.5t30.5 96.5v67q-59 -70 -147 -70q-103 0 -168 72t-65 188t65 188t168 72
q92 0 150 -74v64h142v-505q0 -113 -74 -184t-183 -71z" />
    <glyph glyph-name="idotaccent" horiz-adv-x="265" 
d="M132 598q-33 0 -55 22.5t-22 54.5q0 34 22 56t55 22q34 0 56 -22t22 -56q0 -33 -22 -55t-56 -22zM205 0h-145v500h145v-500z" />
    <glyph glyph-name="schwa" horiz-adv-x="566" 
d="M283 -10q-111 0 -182 73t-71 187q0 14 2 40h365q-17 102 -118 102q-69 0 -90 -49h-147q23 81 85.5 124t155.5 43q111 0 182 -73t71 -187t-71 -187t-182 -73zM283 109q94 0 113 96h-226q18 -96 113 -96z" />
    <glyph glyph-name="a.superior" horiz-adv-x="358" 
d="M162 329q26 0 43.5 15.5t17.5 43.5v20q-14 -7 -41 -13t-42 -13t-15 -23q0 -14 10.5 -22t26.5 -8zM226 262v53q-28 -59 -104 -59q-42 0 -73 24.5t-31 68.5q0 37 21 59.5t50.5 29.5t59.5 11t51 12t21 25q0 15 -12 24t-31 9q-47 0 -47 -45h-103q0 61 44.5 90.5t109.5 29.5
q64 0 106 -27t42 -84v-221h-104z" />
    <glyph glyph-name="b.superior" horiz-adv-x="400" 
d="M237 256q-60 0 -97 48v-42h-106v488h109v-200q36 44 94 44q65 0 105.5 -46t40.5 -123q0 -76 -40.5 -122.5t-105.5 -46.5zM210 499q-30 0 -48.5 -20.5t-18.5 -53.5t19 -53t48 -20q30 0 49 20t19 53t-19 53.5t-49 20.5z" />
    <glyph glyph-name="c.superior" horiz-adv-x="372" 
d="M353 463h-109q-12 36 -58 36q-29 0 -46.5 -20t-17.5 -54t17.5 -53.5t46.5 -19.5q47 0 59 42h109q-8 -62 -53.5 -100t-114.5 -38q-73 0 -121 47.5t-48 121.5t48 121.5t121 47.5q67 0 112 -35.5t55 -95.5z" />
    <glyph glyph-name="d.superior" horiz-adv-x="400" 
d="M191 499q-30 0 -49 -20.5t-19 -53.5t19 -53t49 -20q29 0 47.5 20t18.5 53q0 34 -18.5 54t-47.5 20zM261 262v43q-36 -49 -98 -49q-65 0 -105.5 46.5t-40.5 122.5q0 77 40.5 123t105.5 46q58 0 94 -44v200h110v-488h-106z" />
    <glyph glyph-name="e.superior" horiz-adv-x="368" 
d="M184 509q-54 0 -64 -54h128q-10 54 -64 54zM345 370q-34 -114 -161 -114q-73 0 -120 47.5t-47 121.5q0 75 46.5 122t120.5 47t120.5 -47t46.5 -122q0 -17 -1 -26h-231q11 -58 67 -58q41 0 53 29h106z" />
    <glyph glyph-name="f.superior" horiz-adv-x="247" 
d="M162 627v-39h75v-84h-75v-242h-109v242h-43v84h43v42q0 64 36.5 95t97.5 31q35 0 53 -6v-86q-17 5 -36 5q-42 0 -42 -42z" />
    <glyph glyph-name="g.superior" horiz-adv-x="400" 
d="M191 351q29 0 47.5 20.5t18.5 53.5t-18.5 54t-47.5 21q-30 0 -49 -21t-19 -54t19 -53.5t49 -20.5zM195 93q-71 0 -117 39t-55 104h104q4 -27 21 -42.5t44 -15.5q31 0 48 20.5t17 55.5v46q-36 -44 -94 -44q-65 0 -105.5 46.5t-40.5 122.5t40.5 122.5t105.5 46.5
q62 0 98 -49v43h106v-332q0 -72 -49 -117.5t-123 -45.5z" />
    <glyph glyph-name="h.superior" horiz-adv-x="380" 
d="M143 443v-181h-109v488h109v-203q31 47 91 47q52 0 84.5 -32.5t32.5 -92.5v-207h-110v181q0 64 -49 64t-49 -64z" />
    <glyph glyph-name="i.superior" horiz-adv-x="175" 
d="M88 636q-27 0 -45 17.5t-18 42.5t18 42t45 17t44.5 -17t17.5 -42t-17.5 -42.5t-44.5 -17.5zM143 262h-109v326h109v-326z" />
    <glyph glyph-name="j.superior" horiz-adv-x="175" 
d="M88 636q-27 0 -45 17t-18 43q0 25 18 42t45 17t44.5 -17t17.5 -42q0 -26 -17.5 -43t-44.5 -17zM34 223v365h109v-369q0 -123 -124 -123q-23 0 -48 5v85q8 -2 25 -2q38 0 38 39z" />
    <glyph glyph-name="k.superior" horiz-adv-x="367" 
d="M245 262l-102 168v-168h-109v488h109v-301l96 139h125l-115 -147l123 -179h-127z" />
    <glyph glyph-name="l.superior" horiz-adv-x="175" 
d="M143 262h-109v488h109v-488z" />
    <glyph glyph-name="m.superior" horiz-adv-x="569" 
d="M143 446v-184h-109v326h106v-44q30 50 90 50q70 0 99 -59q29 59 99 59q50 0 81 -31.5t31 -90.5v-210h-110v184q0 61 -44 61q-45 0 -45 -61v-184h-109v184q0 61 -45 61q-44 0 -44 -61z" />
    <glyph glyph-name="n.superior" horiz-adv-x="380" 
d="M143 443v-181h-109v326h106v-45q29 51 94 51q52 0 84.5 -32.5t32.5 -92.5v-207h-110v181q0 64 -49 64t-49 -64z" />
    <glyph glyph-name="o.superior" horiz-adv-x="377" 
d="M189 256q-74 0 -123 47.5t-49 121.5q0 75 49 122t123 47t122.5 -47t48.5 -122q0 -74 -48.5 -121.5t-122.5 -47.5zM189 352q29 0 48 20t19 53t-18.5 53.5t-48.5 20.5t-49 -20.5t-19 -53.5t19 -53t49 -20z" />
    <glyph glyph-name="p.superior" horiz-adv-x="400" 
d="M210 352q30 0 49 20t19 53t-19 53.5t-49 20.5t-48.5 -20.5t-18.5 -53.5t19 -53t48 -20zM237 256q-58 0 -94 44v-200h-109v488h106v-42q36 48 97 48q65 0 105.5 -46t40.5 -123q0 -76 -40.5 -122.5t-105.5 -46.5z" />
    <glyph glyph-name="q.superior" horiz-adv-x="400" 
d="M367 100h-110v200q-36 -44 -94 -44q-65 0 -105.5 46.5t-40.5 122.5q0 77 40.5 123t105.5 46q62 0 98 -49v43h106v-488zM191 352q29 0 47.5 20t18.5 53q0 34 -18.5 54t-47.5 20q-30 0 -49 -20.5t-19 -53.5t19 -53t49 -20z" />
    <glyph glyph-name="r.superior" horiz-adv-x="249" 
d="M143 432v-170h-109v325h103v-51q28 58 86 58q12 0 16 -1v-107q-15 5 -34 5q-62 0 -62 -59z" />
    <glyph glyph-name="s.superior" horiz-adv-x="328" 
d="M311 361q0 -48 -40 -76.5t-102 -28.5q-66 0 -109 30.5t-43 83.5h100q0 -21 14 -32t37 -11q41 0 41 29q0 15 -19 22t-46.5 11.5t-55 12.5t-46.5 30.5t-19 60.5q0 47 38.5 74t97.5 27q62 0 104 -31.5t42 -78.5h-99q0 16 -13 27.5t-32 11.5q-37 0 -37 -27q0 -13 19.5 -19.5
t46.5 -11t54.5 -12.5t47 -31t19.5 -61z" />
    <glyph glyph-name="t.superior" horiz-adv-x="254" 
d="M162 383q0 -39 39 -39q19 0 36 6v-86q-26 -8 -58 -8q-126 0 -126 122v126h-43v84h43v91h109v-91h75v-84h-75v-121z" />
    <glyph glyph-name="u.superior" horiz-adv-x="377" 
d="M238 262v46q-30 -53 -93 -53q-51 0 -83 33t-32 93v207h109v-181q0 -64 48 -64t48 64v181h110v-326h-107z" />
    <glyph glyph-name="v.superior" horiz-adv-x="325" 
d="M80 262l-76 326h106l53 -267l52 267h107l-77 -326h-165z" />
    <glyph glyph-name="w.superior" horiz-adv-x="497" 
d="M71 262l-65 326h97l42 -255l41 255h126l42 -254l42 254h96l-66 -326h-135l-42 253l-41 -253h-137z" />
    <glyph glyph-name="x.superior" horiz-adv-x="338" 
d="M220 262l-53 112l-49 -112h-118l95 167l-90 159h117l48 -107l47 107h117l-90 -158l94 -168h-118z" />
    <glyph glyph-name="y.superior" horiz-adv-x="326" 
d="M64 94q-24 0 -59 7v82q24 -7 47 -7q38 0 64 24l-114 388h106l56 -253l54 253h106l-89 -321q-22 -87 -61.5 -130t-109.5 -43z" />
    <glyph glyph-name="z.superior" horiz-adv-x="306" 
d="M295 262h-278v104l159 138h-156v84h262v-103l-160 -138h173v-85z" />
    <glyph glyph-name="grave.cap" horiz-adv-x="500" 
d="M198 840l-93 150h150l58 -150h-115z" />
    <glyph glyph-name="acute.cap" horiz-adv-x="500" 
d="M313 840h-115l57 150h150z" />
    <glyph glyph-name="circumflex.cap" horiz-adv-x="500" 
d="M313 840l-63 74l-62 -74h-113l98 150h155l97 -150h-112z" />
    <glyph glyph-name="caron.cap" horiz-adv-x="500" 
d="M173 840l-98 150h113l62 -74l63 74h112l-97 -150h-155z" />
    <glyph glyph-name="caronSlovak" horiz-adv-x="500" 
d="M285 750h127l-48 -190h-79v190z" />
    <glyph glyph-name="tilde.cap" horiz-adv-x="500" 
d="M78 840v48q0 102 88 102q34 0 81 -25.5t62 -25.5q29 0 29 34v17h85v-47q0 -103 -89 -103q-34 0 -80.5 25.5t-61.5 25.5q-29 0 -29 -34v-17h-85z" />
    <glyph glyph-name="dieresis.cap" horiz-adv-x="500" 
d="M352 845q-28 0 -48.5 20.5t-20.5 49.5t20.5 49.5t48.5 20.5q30 0 50 -20.5t20 -49.5t-20 -49.5t-50 -20.5zM148 845q-28 0 -49 20.5t-21 49.5t20.5 49.5t49.5 20.5t49.5 -20.5t20.5 -49.5t-20.5 -49.5t-49.5 -20.5z" />
    <glyph glyph-name="macron.cap" horiz-adv-x="500" 
d="M396 940v-92h-285v92h285z" />
    <glyph glyph-name="breve.cap" horiz-adv-x="500" 
d="M307 990h103q0 -71 -43 -111.5t-117 -40.5q-73 0 -115.5 40t-42.5 112h102q0 -30 16 -45t40 -15q57 0 57 60z" />
    <glyph glyph-name="ring.cap" horiz-adv-x="500" 
d="M250 810q-49 0 -80 27t-31 68q0 40 31 67.5t80 27.5t80.5 -27.5t31.5 -67.5q0 -41 -31 -68t-81 -27zM250 873q15 0 25 9t10 23t-10 23.5t-25 9.5q-14 0 -23.5 -9.5t-9.5 -23.5t9.5 -23t23.5 -9z" />
    <glyph glyph-name="hungarumlaut.cap" horiz-adv-x="500" 
d="M398 840h-93l25 150h138zM208 840h-93l25 150h138z" />
    <glyph glyph-name="dotaccent.cap" horiz-adv-x="500" 
d="M250 838q-33 0 -55 22.5t-22 54.5q0 34 22 56t55 22q34 0 56 -22t22 -56q0 -33 -22 -55t-56 -22z" />
    <glyph glyph-name="commaaccent.alt" horiz-adv-x="500" 
d="M259 750h95l-25 -150h-143z" />
    <glyph glyph-name="hyphen.cap" horiz-adv-x="350" 
d="M305 315h-260v123h260v-123z" />
    <glyph glyph-name="exclamdown.cap" horiz-adv-x="270" 
d="M136 760q33 0 55.5 -22.5t22.5 -54.5t-22.5 -55t-55.5 -23q-32 0 -54.5 23t-22.5 55t22.5 54.5t54.5 22.5zM73 500h127l13 -500h-153z" />
    <glyph glyph-name="questiondown.cap" horiz-adv-x="497" 
d="M245 760q32 0 54.5 -23t22.5 -54q0 -32 -22.5 -55t-54.5 -23q-33 0 -55.5 23t-22.5 55q0 31 22.5 54t55.5 23zM20 188q0 40 16 74t39 57.5t46.5 46t40.5 51t18 61.5l1 22h127v-30q0 -49 -23 -92t-50.5 -68.5t-50.5 -57.5t-23 -62q0 -73 84 -73q40 0 65 25t25 77v32h140
v-43q0 -105 -66 -161.5t-164 -56.5q-101 0 -163 52.5t-62 145.5z" />
    <glyph glyph-name="guilsinglleft.cap" horiz-adv-x="310" 
d="M268 163l-225 145v135l225 145v-128l-144 -85l144 -85v-127z" />
    <glyph glyph-name="guilsinglright.cap" horiz-adv-x="310" 
d="M43 163v127l144 85l-144 85v128l225 -145v-135z" />
    <glyph glyph-name="guillemotleft.cap" horiz-adv-x="573" 
d="M530 163l-225 145v135l225 145v-128l-144 -85l144 -85v-127zM268 163l-225 145v135l225 145v-128l-144 -85l144 -85v-127z" />
    <glyph glyph-name="guillemotright.cap" horiz-adv-x="573" 
d="M43 163v127l144 85l-144 85v128l225 -145v-135zM305 163v127l144 85l-144 85v128l225 -145v-135z" />
    <glyph glyph-name="slash.OP" horiz-adv-x="416" 
d="M85 -150h-104l300 900h104z" />
    <glyph glyph-name="backslash.OP" horiz-adv-x="416" 
d="M329 -150l-300 900h103l300 -900h-103z" />
    <glyph glyph-name="endash.cap" horiz-adv-x="500" 
d="M455 329h-410v92h410v-92z" />
    <glyph glyph-name="emdash.cap" horiz-adv-x="1000" 
d="M955 329h-910v92h910v-92z" />
    <glyph glyph-name="periodcentered.cap" horiz-adv-x="263" 
d="M132 299q-35 0 -58.5 23.5t-23.5 57.5q0 35 23.5 58t58.5 23t58 -23t23 -58q0 -34 -23 -57.5t-58 -23.5z" />
    <glyph glyph-name="parenleft.cap" horiz-adv-x="340" 
d="M78 375q0 258 150 465h112q-140 -193 -140 -465t140 -465h-112q-150 207 -150 465z" />
    <glyph glyph-name="parenright.cap" horiz-adv-x="340" 
d="M263 375q0 -258 -150 -465h-113q140 193 140 465t-140 465h113q150 -207 150 -465z" />
    <glyph glyph-name="bracketleft.cap" horiz-adv-x="340" 
d="M83 -90v930h255v-102h-130v-726h130v-102h-255z" />
    <glyph glyph-name="bracketright.cap" horiz-adv-x="340" 
d="M3 -90v102h130v726h-130v102h255v-930h-255z" />
    <glyph glyph-name="braceleft.cap" horiz-adv-x="340" 
d="M338 -90h-60q-66 0 -107.5 41t-41.5 111v192q0 29 -15.5 44.5t-33.5 15.5h-46v122h46q18 0 33.5 15.5t15.5 44.5v192q0 70 41.5 111t107.5 41h60v-102h-29q-25 0 -40 -18t-15 -52v-189q0 -63 -57 -104q57 -41 57 -104v-189q0 -34 15 -52t40 -18h29v-102z" />
    <glyph glyph-name="braceright.cap" horiz-adv-x="340" 
d="M212 62q0 -69 -41.5 -110.5t-107.5 -41.5h-60v102h29q25 0 40 18t15 52v189q0 63 56 104q-56 41 -56 104v189q0 34 -15 52t-40 18h-29v102h60q66 0 107.5 -41.5t41.5 -110.5v-192q0 -29 15 -44.5t33 -15.5h46v-122h-46q-18 0 -33 -15.5t-15 -44.5v-192z" />
    <glyph glyph-name="at.cap" horiz-adv-x="861" 
d="M425 -10q-163 0 -274 111.5t-111 273.5q0 163 111 274t274 111q167 0 281.5 -110t114.5 -267q0 -121 -45.5 -182t-122.5 -61q-97 0 -137 72q-50 -72 -151 -72q-63 0 -109 34t-46 96q0 51 29.5 81t72 39.5t84.5 15t71.5 17.5t29.5 36q0 23 -20.5 37.5t-51.5 14.5
q-34 0 -53.5 -17t-19.5 -49h-128q0 83 58.5 123.5t144.5 40.5q85 0 142.5 -40t57.5 -122v-172q0 -70 51 -70q37 0 59 46t22 132q0 134 -96.5 227t-237.5 93q-137 0 -229.5 -94t-92.5 -234q0 -139 93 -233.5t229 -94.5q82 0 156 40l24 -53q-83 -44 -180 -44zM399 241
q42 0 70 23.5t28 64.5v23q-22 -9 -66 -16.5t-68.5 -18.5t-24.5 -35q0 -41 61 -41z" />
    <glyph glyph-name="servicemark" horiz-adv-x="926" 
d="M587 350l-72 335v-335h-90v400h171l54 -284l51 284h175v-400h-100v329l-70 -329h-119zM368 468q0 -59 -45 -93.5t-115 -34.5q-76 0 -124.5 38t-48.5 104h102q0 -26 21 -43t49 -17q25 0 42 12.5t17 30.5q0 21 -23 31t-56 15.5t-66 14.5t-56 36t-23 73q0 57 43.5 91
t110.5 34q71 0 118.5 -39.5t47.5 -97.5h-102q0 21 -19 37t-44 16q-23 0 -39 -11t-16 -28q0 -19 23.5 -28.5t56.5 -14.5t66 -14.5t56.5 -37.5t23.5 -74z" />
    <glyph glyph-name="numero" horiz-adv-x="969" 
d="M780 268q-74 0 -123 47.5t-49 121.5q0 75 49 122t123 47t122.5 -47t48.5 -122q0 -74 -48.5 -121.5t-122.5 -47.5zM780 364q29 0 48 20t19 53t-18.5 53.5t-48.5 20.5t-49 -20.5t-19 -53.5t19 -53t49 -20zM305 0l-121 508v-508h-124v600h226l120 -500v500h124v-600h-225z
M924 87h-289v95h289v-95z" />
    <glyph glyph-name="zero.slash" 
d="M275 -13q-75 0 -125 31l-9 -18h-88l37 79q-37 62 -37 159v275q0 123 58.5 186.5t163.5 63.5q75 0 125 -31l9 18h89l-37 -79q37 -60 37 -158v-275q0 -124 -58.5 -187.5t-164.5 -63.5zM195 515v-216l143 302q-19 32 -63 32q-80 0 -80 -118zM275 118q40 0 60 27t20 90v215
l-143 -300q19 -32 63 -32z" />
    <glyph glyph-name="numbersign.LP" 
d="M311 286l43 175h-116l-43 -175h116zM240 0l47 191h-116l-47 -191h-105l47 191h-66v95h90l43 175h-76v95h100l48 194h105l-48 -194h116l48 194h105l-48 -194h67v-95h-91l-43 -175h78v-95h-102l-47 -191h-105z" />
    <glyph glyph-name="Euro.LP" 
d="M530 221q0 -111 -61.5 -172.5t-160.5 -61.5t-161 64.5t-62 181.5v12h-70v77h70v109h-70v76h70v11q0 117 62 181t161 64t160.5 -61.5t61.5 -172.5v-45h-140v40q0 111 -82 111q-83 0 -83 -122v-6h120v-76h-120v-109h120v-77h-120v-7q0 -123 83 -123q82 0 82 111v43h140v-48
z" />
    <glyph glyph-name="dollar.LP" 
d="M196 574q0 -46 47 -83v149q-47 -15 -47 -66zM363 179q0 49 -50 91v-160q50 18 50 69zM313 -125h-70v114q-84 9 -137.5 61.5t-53.5 137.5v62h136v-55q0 -70 55 -86v212l-65 45q-57 39 -87.5 87t-30.5 118q0 84 50.5 133t132.5 57v114h70v-114q79 -11 128 -64.5t49 -141.5
v-52h-135v49q0 68 -42 86v-197l68 -46q119 -83 119 -202q0 -89 -52 -141.5t-135 -62.5v-114z" />
    <glyph glyph-name="cent.LP" 
d="M152 375q0 -52 25 -87t67 -45v264q-42 -10 -67 -45.5t-25 -86.5zM533 327q-9 -87 -68.5 -143t-150.5 -67v-117h-70v117q-102 11 -166.5 81.5t-64.5 176.5t64.5 176.5t166.5 81.5v117h70v-117q88 -10 146.5 -63.5t70.5 -135.5h-146q-13 55 -71 72v-262q59 18 74 83h145z
" />
    <glyph glyph-name="sterling.LP" horiz-adv-x="526" 
d="M490 128v-128h-438v64q67 78 88.5 124t21.5 114q0 8 -2 22h-98v76h62l-9 13q-9 13 -9.5 14.5t-8.5 13.5t-9.5 15.5t-7.5 15t-7.5 17t-5 16t-4.5 19t-2.5 19t-1.5 20.5q0 96 60 148t154 52q93 0 153 -57t60 -160v-23h-140v15q0 52 -19 74.5t-55 22.5q-73 0 -73 -75
q0 -26 10.5 -51t31 -58t28.5 -51h166v-76h-145q1 -5 1 -15q0 -103 -56 -181h255z" />
    <glyph glyph-name="florin.LP" horiz-adv-x="532" 
d="M442 324h-149l-122 -574h-145l122 574h-79v76h95l36 171q22 102 79 145.5t153 43.5q37 0 65 -8v-122q-21 8 -64 8q-74 0 -89 -72l-35 -166h133v-76z" />
    <glyph glyph-name="yen.LP" 
d="M461 245h-113v-245h-145v245h-117v77h117v109h-117v76h82l-137 243h139l105 -200l105 200h139l-136 -243h78v-76h-113v-109h113v-77z" />
    <glyph glyph-name="zero.slashLP" 
d="M275 -13q-75 0 -125 31l-9 -18h-88l37 79q-37 62 -37 159v275q0 123 58.5 186.5t163.5 63.5q75 0 125 -31l9 18h89l-37 -79q37 -60 37 -158v-275q0 -124 -58.5 -187.5t-164.5 -63.5zM195 515v-216l143 302q-19 32 -63 32q-80 0 -80 -118zM275 118q40 0 60 27t20 90v215
l-143 -300q19 -32 63 -32z" />
    <glyph glyph-name="zero.LP" 
d="M275 -13q-105 0 -163.5 63.5t-58.5 187.5v275q0 123 58.5 186.5t163.5 63.5q106 0 164.5 -63.5t58.5 -186.5v-275q0 -124 -58.5 -187.5t-164.5 -63.5zM275 118q40 0 60 27t20 90v280q0 63 -20.5 90.5t-59.5 27.5q-80 0 -80 -118v-280q0 -63 20 -90t60 -27z" />
    <glyph glyph-name="one.LP" horiz-adv-x="338" 
d="M135 723v27h143v-750h-145v494h-115v114h18q53 0 76 27t23 88z" />
    <glyph glyph-name="two.LP" horiz-adv-x="496" 
d="M456 549q0 -55 -22.5 -106t-57.5 -90.5t-70.5 -75.5t-66.5 -75t-42 -74h266v-128h-423v64q0 64 28.5 122.5t69 102.5t81 84t69 84.5t28.5 87.5q0 90 -65 90q-67 0 -67 -98v-55h-140v62q0 104 58 161.5t148 57.5t148 -56t58 -158z" />
    <glyph glyph-name="three.LP" horiz-adv-x="520" 
d="M265 -13q-96 0 -159 54t-63 149v55h140v-40q0 -90 82 -90q83 0 83 91v24q0 89 -88 89h-55v129h55q71 0 71 83v32q0 72 -66 72t-66 -71v-33h-140v41q0 92 58 141.5t148 49.5q89 0 147.5 -49t58.5 -136v-38q0 -95 -79 -143q96 -50 96 -157v-50q0 -95 -63.5 -149t-159.5 -54
z" />
    <glyph glyph-name="four.LP" horiz-adv-x="520" 
d="M146 238h128v390zM496 110h-80v-110h-142v110h-243v140l168 500h217v-512h80v-128z" />
    <glyph glyph-name="five.LP" horiz-adv-x="491" 
d="M250 -13q-92 0 -151.5 56t-59.5 157v35h137v-17q0 -103 74 -103q71 0 71 97v75q0 103 -71 103q-54 0 -69 -50h-132v410h387v-127h-255v-158q39 45 101 45q87 0 132 -55t45 -162v-81q0 -107 -59.5 -166t-149.5 -59z" />
    <glyph glyph-name="six.LP" 
d="M498 218q0 -109 -62.5 -170t-160.5 -61t-160 63t-62 178v295q0 115 61.5 177.5t160.5 62.5q93 0 154 -56t61 -156v-26h-142v16q0 94 -73 94q-80 0 -80 -117v-110q42 62 122 62q77 0 129 -58t52 -163v-31zM195 238v-18q0 -105 81 -105q82 0 82 105v18q0 105 -82 105
q-81 0 -81 -105z" />
    <glyph glyph-name="seven.LP" horiz-adv-x="426" 
d="M259 55v-55h-145v34q0 94 12 173.5t38 150.5t48 118.5t61 120.5q9 17 14 26h-273v127h391v-175q-6 -12 -27 -53.5t-26 -53t-21.5 -47.5t-21.5 -52t-16.5 -49.5t-15 -57.5t-9.5 -59t-7.5 -71t-1.5 -77z" />
    <glyph glyph-name="eight.LP" horiz-adv-x="530" 
d="M265 -13q-96 0 -159 54.5t-63 151.5v45q0 111 97 160q-77 48 -77 142v38q0 87 57 136t145 49t145.5 -49t57.5 -136v-38q0 -94 -78 -142q98 -50 98 -160v-45q0 -97 -63.5 -151.5t-159.5 -54.5zM199 561v-25q0 -81 66 -81t66 81v25q0 72 -66 72t-66 -72zM183 240v-32
q0 -90 82 -90q83 0 83 90v32q0 90 -83 90q-82 0 -82 -90z" />
    <glyph glyph-name="nine.LP" 
d="M355 513v17q0 105 -81 105t-81 -105v-17q0 -105 81 -105t81 105zM275 -13q-93 0 -154 56t-61 156v26h143v-16q0 -94 72 -94q80 0 80 118v109q-42 -62 -122 -62q-77 0 -128.5 58t-51.5 163v32q0 109 62 169.5t160 60.5q99 0 161 -63t62 -177v-295q0 -115 -62 -178
t-161 -63z" />
    <glyph glyph-name="numbersign.OT" 
d="M317 245l32 130h-116l-32 -130h116zM255 0l38 150h-116l-38 -150h-105l38 150h-72v95h96l32 130h-71v95h95l33 130h105l-33 -130h116l33 130h105l-33 -130h72v-95h-96l-32 -130h72v-95h-96l-38 -150h-105z" />
    <glyph glyph-name="Euro.OT" 
d="M544 205q-9 -107 -70.5 -161t-157.5 -54q-84 0 -143 49t-81 146h-82v76h71q-1 13 -1 40q0 26 1 38h-71v76h82q22 97 81 146t143 49q96 0 157.5 -54t70.5 -161h-141q-11 95 -86 95q-61 0 -83 -75h114v-76h-126q-1 -12 -1 -38q0 -28 1 -40h126v-76h-114q22 -75 83 -75
q76 0 86 95h141z" />
    <glyph glyph-name="dollar.OT" 
d="M202 442q0 -33 42 -55v108q-42 -11 -42 -53zM358 160q0 35 -44 59v-115q44 13 44 56zM314 -125h-70v117q-84 10 -136 60t-52 129h137q0 -57 51 -75v141q-32 12 -50.5 20t-45.5 24.5t-42 34.5t-26.5 47.5t-11.5 65.5q0 72 49 117t127 53v116h70v-118q77 -12 126 -63
t49 -120h-135q0 45 -40 66v-131q41 -14 65 -25.5t55 -33.5t46 -55t15 -78q0 -74 -50 -120.5t-131 -54.5v-117z" />
    <glyph glyph-name="cent.OT" 
d="M152 250q0 -52 24.5 -86.5t66.5 -45.5v264q-41 -11 -66 -46t-25 -86zM533 202q-9 -87 -68.5 -143.5t-151.5 -66.5v-117h-70v117q-102 11 -166 82t-64 176t64 176t166 82v117h70v-117q89 -10 147.5 -63t70.5 -136h-146q-13 57 -72 72v-262q61 19 75 83h145z" />
    <glyph glyph-name="sterling.OT" 
d="M491 121v-121h-436v76q54 56 72 86t18 78h-83v77h55q-1 1 -7 10.5t-7.5 11.5t-6.5 10.5t-7 12.5t-6 12.5t-5 14t-3.5 14t-3 16.5t-0.5 17q0 82 57 128t145 46q92 0 152.5 -50.5t60.5 -140.5v-15h-137v12q0 35 -20 54t-56 19q-29 0 -47 -15t-18 -45q0 -18 7 -35.5
t20 -40.5t19 -36h158v-77h-143q-3 -71 -36 -119h258z" />
    <glyph glyph-name="florin.OT" 
d="M430 240h-131l-73 -365h-145l72 365h-75v77h90l21 104q21 102 79 145.5t154 43.5q37 0 65 -8v-122q-21 8 -64 8q-74 0 -89 -72l-20 -99h116v-77z" />
    <glyph glyph-name="yen.OT" 
d="M454 185h-105v-185h-145v185h-108v76h108v78h-108v76h78l-112 185h136l79 -145l78 145h134l-111 -185h76v-76h-105v-78h105v-76z" />
    <glyph glyph-name="zero.slashOT" 
d="M275 -10q-68 0 -121 33l-14 -23h-101l53 85q-53 78 -53 215q0 153 65 231.5t171 78.5q69 0 121 -33l14 23h101l-53 -85q53 -80 53 -215q0 -154 -64.5 -232t-171.5 -78zM175 300q0 -37 5 -72l148 239q-21 18 -53 18q-100 0 -100 -185zM275 118q100 0 100 182q0 37 -5 72
l-147 -237q21 -17 52 -17z" />
    <glyph glyph-name="zero.OT" 
d="M275 -10q-106 0 -171 78t-65 232q0 153 65 231.5t171 78.5q107 0 171.5 -78.5t64.5 -231.5q0 -154 -64.5 -232t-171.5 -78zM275 118q95 0 95 182q0 185 -95 185t-95 -185q0 -182 95 -182z" />
    <glyph glyph-name="one.OT" 
d="M238 568v32h143v-600h-145v349h-130v114h25q57 0 82 24.5t25 80.5z" />
    <glyph glyph-name="two.OT" 
d="M486 426q0 -42 -21.5 -81t-54.5 -68.5t-67 -55.5t-65 -52t-43 -48h257v-121h-436v52q0 52 30 99.5t73.5 82.5t86.5 66t73 63t30 61q0 30 -20.5 47.5t-55.5 17.5q-77 0 -77 -80v-20h-137v33q0 88 60.5 138t153.5 50q92 0 152.5 -48.5t60.5 -135.5z" />
    <glyph glyph-name="three.OT" 
d="M302 -10q-106 0 -174 53t-68 145h139q0 -36 27.5 -57t70.5 -21q39 0 63 18.5t24 51.5q0 69 -92 69h-62v117h62q35 0 56 16.5t21 44.5q0 30 -22 46t-59 16q-39 0 -60.5 -18.5t-21.5 -54.5h-138q0 92 59 143t162 51q100 0 160.5 -47t60.5 -126q0 -81 -72 -123
q87 -47 87 -142q0 -88 -61 -135t-162 -47z" />
    <glyph glyph-name="four.OT" 
d="M163 230h135v278zM536 114h-100v-114h-138v114h-267v114l185 372h220v-370h100v-116z" />
    <glyph glyph-name="five.OT" 
d="M279 -10q-102 0 -165 55.5t-63 145.5h142q0 -36 23.5 -58t62.5 -22q40 0 64.5 26t24.5 68q0 43 -24.5 69t-70.5 26q-62 0 -78 -41h-133v341h413v-119h-285v-124q41 52 121 52q82 0 138.5 -57t56.5 -147q0 -96 -62.5 -155.5t-164.5 -59.5z" />
    <glyph glyph-name="six.OT" 
d="M506 189q0 -93 -62 -146t-156 -53q-110 0 -178 77.5t-68 232.5q0 152 71.5 231t174.5 79q89 0 150 -54t61 -137h-134q-1 33 -21 52t-54 19q-49 0 -77 -45t-28 -134q41 77 133 77q78 0 133 -51.5t55 -147.5zM288 108q34 0 57.5 23t23.5 58t-23.5 58t-57.5 23t-57.5 -23
t-23.5 -58t23.5 -58t57.5 -23z" />
    <glyph glyph-name="seven.OT" 
d="M320 0h-145v34q0 136 49.5 239.5t136.5 206.5h-292v120h408v-162q-45 -58 -67.5 -90t-47 -80.5t-33.5 -101t-9 -121.5v-45z" />
    <glyph glyph-name="eight.OT" 
d="M275 -10q-104 0 -164.5 50t-60.5 135q0 90 87 143q-68 47 -68 122q0 79 55.5 124.5t150.5 45.5t150.5 -45.5t55.5 -124.5q0 -75 -68 -122q87 -53 87 -143q0 -85 -60.5 -135t-164.5 -50zM275 368q32 0 50.5 18t18.5 47q0 28 -19 46t-50 18t-50 -18t-19 -46q0 -29 18.5 -47
t50.5 -18zM275 104q39 0 62.5 21.5t23.5 57.5q0 35 -23.5 56.5t-62.5 21.5t-62.5 -21.5t-23.5 -56.5q0 -36 23.5 -57.5t62.5 -21.5z" />
    <glyph glyph-name="nine.OT" 
d="M263 493q-34 0 -57.5 -23t-23.5 -59q0 -35 23.5 -58t57.5 -23t57.5 23t23.5 58q0 36 -23.5 59t-57.5 23zM263 -10q-88 0 -149.5 54.5t-61.5 136.5h134q1 -33 21.5 -52t53.5 -19q49 0 77 45.5t28 134.5q-41 -77 -133 -77q-77 0 -132 51.5t-55 146.5q0 93 61.5 146
t155.5 53q110 0 178 -77.5t68 -232.5q0 -152 -71.5 -231t-174.5 -79z" />
    <glyph glyph-name="numbersign.OP" horiz-adv-x="570" 
d="M327 245l32 130h-116l-32 -130h116zM265 0l38 150h-116l-38 -150h-105l38 150h-72v95h96l32 130h-71v95h95l33 130h105l-33 -130h116l33 130h105l-33 -130h72v-95h-96l-32 -130h72v-95h-96l-38 -150h-105z" />
    <glyph glyph-name="Euro.OP" horiz-adv-x="610" 
d="M554 205q-9 -107 -70.5 -161t-157.5 -54q-84 0 -143 49t-81 146h-82v76h71q-1 13 -1 40q0 26 1 38h-71v76h82q22 97 81 146t143 49q96 0 157.5 -54t70.5 -161h-141q-11 95 -86 95q-61 0 -83 -75h114v-76h-126q-1 -12 -1 -38q0 -28 1 -40h126v-76h-114q22 -75 83 -75
q76 0 86 95h141z" />
    <glyph glyph-name="dollar.OP" horiz-adv-x="504" 
d="M179 442q0 -33 42 -55v108q-42 -11 -42 -53zM335 160q0 35 -44 59v-115q44 13 44 56zM291 -125h-70v117q-84 10 -136 60t-52 129h137q0 -57 51 -75v141q-32 12 -50.5 20t-45.5 24.5t-42 34.5t-26.5 47.5t-11.5 65.5q0 72 49 117t127 53v116h70v-118q77 -12 126 -63
t49 -120h-135q0 45 -40 66v-131q41 -14 65 -25.5t55 -33.5t46 -55t15 -78q0 -74 -50 -120.5t-131 -54.5v-117z" />
    <glyph glyph-name="cent.OP" 
d="M152 250q0 -52 24.5 -86.5t66.5 -45.5v264q-41 -11 -66 -46t-25 -86zM533 202q-9 -87 -68.5 -143.5t-151.5 -66.5v-117h-70v117q-102 11 -166 82t-64 176t64 176t166 82v117h70v-117q89 -10 147.5 -63t70.5 -136h-146q-13 57 -72 72v-262q61 19 75 83h145z" />
    <glyph glyph-name="sterling.OP" horiz-adv-x="506" 
d="M479 121v-121h-436v76q54 55 72 85.5t18 78.5h-83v77h55q-1 1 -7 10.5t-7.5 11.5t-6.5 10.5t-7 12.5t-6 12.5t-5 14t-3.5 14t-3 16.5t-0.5 17q0 82 57 128t145 46q92 0 152.5 -50.5t60.5 -140.5v-15h-137v12q0 35 -20 54t-56 19q-29 0 -47 -15t-18 -45q0 -18 7 -35.5
t20 -40.5t19 -36h158v-77h-143q-3 -71 -36 -119h258z" />
    <glyph glyph-name="florin.OP" horiz-adv-x="532" 
d="M425 240h-131l-73 -365h-145l72 365h-75v77h90l21 104q21 102 78.5 145.5t154.5 43.5q37 0 65 -8v-122q-23 8 -64 8q-76 0 -89 -72l-20 -99h116v-77z" />
    <glyph glyph-name="yen.OP" horiz-adv-x="457" 
d="M407 185h-105v-185h-145v185h-108v76h108v78h-108v76h78l-112 185h136l79 -145l78 145h134l-111 -185h76v-76h-105v-78h105v-76z" />
    <glyph glyph-name="zero.slashOP" 
d="M275 -10q-68 0 -121 33l-14 -23h-101l53 85q-53 78 -53 215q0 153 65 231.5t171 78.5q69 0 121 -33l14 23h101l-53 -85q53 -80 53 -215q0 -154 -64.5 -232t-171.5 -78zM175 300q0 -37 5 -72l148 239q-21 18 -53 18q-100 0 -100 -185zM275 118q100 0 100 182q0 37 -5 72
l-147 -237q21 -17 52 -17z" />
    <glyph glyph-name="zero.OP" 
d="M275 -10q-106 0 -171 78t-65 232q0 153 65 231.5t171 78.5q107 0 171.5 -78.5t64.5 -231.5q0 -154 -64.5 -232t-171.5 -78zM275 118q95 0 95 182q0 185 -95 185t-95 -185q0 -182 95 -182z" />
    <glyph glyph-name="one.OP" horiz-adv-x="338" 
d="M135 590v10h143v-600h-145v386h-115v114h33q44 0 64 21t20 69z" />
    <glyph glyph-name="two.OP" horiz-adv-x="486" 
d="M459 426q0 -42 -21.5 -81t-54.5 -68.5t-67 -55.5t-65 -52t-43 -48h257v-121h-436v52q0 52 30 99.5t73.5 82.5t86.5 66t73 63t30 61q0 30 -20.5 47.5t-55.5 17.5q-77 0 -77 -80v-20h-137v33q0 89 60.5 138.5t153.5 49.5t153 -48.5t60 -135.5z" />
    <glyph glyph-name="three.OP" horiz-adv-x="530" 
d="M277 -10q-106 0 -174 53t-68 145h139q0 -36 27.5 -57t70.5 -21q39 0 63 18.5t24 51.5q0 69 -92 69h-62v117h62q35 0 56 16.5t21 44.5q0 30 -22 46t-59 16q-39 0 -60.5 -18.5t-21.5 -54.5h-138q0 92 59 143t162 51q100 0 160.5 -47t60.5 -126q0 -81 -72 -123
q87 -47 87 -142q0 -88 -61 -135t-162 -47z" />
    <glyph glyph-name="four.OP" horiz-adv-x="530" 
d="M149 230h135v278zM523 114h-100v-114h-139v114h-266v114l184 372h221v-370h100v-116z" />
    <glyph glyph-name="five.OP" horiz-adv-x="525" 
d="M274 -10q-102 0 -165 55.5t-63 145.5h142q0 -36 23.5 -58t62.5 -22q40 0 64.5 26t24.5 68q0 43 -24.5 69t-70.5 26q-62 0 -78 -41h-133v341h413v-119h-285v-124q41 52 121 52q82 0 138.5 -57t56.5 -147q0 -96 -62.5 -155.5t-164.5 -59.5z" />
    <glyph glyph-name="six.OP" horiz-adv-x="535" 
d="M503 189q0 -93 -62 -146t-156 -53q-110 0 -178 77.5t-68 232.5q0 152 71.5 231t174.5 79q89 0 150 -54t61 -137h-134q-1 33 -21 52t-54 19q-49 0 -77 -45t-28 -134q41 77 133 77q78 0 133 -51.5t55 -147.5zM285 108q34 0 57.5 23t23.5 58t-23.5 58t-57.5 23t-57.5 -23
t-23.5 -58t23.5 -58t57.5 -23z" />
    <glyph glyph-name="seven.OP" horiz-adv-x="426" 
d="M258 0h-145v34q0 136 49.5 239.5t136.5 206.5h-292v120h408v-162q-45 -58 -67.5 -90t-47 -80.5t-33.5 -101t-9 -121.5v-45z" />
    <glyph glyph-name="eight.OP" horiz-adv-x="530" 
d="M265 -10q-104 0 -164.5 50t-60.5 135q0 90 87 143q-68 47 -68 122q0 79 55.5 124.5t150.5 45.5t150.5 -45.5t55.5 -124.5q0 -75 -68 -122q87 -53 87 -143q0 -85 -60.5 -135t-164.5 -50zM265 368q32 0 50.5 18t18.5 47q0 28 -19 46t-50 18t-50 -18t-19 -46q0 -29 18.5 -47
t50.5 -18zM265 104q39 0 62.5 21.5t23.5 57.5q0 35 -23.5 56.5t-62.5 21.5t-62.5 -21.5t-23.5 -56.5q0 -36 23.5 -57.5t62.5 -21.5z" />
    <glyph glyph-name="nine.OP" horiz-adv-x="535" 
d="M250 493q-34 0 -57.5 -23t-23.5 -59q0 -35 23.5 -58t57.5 -23t57.5 23t23.5 58q0 36 -23.5 59t-57.5 23zM250 -10q-88 0 -149.5 54.5t-61.5 136.5h134q1 -33 21.5 -52t53.5 -19q49 0 77 45.5t28 134.5q-41 -77 -133 -77q-77 0 -132 51.5t-55 146.5q0 93 61.5 146
t155.5 53q110 0 178 -77.5t68 -232.5q0 -152 -71.5 -231t-174.5 -79z" />
    <glyph glyph-name="plussuperior" horiz-adv-x="325" 
d="M293 417h-97v-103h-67v103h-96v64h96v103h67v-103h97v-64z" />
    <glyph glyph-name="minussuperior" horiz-adv-x="325" 
d="M33 417v64h260v-64h-260z" />
    <glyph glyph-name="multiplysuperior" horiz-adv-x="325" 
d="M234 330l-71 72l-69 -69l-46 46l69 69l-73 72l47 47l73 -72l68 68l46 -46l-68 -68l72 -72z" />
    <glyph glyph-name="dividesuperior" horiz-adv-x="325" 
d="M121 554q0 17 12.5 30t29.5 13q18 0 30 -12.5t12 -30.5t-12 -29.5t-30 -11.5t-30 11.5t-12 29.5zM33 417v64h260v-64h-260zM121 343q0 17 12.5 29.5t29.5 12.5q18 0 30 -12.5t12 -29.5q0 -18 -12 -30t-30 -12q-17 0 -29.5 12t-12.5 30z" />
    <glyph glyph-name="equalsuperior" horiz-adv-x="325" 
d="M33 482v64h260v-64h-260zM33 352v64h260v-64h-260z" />
    <glyph glyph-name="Eurosuperior" horiz-adv-x="397" 
d="M367 421q0 -80 -42.5 -122.5t-113.5 -42.5q-58 0 -97.5 32t-52.5 94h-48v54h43v3v37v3h-43v53h48q13 62 52.5 93.5t97.5 31.5q70 0 113 -42t43 -120h-104q0 79 -52 79q-33 0 -45 -42h65v-53h-71v-3v-37v-3h71v-54h-65q11 -43 45 -43q52 0 52 82h104z" />
    <glyph glyph-name="zeroslashsuperior" horiz-adv-x="358" 
d="M179 256q-44 0 -78 19l-8 -13h-72l35 56q-35 51 -35 138q0 99 43.5 150t114.5 51q45 0 77 -19l8 12h72l-35 -55q35 -53 35 -139q0 -99 -43 -149.5t-114 -50.5zM120 456q0 -15 2 -33l85 137q-11 8 -28 8q-59 0 -59 -112zM179 349q59 0 59 107q0 15 -2 35l-84 -135
q10 -7 27 -7z" />
    <glyph glyph-name="plusinferior" horiz-adv-x="325" 
d="M293 -95h-97v-103h-67v103h-96v64h96v103h67v-103h97v-64z" />
    <glyph glyph-name="minusinferior" horiz-adv-x="325" 
d="M33 -95v64h260v-64h-260z" />
    <glyph glyph-name="multiplyinferior" horiz-adv-x="325" 
d="M234 -182l-71 71l-69 -68l-46 46l69 68l-73 73l47 47l73 -72l68 68l46 -46l-68 -68l72 -72z" />
    <glyph glyph-name="divideinferior" horiz-adv-x="325" 
d="M121 42q0 17 12.5 30t29.5 13q18 0 30 -12.5t12 -30.5t-12 -29.5t-30 -11.5t-30 11.5t-12 29.5zM33 -95v64h260v-64h-260zM121 -169q0 17 12.5 29.5t29.5 12.5q18 0 30 -12.5t12 -29.5q0 -18 -12 -30t-30 -12q-17 0 -29.5 12t-12.5 30z" />
    <glyph glyph-name="equalinferior" horiz-adv-x="325" 
d="M33 -30v64h260v-64h-260zM33 -160v64h260v-64h-260z" />
    <glyph glyph-name="Euroinferior" horiz-adv-x="397" 
d="M367 -91q0 -80 -42.5 -122.5t-113.5 -42.5q-58 0 -97.5 32t-52.5 94h-48v54h43v3v37v3h-43v53h48q13 62 52.5 93.5t97.5 31.5q70 0 113 -42t43 -120h-104q0 79 -52 79q-33 0 -45 -42h65v-53h-71v-3v-37v-3h71v-54h-65q11 -43 45 -43q52 0 52 82h104z" />
    <glyph glyph-name="zeroslashinferior" horiz-adv-x="358" 
d="M179 -256q-44 0 -78 19l-8 -13h-72l35 56q-35 51 -35 138q0 99 43.5 150t114.5 51q45 0 77 -19l8 12h72l-35 -55q35 -53 35 -139q0 -99 -43 -149.5t-114 -50.5zM120 -56q0 -15 2 -33l85 137q-11 8 -28 8q-59 0 -59 -112zM179 -163q59 0 59 107q0 15 -2 35l-84 -135
q10 -7 27 -7z" />
    <glyph glyph-name="comma.numr" horiz-adv-x="150" 
d="M75 121h-53q33 48 45 85q-19 3 -32.5 19t-13.5 36q0 22 16 38t39 16q25 0 41 -18t16 -44q0 -52 -58 -132z" />
    <glyph glyph-name="period.numr" horiz-adv-x="150" 
d="M77 205q-25 0 -41 16.5t-16 40.5t16 40t41 16q24 0 40.5 -16.5t16.5 -39.5q0 -24 -16.5 -40.5t-40.5 -16.5z" />
    <glyph glyph-name="parenleft.numr" horiz-adv-x="221" 
d="M43 546q0 168 98 303h81q-91 -126 -91 -303t91 -302h-81q-98 133 -98 302z" />
    <glyph glyph-name="parenright.numr" horiz-adv-x="221" 
d="M179 546q0 -167 -98 -302h-82q92 126 92 302q0 175 -92 303h82q98 -137 98 -303z" />
    <glyph glyph-name="plus.numr" horiz-adv-x="325" 
d="M293 516h-97v-103h-67v103h-96v64h96v103h67v-103h97v-64z" />
    <glyph glyph-name="minus.numr" horiz-adv-x="325" 
d="M33 516v64h260v-64h-260z" />
    <glyph glyph-name="multiply.numr" horiz-adv-x="325" 
d="M234 429l-71 72l-69 -69l-46 46l69 69l-73 72l47 47l73 -72l68 68l46 -46l-68 -68l72 -72z" />
    <glyph glyph-name="divide.numr" horiz-adv-x="325" 
d="M121 653q0 17 12.5 30t29.5 13q18 0 30 -12.5t12 -30.5t-12 -29.5t-30 -11.5t-30 11.5t-12 29.5zM33 516v64h260v-64h-260zM121 442q0 17 12.5 29.5t29.5 12.5q18 0 30 -12.5t12 -29.5q0 -18 -12 -30t-30 -12q-17 0 -29.5 12t-12.5 30z" />
    <glyph glyph-name="equal.numr" horiz-adv-x="325" 
d="M33 581v64h260v-64h-260zM33 451v64h260v-64h-260z" />
    <glyph glyph-name="Euro.numr" horiz-adv-x="397" 
d="M367 520q0 -80 -42.5 -122.5t-113.5 -42.5q-58 0 -97.5 32t-52.5 94h-48v54h43v3v37v3h-43v53h48q13 62 52.5 93.5t97.5 31.5q70 0 113 -42t43 -120h-104q0 79 -52 79q-33 0 -45 -42h65v-53h-71v-3v-37v-3h71v-54h-65q11 -43 45 -43q52 0 52 82h104z" />
    <glyph glyph-name="dollar.numr" horiz-adv-x="328" 
d="M119 647q0 -20 25 -32v64q-25 -8 -25 -32zM215 466q0 21 -26 34v-67q26 8 26 33zM189 280h-45v76q-57 6 -92 39.5t-35 87.5h96q0 -38 31 -49v83q-27 9 -42.5 15.5t-36.5 20.5t-31 36t-10 53q0 49 33.5 79t86.5 34v77h45v-78q52 -8 85 -41.5t33 -79.5h-94q0 28 -24 41v-75
l34.5 -12t31.5 -15t30 -22.5t18 -31t8 -44.5q0 -51 -33.5 -82t-88.5 -36v-76z" />
    <glyph glyph-name="cent.numr" horiz-adv-x="358" 
d="M109 525q0 -64 48 -78v154q-48 -16 -48 -76zM349 493q-9 -57 -47.5 -93.5t-98.5 -43.5v-76h-46v76q-65 8 -107 54.5t-42 114.5q0 67 42 113t107 54v75h46v-75q57 -6 95.5 -40.5t49.5 -89.5h-105q-13 30 -40 38v-152q31 9 42 45h104z" />
    <glyph glyph-name="zeroslash.numr" horiz-adv-x="358" 
d="M179 355q-44 0 -78 19l-8 -13h-72l35 56q-35 51 -35 138q0 99 43.5 150t114.5 51q45 0 77 -19l8 12h72l-35 -55q35 -52 35 -139q0 -99 -43 -149.5t-114 -50.5zM120 555q0 -15 2 -33l85 137q-11 8 -28 8q-59 0 -59 -112zM179 448q59 0 59 107q0 15 -2 35l-84 -135
q10 -7 27 -7z" />
    <glyph glyph-name="zero.numr" horiz-adv-x="358" 
d="M179 355q-71 0 -114.5 50.5t-43.5 149.5t43.5 150t114.5 51t114 -51t43 -150q0 -100 -42.5 -150t-114.5 -50zM179 448q52 0 52 107q0 112 -52 112q-53 0 -53 -112q0 -107 53 -107z" />
    <glyph glyph-name="one.numr" horiz-adv-x="215" 
d="M85 744v6h106v-389h-109v242h-72v82h19q29 0 42.5 14t13.5 45z" />
    <glyph glyph-name="two.numr" horiz-adv-x="316" 
d="M300 636q0 -41 -31.5 -76.5t-72 -65.5t-50.5 -47h156v-86h-285v35q0 35 19 66.5t45.5 53.5t53.5 41t46 38.5t19 36.5t-11 27.5t-29 10.5q-43 0 -43 -46v-13h-98v21q0 59 39.5 91.5t101.5 32.5q60 0 100 -31.5t40 -88.5z" />
    <glyph glyph-name="three.numr" horiz-adv-x="345" 
d="M178 355q-73 0 -117 35.5t-44 96.5h101q0 -23 15.5 -36t40.5 -13q22 0 36 11.5t14 30.5q0 41 -53 41h-38v79h38q20 0 31.5 9.5t11.5 25.5q0 35 -45 35t-45 -43h-100q0 61 39 95t109 34q66 0 106 -31t40 -81q0 -53 -47 -80q57 -30 57 -91q0 -56 -40.5 -87t-109.5 -31z" />
    <glyph glyph-name="four.numr" horiz-adv-x="345" 
d="M103 511h78v166zM341 428h-58v-67h-102v67h-171v80l116 242h157v-239h58v-83z" />
    <glyph glyph-name="five.numr" horiz-adv-x="341" 
d="M178 355q-69 0 -111 36.5t-42 94.5h102q0 -21 13.5 -33.5t37.5 -12.5q23 0 36.5 15t13.5 39q0 25 -14 41t-40 16q-18 0 -30.5 -7.5t-14.5 -17.5h-97v224h276v-85h-185v-70q28 31 75 31q56 0 94 -36.5t38 -95.5q0 -62 -42 -100.5t-110 -38.5z" />
    <glyph glyph-name="six.numr" horiz-adv-x="348" 
d="M331 483q0 -60 -41.5 -94t-104.5 -34q-73 0 -118.5 49.5t-45.5 151.5q0 99 47.5 149.5t116.5 50.5q60 0 101 -35t41 -89h-96q-1 18 -12.5 29.5t-32.5 11.5q-28 0 -45.5 -26.5t-17.5 -79.5q28 45 85 45q50 0 86.5 -32.5t36.5 -96.5zM185 435q21 0 34.5 13.5t13.5 34.5
t-14 34.5t-34 13.5t-33.5 -13.5t-13.5 -34.5t13.5 -34.5t33.5 -13.5z" />
    <glyph glyph-name="seven.numr" horiz-adv-x="277" 
d="M174 361h-108v22q0 85 31.5 149.5t87.5 130.5h-181v87h267v-113q-54 -71 -75.5 -120t-21.5 -132v-24z" />
    <glyph glyph-name="eight.numr" horiz-adv-x="345" 
d="M172 355q-71 0 -111 32.5t-40 88.5q0 57 54 91q-43 30 -43 78q0 51 37.5 81t102.5 30q66 0 103.5 -30t37.5 -81q0 -48 -43 -78q55 -34 55 -91q0 -56 -41 -88.5t-112 -32.5zM172 601q18 0 29 10.5t11 27.5t-11 27t-29 10t-28.5 -10t-10.5 -27t10.5 -27.5t28.5 -10.5z
M172 435q24 0 37.5 13t13.5 34t-13.5 34t-37.5 13q-23 0 -36.5 -13t-13.5 -34t13.5 -34t36.5 -13z" />
    <glyph glyph-name="nine.numr" horiz-adv-x="348" 
d="M163 675q-21 0 -34.5 -13.5t-13.5 -34.5t13.5 -34t34.5 -13q20 0 33.5 13t13.5 34t-13.5 34.5t-33.5 13.5zM163 355q-59 0 -100.5 35t-41.5 88h96q1 -18 13 -29t32 -11q29 0 46 26.5t17 78.5q-27 -44 -85 -44q-50 0 -86.5 32.5t-36.5 95.5q0 61 41.5 95t104.5 34
q73 0 118.5 -49.5t45.5 -152.5q0 -98 -47.5 -148.5t-116.5 -50.5z" />
    <glyph glyph-name="comma.dnom" horiz-adv-x="152" 
d="M75 -90h-53q33 48 45 85q-19 3 -32.5 19t-13.5 36q0 22 16 38t39 16q25 0 41 -18t16 -44q0 -52 -58 -132z" />
    <glyph glyph-name="period.dnom" horiz-adv-x="152" 
d="M77 -6q-25 0 -41 16.5t-16 40.5q0 23 16 39.5t41 16.5q24 0 40.5 -16.5t16.5 -39.5q0 -24 -16.5 -40.5t-40.5 -16.5z" />
    <glyph glyph-name="parenleft.dnom" horiz-adv-x="221" 
d="M43 185q0 168 98 303h81q-91 -126 -91 -303t91 -302h-81q-98 133 -98 302z" />
    <glyph glyph-name="parenright.dnom" horiz-adv-x="221" 
d="M179 185q0 -167 -98 -302h-82q92 126 92 302q0 175 -92 303h82q98 -137 98 -303z" />
    <glyph glyph-name="plus.dnom" horiz-adv-x="325" 
d="M293 155h-97v-103h-67v103h-96v64h96v103h67v-103h97v-64z" />
    <glyph glyph-name="minus.dnom" horiz-adv-x="325" 
d="M33 155v64h260v-64h-260z" />
    <glyph glyph-name="multiply.dnom" horiz-adv-x="325" 
d="M234 68l-71 72l-69 -69l-46 46l69 69l-73 72l47 47l73 -72l68 68l46 -46l-68 -68l72 -72z" />
    <glyph glyph-name="divide.dnom" horiz-adv-x="325" 
d="M121 292q0 17 12.5 30t29.5 13q18 0 30 -12.5t12 -30.5t-12 -29.5t-30 -11.5t-30 11.5t-12 29.5zM33 155v64h260v-64h-260zM121 81q0 17 12.5 29.5t29.5 12.5q18 0 30 -12.5t12 -29.5q0 -18 -12 -30t-30 -12q-17 0 -29.5 12t-12.5 30z" />
    <glyph glyph-name="equal.dnom" horiz-adv-x="325" 
d="M33 220v64h260v-64h-260zM33 90v64h260v-64h-260z" />
    <glyph glyph-name="Euro.dnom" horiz-adv-x="397" 
d="M367 159q0 -80 -42.5 -122.5t-113.5 -42.5q-58 0 -97.5 32t-52.5 94h-48v54h43v3v37v3h-43v53h48q13 62 52.5 93.5t97.5 31.5q70 0 113 -42t43 -120h-104q0 79 -52 79q-33 0 -45 -42h65v-53h-71v-3v-37v-3h71v-54h-65q11 -43 45 -43q52 0 52 82h104z" />
    <glyph glyph-name="dollar.dnom" horiz-adv-x="328" 
d="M119 286q0 -20 25 -32v64q-25 -8 -25 -32zM215 105q0 21 -26 34v-67q26 8 26 33zM189 -81h-45v76q-57 6 -92 39.5t-35 87.5h96q0 -38 31 -49v83q-27 9 -42.5 15.5t-36.5 20.5t-31 36t-10 53q0 49 33.5 79t86.5 34v77h45v-78q52 -8 85 -41.5t33 -79.5h-94q0 28 -24 41v-75
l34.5 -12t31.5 -15t30 -22.5t18 -31t8 -44.5q0 -51 -33.5 -82t-88.5 -36v-76z" />
    <glyph glyph-name="cent.dnom" horiz-adv-x="358" 
d="M109 164q0 -64 48 -78v154q-48 -16 -48 -76zM349 132q-9 -57 -47.5 -93.5t-98.5 -43.5v-76h-46v76q-65 8 -107 54.5t-42 114.5q0 67 42 113t107 54v75h46v-75q57 -6 95.5 -40.5t49.5 -89.5h-105q-13 30 -40 38v-152q31 9 42 45h104z" />
    <glyph glyph-name="zeroslash.dnom" horiz-adv-x="358" 
d="M179 -6q-44 0 -78 19l-8 -13h-72l35 56q-35 51 -35 138q0 99 43.5 150t114.5 51q45 0 77 -19l8 12h72l-35 -55q35 -53 35 -139q0 -99 -43 -149.5t-114 -50.5zM120 194q0 -15 2 -33l85 137q-11 8 -28 8q-59 0 -59 -112zM179 87q59 0 59 107q0 15 -2 35l-84 -135
q10 -7 27 -7z" />
    <glyph glyph-name="zero.dnom" horiz-adv-x="358" 
d="M179 -6q-71 0 -114.5 50.5t-43.5 149.5t43.5 150t114.5 51t114 -51t43 -150q0 -100 -42.5 -150t-114.5 -50zM179 87q52 0 52 107q0 112 -52 112q-53 0 -53 -112q0 -107 53 -107z" />
    <glyph glyph-name="one.dnom" horiz-adv-x="220" 
d="M85 383v6h106v-389h-109v242h-72v82h19q29 0 42.5 14t13.5 45z" />
    <glyph glyph-name="two.dnom" horiz-adv-x="316" 
d="M300 275q0 -41 -31.5 -76.5t-72 -65.5t-50.5 -47h156v-86h-285v35q0 35 19 66.5t45.5 53.5t53.5 41t46 38.5t19 36.5t-11 27.5t-29 10.5q-43 0 -43 -46v-13h-98v21q0 59 39.5 91.5t101.5 32.5q60 0 100 -31.5t40 -88.5z" />
    <glyph glyph-name="three.dnom" horiz-adv-x="345" 
d="M178 -6q-73 0 -117 35.5t-44 96.5h101q0 -23 15.5 -36t40.5 -13q22 0 36 11.5t14 30.5q0 41 -53 41h-38v79h38q20 0 31.5 9.5t11.5 25.5q0 35 -45 35t-45 -43h-100q0 61 39 95t109 34q66 0 106 -31t40 -81q0 -53 -47 -80q57 -30 57 -91q0 -56 -40.5 -87t-109.5 -31z" />
    <glyph glyph-name="four.dnom" horiz-adv-x="345" 
d="M103 150h78v166zM341 67h-58v-67h-102v67h-171v80l116 242h157v-239h58v-83z" />
    <glyph glyph-name="five.dnom" horiz-adv-x="341" 
d="M178 -6q-69 0 -111 36.5t-42 94.5h102q0 -21 13.5 -33.5t37.5 -12.5q23 0 36.5 15t13.5 39q0 25 -14 41t-40 16q-18 0 -30.5 -7.5t-14.5 -17.5h-97v224h276v-85h-185v-70q28 31 75 31q56 0 94 -36.5t38 -95.5q0 -62 -42 -100.5t-110 -38.5z" />
    <glyph glyph-name="six.dnom" horiz-adv-x="348" 
d="M331 122q0 -60 -41.5 -94t-104.5 -34q-73 0 -118.5 49.5t-45.5 151.5q0 99 47.5 149.5t116.5 50.5q60 0 101 -35t41 -89h-96q-1 18 -12.5 29.5t-32.5 11.5q-28 0 -45.5 -26.5t-17.5 -79.5q28 45 85 45q50 0 86.5 -32.5t36.5 -96.5zM185 74q21 0 34.5 13.5t13.5 34.5
t-14 34.5t-34 13.5t-33.5 -13.5t-13.5 -34.5t13.5 -34.5t33.5 -13.5z" />
    <glyph glyph-name="seven.dnom" horiz-adv-x="277" 
d="M174 0h-108v22q0 85 31.5 149.5t87.5 130.5h-181v87h267v-113q-54 -71 -75.5 -120t-21.5 -132v-24z" />
    <glyph glyph-name="eight.dnom" horiz-adv-x="345" 
d="M172 -6q-71 0 -111 32.5t-40 88.5q0 57 54 91q-43 30 -43 78q0 51 37.5 81t102.5 30q66 0 103.5 -30t37.5 -81q0 -48 -43 -78q55 -34 55 -91q0 -56 -41 -88.5t-112 -32.5zM172 240q18 0 29 10.5t11 27.5t-11 27t-29 10t-28.5 -10t-10.5 -27t10.5 -27.5t28.5 -10.5z
M172 74q24 0 37.5 13t13.5 34t-13.5 34t-37.5 13q-23 0 -36.5 -13t-13.5 -34t13.5 -34t36.5 -13z" />
    <glyph glyph-name="nine.dnom" horiz-adv-x="348" 
d="M163 314q-21 0 -34.5 -13.5t-13.5 -34.5t13.5 -34t34.5 -13q20 0 33.5 13t13.5 34t-13.5 34.5t-33.5 13.5zM163 -6q-59 0 -100.5 35t-41.5 88h96q1 -18 13 -29t32 -11q29 0 46 26.5t17 78.5q-27 -44 -85 -44q-50 0 -86.5 32.5t-36.5 95.5q0 61 41.5 95t104.5 34
q73 0 118.5 -49.5t45.5 -152.5q0 -98 -47.5 -148.5t-116.5 -50.5z" />
    <glyph glyph-name="fraction.OP" horiz-adv-x="170" 
d="M-161 0l412 600h80l-412 -600h-80z" />
    <glyph glyph-name="onequarter.OP" horiz-adv-x="886" 
d="M197 0l412 600h80l-412 -600h-80zM175 594v6h106v-389h-109v242h-72v82h19q29 0 42.5 14t13.5 45zM601 150h78v166zM839 67h-58v-67h-102v67h-171v80l116 242h157v-239h58v-83z" />
    <glyph glyph-name="onehalf.OP" horiz-adv-x="886" 
d="M197 0l412 600h80l-412 -600h-80zM175 594v6h106v-389h-109v242h-72v82h19q29 0 42.5 14t13.5 45zM828 275q0 -41 -31.5 -76.5t-72 -65.5t-50.5 -47h156v-86h-285v35q0 35 19 66.5t45.5 53.5t53.5 41t46 38.5t19 36.5t-11 27.5t-29 10.5q-43 0 -43 -46v-13h-98v21
q0 59 39.5 91.5t101.5 32.5q60 0 100 -31.5t40 -88.5z" />
    <glyph glyph-name="threequarters.OP" horiz-adv-x="886" 
d="M197 0l412 600h80l-412 -600h-80zM178 205q-73 0 -117 35.5t-44 96.5h101q0 -23 15.5 -36t40.5 -13q22 0 36 11.5t14 30.5q0 41 -53 41h-38v79h38q20 0 31.5 9.5t11.5 25.5q0 35 -45 35t-45 -43h-100q0 61 39 95t109 34q66 0 106 -31t40 -81q0 -53 -47 -80q57 -30 57 -91
q0 -56 -40.5 -87t-109.5 -31zM601 150h78v166zM839 67h-58v-67h-102v67h-171v80l116 242h157v-239h58v-83z" />
    <glyph glyph-name="percent.OP" horiz-adv-x="886" 
d="M179 205q-71 0 -114.5 50.5t-43.5 149.5t43.5 150t114.5 51t114 -51t43 -150q0 -100 -42.5 -150t-114.5 -50zM197 0l412 600h80l-412 -600h-80zM179 298q52 0 52 107q0 112 -52 112q-53 0 -53 -112q0 -107 53 -107zM707 -6q-71 0 -114.5 50.5t-43.5 149.5t43.5 150
t114.5 51t114 -51t43 -150q0 -100 -42.5 -150t-114.5 -50zM707 87q52 0 52 107q0 112 -52 112q-53 0 -53 -112q0 -107 53 -107z" />
    <glyph glyph-name="perthousand.OP" horiz-adv-x="1245" 
d="M179 205q-71 0 -114.5 50.5t-43.5 149.5t43.5 150t114.5 51t114 -51t43 -150q0 -100 -42.5 -150t-114.5 -50zM197 0l412 600h80l-412 -600h-80zM179 298q52 0 52 107q0 112 -52 112q-53 0 -53 -112q0 -107 53 -107zM1066 -6q-71 0 -114.5 50.5t-43.5 149.5t43.5 150
t114.5 51t114 -51t43 -150q0 -100 -42.5 -150t-114.5 -50zM708 -6q-71 0 -114.5 50.5t-43.5 149.5t43.5 150t114.5 51t114 -51t43 -150q0 -100 -42.5 -150t-114.5 -50zM1066 87q52 0 52 107q0 112 -52 112q-53 0 -53 -112q0 -107 53 -107zM708 87q52 0 52 107q0 112 -52 112
q-53 0 -53 -112q0 -107 53 -107z" />
    <glyph glyph-name="litre" horiz-adv-x="500" 
d="M328 -10q-80 0 -134 48.5t-81 133.5q-29 -4 -67 -4v110q23 0 44 3q-5 47 -5 89q0 191 49 291t162 100q173 0 173 -216q0 -121 -63 -210t-171 -132q33 -101 100 -101q40 0 70 19l11 -108q-38 -23 -88 -23zM212 370q0 -18 2 -50q61 36 95.5 97t34.5 141q0 83 -51 83
q-81 0 -81 -271z" />
    <glyph glyph-name="ampersand.alt" horiz-adv-x="580" 
d="M272 115q42 0 62 19.5t20 63.5v135h-81q-85 0 -85 -92v-35q0 -50 20 -70.5t64 -20.5zM378 0v66q-40 -79 -142 -79q-93 0 -143 54t-50 159v38q0 114 106 160q-85 47 -85 145v32q0 89 57.5 138.5t149.5 49.5q95 0 154 -51.5t59 -145.5v-42h-145v37q0 74 -68 74
q-67 0 -67 -74v-25q0 -83 70 -83h299v-120h-79v-333h-116z" />
    <glyph glyph-name="zero.opencirc" horiz-adv-x="830" 
d="M415 -10q-163 0 -271.5 112.5t-108.5 272.5q0 161 108.5 273t271.5 112t271.5 -112t108.5 -273q0 -160 -108.5 -272.5t-271.5 -112.5zM415 703q-136 0 -226.5 -95.5t-90.5 -232.5t90.5 -232t226.5 -95t227 95t91 232t-91 232.5t-227 95.5zM415 175q-71 0 -114.5 50.5
t-43.5 149.5t43.5 150t114.5 51t114 -51t43 -150q0 -100 -42.5 -150t-114.5 -50zM415 268q52 0 52 107q0 112 -52 112q-53 0 -53 -112q0 -107 53 -107z" />
    <glyph glyph-name="zero.closecirc" horiz-adv-x="830" 
d="M795 375q0 -160 -108.5 -272.5t-271.5 -112.5t-271.5 112.5t-108.5 272.5q0 161 108.5 273t271.5 112t271.5 -112t108.5 -273zM257 375q0 -99 43.5 -149.5t114.5 -50.5q72 0 114.5 50t42.5 150q0 99 -43 150t-114 51t-114.5 -51t-43.5 -150zM467 375q0 -107 -52 -107
q-53 0 -53 107q0 112 53 112q52 0 52 -112z" />
    <glyph glyph-name="T_h" horiz-adv-x="1002" 
d="M424 623h-134v-623h-145v623h-135v127h414v-127zM622 276v-276h-145v750h145v-317q49 77 143 77q81 0 131.5 -52t50.5 -149v-309h-145v276q0 56 -23.5 85t-66.5 29t-66.5 -29t-23.5 -85z" />
    <glyph glyph-name="arrowupleft" 
d="M408 142l-201 200v-149h-91v307h308v-88h-150l202 -203z" />
    <glyph glyph-name="arrowupright" 
d="M343 193v149l-201 -200l-68 67l202 203h-150v88h308v-307h-91z" />
    <glyph glyph-name="arrowdownleft" 
d="M424 0h-308v307h91v-149l201 201l68 -68l-203 -203h151v-88z" />
    <glyph glyph-name="arrowdownright" 
d="M434 0h-308v88h151l-203 203l68 68l201 -200v148h91v-307z" />
    <glyph glyph-name="blacksquare" horiz-adv-x="563" 
d="M123 132v316h316v-316h-316z" />
    <glyph glyph-name="blackdiamond" horiz-adv-x="563" 
d="M281 67l-223 223l223 223l223 -223z" />
    <glyph glyph-name="blackcircle" horiz-adv-x="563" 
d="M281 122q-71 0 -118 47t-47 118t47 118t118 47t117.5 -47t46.5 -118t-46.5 -118t-117.5 -47z" />
    <glyph glyph-name="blacktriangle" horiz-adv-x="563" 
d="M141 67v446l363 -223z" />
    <glyph glyph-name="whitesquare" horiz-adv-x="563" 
d="M123 132v316h316v-316h-316zM197 206h168v168h-168v-168z" />
    <glyph glyph-name="whitediamond" horiz-adv-x="563" 
d="M281 67l-223 223l223 223l223 -223zM281 171l119 119l-119 119l-119 -119z" />
    <glyph glyph-name="whitecircle" horiz-adv-x="563" 
d="M281 122q-71 0 -118 47t-47 118t47 118t118 47t117.5 -47t46.5 -118t-46.5 -118t-117.5 -47zM281 190q40 0 67 27.5t27 69.5t-27 69.5t-67 27.5q-41 0 -68 -27.5t-27 -69.5t27 -69.5t68 -27.5z" />
    <glyph glyph-name="whitetriangle" horiz-adv-x="563" 
d="M141 67v446l363 -223zM216 193l156 97l-156 97v-194z" />
    <glyph glyph-name="blackleftpointingtriangle" horiz-adv-x="736" 
d="M29 318l597 322v-640z" />
    <glyph glyph-name="blackrightpointingtriangle" horiz-adv-x="736" 
d="M110 0v640l597 -322z" />
    <glyph glyph-name="blackuppointingtriangle" horiz-adv-x="736" 
d="M366 640l322 -640h-640z" />
    <glyph glyph-name="blackdownpointingtriangle" horiz-adv-x="736" 
d="M374 -1l-326 641h640z" />
    <glyph glyph-name="whiteleftpointingtriangle" horiz-adv-x="736" 
d="M29 318l597 322v-640zM199 318l339 -171v348z" />
    <glyph glyph-name="whiterightpointingtriangle" horiz-adv-x="736" 
d="M707 318l-597 -318v640zM538 318l-340 177v-348z" />
    <glyph glyph-name="whiteuppointingtriangle" horiz-adv-x="736" 
d="M366 640l322 -640h-640zM366 458l-172 -369h348z" />
    <glyph glyph-name="whitedownpointingtriangle" horiz-adv-x="736" 
d="M366 0l-318 640h640zM366 182l176 369h-348z" />
    <glyph glyph-name="chevronleft" horiz-adv-x="736" 
d="M89 369l391 371h138l-388 -371l388 -369h-138z" />
    <glyph glyph-name="chevronright" horiz-adv-x="736" 
d="M108 0l388 369l-388 371h138l391 -371l-391 -369h-138z" />
    <glyph glyph-name="chevronup" horiz-adv-x="736" 
d="M18 110v138l349 391l351 -391v-138l-351 388z" />
    <glyph glyph-name="chevrondown" horiz-adv-x="736" 
d="M367 110l-349 391v138l349 -388l351 388v-138z" />
    <glyph glyph-name="heartsuitwhite" horiz-adv-x="848" 
d="M442 0h-36q-17 51 -58.5 97.5t-87.5 83t-89.5 75.5t-72 91t-28.5 114q0 89 52.5 139t129.5 50q57 0 102.5 -29.5t69.5 -91.5q23 62 69 91.5t103 29.5q77 0 129.5 -50t52.5 -139q0 -62 -28.5 -114t-72.5 -91t-89.5 -75.5t-87 -83t-58.5 -97.5z" />
    <glyph glyph-name="Roo_It" horiz-adv-x="1025" 
d="M287 623q13 -66 -43 -114l102 -162l-79 -41l-103 183l-13 -175l-81 6l19 376h2q34 10 73 10q106 0 123 -83zM927 618q36 -38 24 -116q-15 -106 -113 -135q-89 -26 -154 33q-36 33 -49 86q-23 100 75 170q43 34 104 26t113 -64zM469 383q-36 0 -77 14q-46 15 -62 62.5
t1 114.5q13 52 80 71q30 8 55 8q55 0 96 -35q29 -24 35 -52q21 -94 -43 -152q-34 -31 -85 -31zM207 599q2 18 -7 28q-7 10 -28 10l-5 -69q36 7 40 31zM873 510q7 34 -13 60t-65 26q-3 0 -8.5 -0.5t-20 -4.5t-25.5 -11t-20 -22t-9 -36q-1 -38 31.5 -62.5t60.5 -16.5
q58 16 69 67zM495 463q4 2 12 11.5t16 29t-6 42.5q-18 31 -56 31q-21 0 -34 -11q-33 -33 -21 -70q4 -15 20 -29t34 -14t35 10zM363 54l-10 263l85 5l-3 -268h-72zM478 267l3 78l278 -10l-6 -82l-95 5l-18 -218l-75 3l6 219z" />
    <glyph glyph-name="Tic_Toc" horiz-adv-x="1007" 
d="M397 665l-106 -2l9 -250l-90 -1v250l-102 -2l-3 74l292 10v-79zM520 680l3 -275l-95 -8l7 285zM789 404q-27 -9 -59 -9q-8 0 -12 1q-53 5 -92 38q-41 36 -54 90q-28 104 75 183q39 30 91 30q2 0 5.5 -0.5t5.5 -0.5q48 -5 92 -34l6 -4l-56 -66l-5 2q-17 9 -34 10h-14
q-22 0 -43 -10q-43 -22 -42 -69q1 -34 24.5 -57.5t53.5 -25.5h5q11 0 16 2q25 7 43 24l4 4l62 -66l-4 -4q-30 -27 -68 -38zM395 290l-105 -9l19 -283l-100 -5l-11 279l-124 -11l-4 97l322 14zM529 286q79 -26 87 -125q4 -48 -27.5 -88t-91.5 -49q-52 -7 -97 31
q-64 52 -40 140q8 33 31.5 58t56.5 35q37 12 81 -2zM830 5q-23 -2 -44 3q-72 12 -113 70q-30 44 -32 105q0 112 112 160q41 18 93 9q27 -4 55 -20l-30 -78l-9 2q-8 1 -15 2t-19 1.5t-21.5 -0.5t-21.5 -5t-21 -10.5t-17 -18t-12 -26.5q-9 -33 10 -64q22 -34 56 -40h12
q49 2 75 28l49 -70q-18 -17 -47.5 -31.5t-59.5 -16.5zM449 115q15 -18 40.5 -15.5t43.5 31.5q3 6 7 15.5t1 31t-23 33.5q-26 14 -52.5 3.5t-32.5 -31.5q-12 -41 16 -68z" />
    <glyph glyph-name="Mmmm" horiz-adv-x="1399" 
d="M1304 545l25 -189l-59 -5l-13 104l-43 -75l-25 1l-37 93l-21 -117l-59 12l25 186l69 5l42 -99l43 89zM934 570l70 8l52 -254l-64 -11l-27 154l-30 -59l-47 -5l-39 72l-11 -181l-79 4l18 293l75 4l58 -104zM632 574l94 -2l2 -235l-75 2l2 136l-47 -88l-40 -1l-48 79
l-1 -153l-65 5l-4 243l73 7l61 -94zM276 616l106 16l49 -381l-102 -10l-22 223l-38 -118l-62 -4l-55 78l-6 -186l-76 -6l15 318l84 12l53 -85z" />
    <glyph glyph-name="Kangaroo" horiz-adv-x="815" 
d="M557 747l188 -20l-51 -485l-107 -241l-470 100l-47 221l267 57l-59 277l185 39l59 -277zM409 270q13 13 9 34q-2 10 -19 18q-6 2 -10 2q-26 0 -31 -17q-8 -33 15 -41q24 -7 36 4zM545 255q12 21 3 35q-9 17 -32 17q-11 0 -20 -13q-4 -6 -6 -14q-3 -23 11 -30q33 -16 44 5
z" />
    <glyph glyph-name="Fresh" horiz-adv-x="1314" 
d="M270 587l11 -76l-124 -12l4 -70l120 7v-80l-118 -7l5 -127l-88 -5l-10 348zM543 306l-5 251q187 15 191 15v-74l-120 -6v-31l107 5l1 -59l-106 -4l1 -34l110 -3l-6 -67zM506 447q6 -32 -6 -60t-23 -38.5t-16 -13.5l77 -97l-68 -48l-87 122q-7 -106 -7 -115l-75 5l16 348
q7 1 18 1t40.5 -3.5t53.5 -12.5t47 -32t30 -56zM432 423q3 21 -7 32t-34 10l-5 -77q43 9 46 35zM1210 579l34 -316l-91 -10l-5 130l-60 -2v-136l-87 8l11 319h77v-98h57l-3 97zM933 412q29 -29 39 -57q18 -48 -13 -87t-91 -39q-12 0 -18 1q-49 6 -89 42l-5 4l56 64l4 -4
q21 -17 38 -23q3 -1 11 -1t12 2q8 5 8 12q1 9 -12 26q-22 20 -35 31q-4 4 -14 12t-15 13q-44 42 -51 83q-4 19 3 45q9 28 32 45q23 15 57 18h13q50 0 91 -25l6 -4l-45 -72l-6 4q-21 13 -38 14q-12 0 -18 -6q-11 -11 -2 -23l6 -6l6 -6l4 -4q3 -2 6.5 -5.5l6.5 -6.5t7 -6t7 -6
q26 -22 39 -35z" />
    <glyph glyph-name="Hot" horiz-adv-x="985" 
d="M259 472l3 146l89 -1l-7 -377l-89 2l3 148l-92 -4l9 -131l-82 -6l-23 328l83 6l8 -116zM443 505q36 28 86.5 21t96.5 -52q31 -30 21 -98q-13 -88 -97 -113q-74 -21 -129 27q-31 29 -41 73q-19 82 63 142zM612 606l303 -10l-5 -83l-111 6l-14 -274l-90 5l17 274l-101 5z
M572 384q6 25 -9 44.5t-49 19.5q-3 0 -7 -0.5t-14.5 -3.5t-19 -8t-15 -16.5t-6.5 -26.5q-1 -29 23.5 -47.5t45.5 -12.5q43 12 51 51z" />
    <glyph glyph-name="Yeah" horiz-adv-x="1260" 
d="M779 561l92 -8l66 -339l-84 -14l-19 103h-73l-27 -81l-87 28zM296 561l78 -46l-93 -147l6 -159l-91 1l-3 154l-123 109l61 69l96 -89zM782 380l45 -1l-17 85zM622 377l-149 7l-3 -58l155 -6l-5 -89l-242 15l20 345h261l-8 -85l-172 5l-2 -44l150 -6zM1144 533l46 -278
l-84 -8l-13 112l-50 -4v-119l-82 7l10 284h73v-85l42 1l-7 84z" />
    </font>
</defs>
</svg>
